<svg width="512" height="83" viewBox="0 0 512 83" fill="none" xmlns="http://www.w3.org/2000/svg">
<path d="M40.99 82.76C29.33 82.76 19.5767 78.8367 11.73 70.99C3.95667 63.1433 0.0700001 53.3533 0.0700001 41.62C0.0700001 29.8867 3.95667 20.1333 11.73 12.36C19.5033 4.44 29.2567 0.479994 40.99 0.479994C52.87 0.479994 62.5133 4.77 69.92 13.35L62.66 20.39C57.0133 13.57 49.79 10.16 40.99 10.16C32.2633 10.16 24.9667 13.0933 19.1 18.96C13.3067 24.7533 10.41 32.3067 10.41 41.62C10.41 50.9333 13.3067 58.4867 19.1 64.28C24.9667 70.1467 32.2633 73.08 40.99 73.08C50.1567 73.08 58.1133 69.23 64.86 61.53L72.23 68.68C68.49 73.1533 63.9067 76.6367 58.48 79.13C53.0533 81.55 47.2233 82.76 40.99 82.76ZM77.0683 54.05C77.0683 45.7633 79.6716 38.9067 84.8783 33.48C90.1583 28.0533 96.7949 25.34 104.788 25.34C112.782 25.34 119.382 28.0533 124.588 33.48C129.868 38.9067 132.508 45.7633 132.508 54.05C132.508 62.41 129.868 69.2667 124.588 74.62C119.382 80.0467 112.782 82.76 104.788 82.76C96.7949 82.76 90.1583 80.0467 84.8783 74.62C79.6716 69.1933 77.0683 62.3367 77.0683 54.05ZM87.1883 54.05C87.1883 59.8433 88.8749 64.5367 92.2483 68.13C95.6216 71.7233 99.8016 73.52 104.788 73.52C109.775 73.52 113.955 71.7233 117.328 68.13C120.702 64.5367 122.388 59.8433 122.388 54.05C122.388 48.33 120.702 43.6733 117.328 40.08C113.882 36.4133 109.702 34.58 104.788 34.58C99.8749 34.58 95.6949 36.4133 92.2483 40.08C88.8749 43.6733 87.1883 48.33 87.1883 54.05ZM140.627 27.1H150.307V34.58H150.747C152.287 31.94 154.633 29.74 157.787 27.98C161.013 26.22 164.35 25.34 167.797 25.34C174.397 25.34 179.457 27.2467 182.977 31.06C186.57 34.8 188.367 40.1533 188.367 47.12V81H178.247V47.78C178.027 38.98 173.59 34.58 164.937 34.58C160.903 34.58 157.53 36.23 154.817 39.53C152.103 42.7567 150.747 46.6433 150.747 51.19V81H140.627V27.1ZM218.793 81.88C214.393 81.88 210.726 80.5233 207.793 77.81C204.933 75.0967 203.466 71.32 203.393 66.48V36.34H193.933V27.1H203.393V10.6H213.513V27.1H226.713V36.34H213.513V63.18C213.513 66.7733 214.21 69.23 215.603 70.55C216.996 71.7967 218.573 72.42 220.333 72.42C221.14 72.42 221.91 72.3467 222.643 72.2C223.45 71.98 224.183 71.7233 224.843 71.43L228.033 80.45C225.393 81.4033 222.313 81.88 218.793 81.88ZM242.635 64.5C242.635 67.14 243.735 69.34 245.935 71.1C248.209 72.86 250.849 73.74 253.855 73.74C258.109 73.74 261.885 72.1633 265.185 69.01C268.559 65.8567 270.245 62.1533 270.245 57.9C267.092 55.4067 262.692 54.16 257.045 54.16C252.939 54.16 249.492 55.15 246.705 57.13C243.992 59.11 242.635 61.5667 242.635 64.5ZM255.725 25.34C263.205 25.34 269.109 27.3567 273.435 31.39C277.762 35.35 279.925 40.8133 279.925 47.78V81H270.245V73.52H269.805C265.625 79.68 260.052 82.76 253.085 82.76C247.145 82.76 242.159 81 238.125 77.48C234.165 73.96 232.185 69.56 232.185 64.28C232.185 58.7067 234.275 54.27 238.455 50.97C242.709 47.67 248.355 46.02 255.395 46.02C261.409 46.02 266.359 47.12 270.245 49.32V47.01C270.245 43.49 268.852 40.52 266.065 38.1C263.279 35.6067 260.015 34.36 256.275 34.36C250.629 34.36 246.155 36.7433 242.855 41.51L233.945 35.9C238.859 28.86 246.119 25.34 255.725 25.34ZM315.443 82.76C307.449 82.76 300.813 80.0467 295.533 74.62C290.326 69.0467 287.723 62.19 287.723 54.05C287.723 45.7633 290.326 38.9067 295.533 33.48C300.813 28.0533 307.449 25.34 315.443 25.34C320.943 25.34 325.746 26.7333 329.853 29.52C333.959 32.2333 337.039 36.01 339.093 40.85L329.853 44.7C326.993 37.9533 321.969 34.58 314.783 34.58C310.163 34.58 306.166 36.45 302.793 40.19C299.493 43.93 297.843 48.55 297.843 54.05C297.843 59.55 299.493 64.17 302.793 67.91C306.166 71.65 310.163 73.52 314.783 73.52C322.189 73.52 327.396 70.1467 330.403 63.4L339.423 67.25C337.443 72.09 334.326 75.9033 330.073 78.69C325.893 81.4033 321.016 82.76 315.443 82.76ZM369.076 81.88C364.676 81.88 361.01 80.5233 358.076 77.81C355.216 75.0967 353.75 71.32 353.676 66.48V36.34H344.216V27.1H353.676V10.6H363.796V27.1H376.996V36.34H363.796V63.18C363.796 66.7733 364.493 69.23 365.886 70.55C367.28 71.7967 368.856 72.42 370.616 72.42C371.423 72.42 372.193 72.3467 372.926 72.2C373.733 71.98 374.466 71.7233 375.126 71.43L378.316 80.45C375.676 81.4033 372.596 81.88 369.076 81.88ZM458.093 81H448.413V73.52H447.973C446.433 76.16 444.049 78.36 440.823 80.12C437.669 81.88 434.369 82.76 430.923 82.76C424.323 82.76 419.226 80.89 415.633 77.15C412.113 73.3367 410.353 67.9467 410.353 60.98V27.1H420.473V60.32C420.693 69.12 425.129 73.52 433.783 73.52C437.816 73.52 441.189 71.9067 443.903 68.68C446.616 65.38 447.973 61.4567 447.973 56.91V27.1H458.093V81ZM511.125 66.04C511.125 70.7333 509.072 74.6933 504.965 77.92C500.858 81.1467 495.688 82.76 489.455 82.76C484.028 82.76 479.262 81.3667 475.155 78.58C471.048 75.72 468.115 71.98 466.355 67.36L475.375 63.51C476.695 66.7367 478.602 69.2667 481.095 71.1C483.662 72.86 486.448 73.74 489.455 73.74C492.682 73.74 495.358 73.0433 497.485 71.65C499.685 70.2567 500.785 68.6067 500.785 66.7C500.785 63.2533 498.145 60.7233 492.865 59.11L483.625 56.8C473.138 54.16 467.895 49.1 467.895 41.62C467.895 36.7067 469.875 32.7833 473.835 29.85C477.868 26.8433 483.002 25.34 489.235 25.34C494.002 25.34 498.292 26.4767 502.105 28.75C505.992 31.0233 508.705 34.0667 510.245 37.88L501.225 41.62C500.198 39.3467 498.512 37.5867 496.165 36.34C493.892 35.02 491.325 34.36 488.465 34.36C485.825 34.36 483.442 35.02 481.315 36.34C479.262 37.66 478.235 39.2733 478.235 41.18C478.235 44.26 481.132 46.46 486.925 47.78L495.065 49.87C505.772 52.51 511.125 57.9 511.125 66.04Z" fill="#000"/>
</svg>