<svg width="1483" height="106" viewBox="0 0 1483 106" fill="none" xmlns="http://www.w3.org/2000/svg">
<path d="M174.53 63.5C174.53 66.14 175.63 68.34 177.83 70.1C180.103 71.86 182.743 72.74 185.75 72.74C190.003 72.74 193.78 71.1633 197.08 68.01C200.453 64.8567 202.14 61.1533 202.14 56.9C198.987 54.4067 194.587 53.16 188.94 53.16C184.833 53.16 181.387 54.15 178.6 56.13C175.887 58.11 174.53 60.5667 174.53 63.5ZM187.62 24.34C195.1 24.34 201.003 26.3567 205.33 30.39C209.657 34.35 211.82 39.8133 211.82 46.78V80H202.14V72.52H201.7C197.52 78.68 191.947 81.76 184.98 81.76C179.04 81.76 174.053 80 170.02 76.48C166.06 72.96 164.08 68.56 164.08 63.28C164.08 57.7067 166.17 53.27 170.35 49.97C174.603 46.67 180.25 45.02 187.29 45.02C193.303 45.02 198.253 46.12 202.14 48.32V46.01C202.14 42.49 200.747 39.52 197.96 37.1C195.173 34.6067 191.91 33.36 188.17 33.36C182.523 33.36 178.05 35.7433 174.75 40.51L165.84 34.9C170.753 27.86 178.013 24.34 187.62 24.34ZM233.354 80H223.234V26.1H232.914V33.58H233.354C234.894 30.94 237.241 28.74 240.394 26.98C243.621 25.22 246.811 24.34 249.964 24.34C253.924 24.34 257.408 25.2567 260.414 27.09C263.421 28.9233 265.621 31.4533 267.014 34.68C271.488 27.7867 277.684 24.34 285.604 24.34C291.838 24.34 296.641 26.2467 300.014 30.06C303.388 33.8733 305.074 39.3 305.074 46.34V80H294.954V47.88C294.954 42.82 294.038 39.19 292.204 36.99C290.371 34.7167 287.291 33.58 282.964 33.58C279.078 33.58 275.814 35.23 273.174 38.53C270.534 41.83 269.214 45.7167 269.214 50.19V80H259.094V47.88C259.094 42.82 258.178 39.19 256.344 36.99C254.511 34.7167 251.431 33.58 247.104 33.58C243.218 33.58 239.954 35.23 237.314 38.53C234.674 41.83 233.354 45.7167 233.354 50.19V80ZM323.739 63.5C323.739 66.14 324.839 68.34 327.039 70.1C329.312 71.86 331.952 72.74 334.959 72.74C339.212 72.74 342.989 71.1633 346.289 68.01C349.662 64.8567 351.349 61.1533 351.349 56.9C348.196 54.4067 343.796 53.16 338.149 53.16C334.042 53.16 330.596 54.15 327.809 56.13C325.096 58.11 323.739 60.5667 323.739 63.5ZM336.829 24.34C344.309 24.34 350.212 26.3567 354.539 30.39C358.866 34.35 361.029 39.8133 361.029 46.78V80H351.349V72.52H350.909C346.729 78.68 341.156 81.76 334.189 81.76C328.249 81.76 323.262 80 319.229 76.48C315.269 72.96 313.289 68.56 313.289 63.28C313.289 57.7067 315.379 53.27 319.559 49.97C323.812 46.67 329.459 45.02 336.499 45.02C342.512 45.02 347.462 46.12 351.349 48.32V46.01C351.349 42.49 349.956 39.52 347.169 37.1C344.382 34.6067 341.119 33.36 337.379 33.36C331.732 33.36 327.259 35.7433 323.959 40.51L315.049 34.9C319.962 27.86 327.222 24.34 336.829 24.34ZM414.437 80H370.877V71.2L401.567 35.34H371.757V26.1H413.997V34.9L383.307 70.76H414.437V80ZM419.959 53.05C419.959 44.7633 422.562 37.9067 427.769 32.48C433.049 27.0533 439.686 24.34 447.679 24.34C455.672 24.34 462.272 27.0533 467.479 32.48C472.759 37.9067 475.399 44.7633 475.399 53.05C475.399 61.41 472.759 68.2667 467.479 73.62C462.272 79.0467 455.672 81.76 447.679 81.76C439.686 81.76 433.049 79.0467 427.769 73.62C422.562 68.1933 419.959 61.3367 419.959 53.05ZM430.079 53.05C430.079 58.8433 431.766 63.5367 435.139 67.13C438.512 70.7233 442.692 72.52 447.679 72.52C452.666 72.52 456.846 70.7233 460.219 67.13C463.592 63.5367 465.279 58.8433 465.279 53.05C465.279 47.33 463.592 42.6733 460.219 39.08C456.772 35.4133 452.592 33.58 447.679 33.58C442.766 33.58 438.586 35.4133 435.139 39.08C431.766 42.6733 430.079 47.33 430.079 53.05ZM483.517 26.1H493.197V33.58H493.637C495.177 30.94 497.524 28.74 500.677 26.98C503.904 25.22 507.241 24.34 510.687 24.34C517.287 24.34 522.347 26.2467 525.867 30.06C529.461 33.8 531.257 39.1533 531.257 46.12V80H521.137V46.78C520.917 37.98 516.481 33.58 507.827 33.58C503.794 33.58 500.421 35.23 497.707 38.53C494.994 41.7567 493.637 45.6433 493.637 50.19V80H483.517V26.1ZM590.547 80H578.337L561.507 54.59L553.257 62.73V80H543.137V1.24H553.257V49.75L576.577 26.1H589.557V26.54L568.547 47.44L590.547 79.56V80ZM609.4 7.51C609.4 9.49 608.704 11.1767 607.31 12.57C605.917 13.9633 604.23 14.66 602.25 14.66C600.27 14.66 598.584 13.9633 597.19 12.57C595.797 11.1767 595.1 9.49 595.1 7.51C595.1 5.52999 595.797 3.84333 597.19 2.45C598.584 1.05666 600.27 0.359996 602.25 0.359996C604.23 0.359996 605.917 1.05666 607.31 2.45C608.704 3.84333 609.4 5.52999 609.4 7.51ZM607.31 26.1V80H597.19V26.1H607.31ZM620.48 26.1H630.16V33.58H630.6C632.14 30.94 634.487 28.74 637.64 26.98C640.867 25.22 644.204 24.34 647.65 24.34C654.25 24.34 659.31 26.2467 662.83 30.06C666.424 33.8 668.22 39.1533 668.22 46.12V80H658.1V46.78C657.88 37.98 653.444 33.58 644.79 33.58C640.757 33.58 637.384 35.23 634.67 38.53C631.957 41.7567 630.6 45.6433 630.6 50.19V80H620.48V26.1ZM703.762 72.52C708.749 72.52 712.819 70.7233 715.972 67.13C719.272 63.5367 720.922 58.8433 720.922 53.05C720.922 47.4033 719.272 42.7467 715.972 39.08C712.746 35.4133 708.676 33.58 703.762 33.58C698.922 33.58 694.852 35.4133 691.552 39.08C688.252 42.7467 686.602 47.4033 686.602 53.05C686.602 58.77 688.252 63.4267 691.552 67.02C694.852 70.6867 698.922 72.52 703.762 72.52ZM703.432 105.52C700.426 105.52 697.602 105.117 694.962 104.31C692.322 103.577 689.902 102.513 687.702 101.12C685.576 99.7267 683.742 98.0767 682.202 96.17C680.662 94.2633 679.489 92.1367 678.682 89.79L688.252 85.83C689.352 88.9833 691.259 91.5133 693.972 93.42C696.686 95.3267 699.839 96.28 703.432 96.28C708.932 96.28 713.222 94.63 716.302 91.33C719.382 88.03 720.922 83.4833 720.922 77.69V72.52H720.482C718.576 75.38 715.972 77.6533 712.672 79.34C709.446 80.9533 705.926 81.76 702.112 81.76C695.072 81.76 689.022 79.01 683.962 73.51C678.976 67.8633 676.482 61.0433 676.482 53.05C676.482 45.0567 678.976 38.2733 683.962 32.7C689.022 27.1267 695.072 24.34 702.112 24.34C705.926 24.34 709.446 25.1833 712.672 26.87C715.972 28.4833 718.576 30.72 720.482 33.58H720.922V26.1H730.602V77.69C730.602 86.3433 728.146 93.1267 723.232 98.04C718.246 103.027 711.646 105.52 703.432 105.52ZM769.231 32.26C775.318 32.26 780.745 34.68 785.511 39.52C790.351 44.2867 792.771 49.97 792.771 56.57C792.771 63.3167 790.205 69.22 785.071 74.28C779.865 79.2667 773.851 81.76 767.031 81.76C759.771 81.76 753.648 79.2667 748.661 74.28C743.675 69.2933 741.181 63.39 741.181 56.57C741.181 50.4833 743.638 43.5533 748.551 35.78L770.441 2.99999L778.581 8.60999L759.991 34.35L760.211 34.57C762.485 33.03 765.491 32.26 769.231 32.26ZM751.411 56.68C751.411 61.0067 752.915 64.6733 755.921 67.68C758.928 70.6133 762.631 72.08 767.031 72.08C771.431 72.08 775.098 70.6133 778.031 67.68C781.038 64.6733 782.541 61.0067 782.541 56.68C782.541 52.4267 781.001 48.7967 777.921 45.79C774.915 42.7833 771.285 41.28 767.031 41.28C762.851 41.28 759.185 42.7833 756.031 45.79C752.951 48.7967 751.411 52.4267 751.411 56.68ZM826.822 4.76V80H816.702V17.3L802.072 23.68L798.222 15.1L820.332 4.76H826.822ZM869.026 32.26C875.113 32.26 880.54 34.68 885.306 39.52C890.146 44.2867 892.566 49.97 892.566 56.57C892.566 63.3167 890 69.22 884.866 74.28C879.66 79.2667 873.646 81.76 866.826 81.76C859.566 81.76 853.443 79.2667 848.456 74.28C843.47 69.2933 840.976 63.39 840.976 56.57C840.976 50.4833 843.433 43.5533 848.346 35.78L870.236 2.99999L878.376 8.60999L859.786 34.35L860.006 34.57C862.28 33.03 865.286 32.26 869.026 32.26ZM851.206 56.68C851.206 61.0067 852.71 64.6733 855.716 67.68C858.723 70.6133 862.426 72.08 866.826 72.08C871.226 72.08 874.893 70.6133 877.826 67.68C880.833 64.6733 882.336 61.0067 882.336 56.68C882.336 52.4267 880.796 48.7967 877.716 45.79C874.71 42.7833 871.08 41.28 866.826 41.28C862.646 41.28 858.98 42.7833 855.826 45.79C852.746 48.7967 851.206 52.4267 851.206 56.68ZM987.587 46.56C987.587 53.6 986.121 59.1733 983.187 63.28C980.254 67.3867 976.221 69.44 971.087 69.44C965.587 69.44 961.481 66.7633 958.767 61.41C955.174 66.7633 950.041 69.44 943.367 69.44C937.207 69.44 932.111 67.3133 928.077 63.06C924.044 58.8067 922.027 53.4533 922.027 47C922.027 40.62 924.044 35.3033 928.077 31.05C932.184 26.7233 937.134 24.56 942.927 24.56C948.574 24.56 953.267 26.7233 957.007 31.05H957.447V26.1H965.367V53.49C965.367 59.3567 967.531 62.29 971.857 62.29C977.064 62.29 979.667 57.0467 979.667 46.56C979.667 37.0267 976.294 28.8867 969.547 22.14C962.801 15.3933 954.587 12.02 944.907 12.02C935.227 12.02 927.014 15.3933 920.267 22.14C913.521 28.8867 910.147 37.0267 910.147 46.56C910.147 56.1667 913.521 64.3433 920.267 71.09C926.941 77.7633 935.154 81.1 944.907 81.1C950.187 81.1 954.844 80.0733 958.877 78.02L961.957 85.5C956.677 87.8467 950.994 89.02 944.907 89.02C937.061 89.02 929.801 87.15 923.127 83.41C916.601 79.67 911.394 74.5 907.507 67.9C905.601 64.5267 904.171 61.0433 903.217 57.45C902.264 53.8567 901.787 50.19 901.787 46.45C901.787 42.7833 902.227 39.19 903.107 35.67C904.061 32.0767 905.491 28.63 907.397 25.33C909.304 22.03 911.577 19.06 914.217 16.42C916.931 13.78 919.901 11.58 923.127 9.82C926.427 7.98666 929.911 6.59333 933.577 5.63999C937.244 4.61333 941.021 4.09999 944.907 4.09999C952.681 4.09999 959.831 5.96999 966.357 9.70999C972.957 13.45 978.127 18.62 981.867 25.22C985.681 31.7467 987.587 38.86 987.587 46.56ZM930.827 47C930.827 49.0533 931.157 50.96 931.817 52.72C932.477 54.4067 933.394 55.8733 934.567 57.12C935.814 58.3667 937.244 59.3567 938.857 60.09C940.471 60.75 942.231 61.08 944.137 61.08C946.044 61.08 947.804 60.75 949.417 60.09C951.031 59.3567 952.424 58.4033 953.597 57.23C954.844 55.9833 955.797 54.5167 956.457 52.83C957.117 51.07 957.447 49.1267 957.447 47C957.447 44.9467 957.117 43.04 956.457 41.28C955.797 39.52 954.844 38.0533 953.597 36.88C952.424 35.6333 951.031 34.68 949.417 34.02C947.804 33.2867 946.044 32.92 944.137 32.92C942.231 32.92 940.471 33.2867 938.857 34.02C937.244 34.68 935.814 35.6333 934.567 36.88C933.394 38.1267 932.477 39.63 931.817 41.39C931.157 43.0767 930.827 44.9467 930.827 47ZM1022.81 72.52C1027.79 72.52 1031.86 70.7233 1035.02 67.13C1038.32 63.5367 1039.97 58.8433 1039.97 53.05C1039.97 47.4033 1038.32 42.7467 1035.02 39.08C1031.79 35.4133 1027.72 33.58 1022.81 33.58C1017.97 33.58 1013.9 35.4133 1010.6 39.08C1007.3 42.7467 1005.65 47.4033 1005.65 53.05C1005.65 58.77 1007.3 63.4267 1010.6 67.02C1013.9 70.6867 1017.97 72.52 1022.81 72.52ZM1022.48 105.52C1019.47 105.52 1016.65 105.117 1014.01 104.31C1011.37 103.577 1008.95 102.513 1006.75 101.12C1004.62 99.7267 1002.79 98.0767 1001.25 96.17C999.705 94.2633 998.532 92.1367 997.725 89.79L1007.3 85.83C1008.4 88.9833 1010.3 91.5133 1013.02 93.42C1015.73 95.3267 1018.88 96.28 1022.48 96.28C1027.98 96.28 1032.27 94.63 1035.35 91.33C1038.43 88.03 1039.97 83.4833 1039.97 77.69V72.52H1039.53C1037.62 75.38 1035.02 77.6533 1031.72 79.34C1028.49 80.9533 1024.97 81.76 1021.16 81.76C1014.12 81.76 1008.07 79.01 1003.01 73.51C998.019 67.8633 995.525 61.0433 995.525 53.05C995.525 45.0567 998.019 38.2733 1003.01 32.7C1008.07 27.1267 1014.12 24.34 1021.16 24.34C1024.97 24.34 1028.49 25.1833 1031.72 26.87C1035.02 28.4833 1037.62 30.72 1039.53 33.58H1039.97V26.1H1049.65V77.69C1049.65 86.3433 1047.19 93.1267 1042.28 98.04C1037.29 103.027 1030.69 105.52 1022.48 105.52ZM1072.1 80H1061.98V26.1H1071.66V33.58H1072.1C1073.64 30.94 1075.99 28.74 1079.14 26.98C1082.37 25.22 1085.56 24.34 1088.71 24.34C1092.67 24.34 1096.16 25.2567 1099.16 27.09C1102.17 28.9233 1104.37 31.4533 1105.76 34.68C1110.24 27.7867 1116.43 24.34 1124.35 24.34C1130.59 24.34 1135.39 26.2467 1138.76 30.06C1142.14 33.8733 1143.82 39.3 1143.82 46.34V80H1133.7V47.88C1133.7 42.82 1132.79 39.19 1130.95 36.99C1129.12 34.7167 1126.04 33.58 1121.71 33.58C1117.83 33.58 1114.56 35.23 1111.92 38.53C1109.28 41.83 1107.96 45.7167 1107.96 50.19V80H1097.84V47.88C1097.84 42.82 1096.93 39.19 1095.09 36.99C1093.26 34.7167 1090.18 33.58 1085.85 33.58C1081.97 33.58 1078.7 35.23 1076.06 38.53C1073.42 41.83 1072.1 45.7167 1072.1 50.19V80ZM1162.49 63.5C1162.49 66.14 1163.59 68.34 1165.79 70.1C1168.06 71.86 1170.7 72.74 1173.71 72.74C1177.96 72.74 1181.74 71.1633 1185.04 68.01C1188.41 64.8567 1190.1 61.1533 1190.1 56.9C1186.95 54.4067 1182.55 53.16 1176.9 53.16C1172.79 53.16 1169.35 54.15 1166.56 56.13C1163.85 58.11 1162.49 60.5667 1162.49 63.5ZM1175.58 24.34C1183.06 24.34 1188.96 26.3567 1193.29 30.39C1197.62 34.35 1199.78 39.8133 1199.78 46.78V80H1190.1V72.52H1189.66C1185.48 78.68 1179.91 81.76 1172.94 81.76C1167 81.76 1162.01 80 1157.98 76.48C1154.02 72.96 1152.04 68.56 1152.04 63.28C1152.04 57.7067 1154.13 53.27 1158.31 49.97C1162.56 46.67 1168.21 45.02 1175.25 45.02C1181.26 45.02 1186.21 46.12 1190.1 48.32V46.01C1190.1 42.49 1188.71 39.52 1185.92 37.1C1183.13 34.6067 1179.87 33.36 1176.13 33.36C1170.48 33.36 1166.01 35.7433 1162.71 40.51L1153.8 34.9C1158.71 27.86 1165.97 24.34 1175.58 24.34ZM1224.28 7.51C1224.28 9.49 1223.59 11.1767 1222.19 12.57C1220.8 13.9633 1219.11 14.66 1217.13 14.66C1215.15 14.66 1213.47 13.9633 1212.07 12.57C1210.68 11.1767 1209.98 9.49 1209.98 7.51C1209.98 5.52999 1210.68 3.84333 1212.07 2.45C1213.47 1.05666 1215.15 0.359996 1217.13 0.359996C1219.11 0.359996 1220.8 1.05666 1222.19 2.45C1223.59 3.84333 1224.28 5.52999 1224.28 7.51ZM1222.19 26.1V80H1212.07V26.1H1222.19ZM1245.48 1.24V80H1235.36V1.24H1245.48ZM1271.89 73.18C1271.89 75.2333 1271.16 76.9933 1269.69 78.46C1268.3 79.9267 1266.54 80.66 1264.41 80.66C1262.36 80.66 1260.6 79.9267 1259.13 78.46C1257.67 76.9933 1256.93 75.2333 1256.93 73.18C1256.93 71.0533 1257.67 69.2933 1259.13 67.9C1260.6 66.4333 1262.36 65.7 1264.41 65.7C1266.54 65.7 1268.3 66.4333 1269.69 67.9C1271.16 69.2933 1271.89 71.0533 1271.89 73.18ZM1308.02 81.76C1300.03 81.76 1293.39 79.0467 1288.11 73.62C1282.9 68.0467 1280.3 61.19 1280.3 53.05C1280.3 44.7633 1282.9 37.9067 1288.11 32.48C1293.39 27.0533 1300.03 24.34 1308.02 24.34C1313.52 24.34 1318.32 25.7333 1322.43 28.52C1326.54 31.2333 1329.62 35.01 1331.67 39.85L1322.43 43.7C1319.57 36.9533 1314.55 33.58 1307.36 33.58C1302.74 33.58 1298.74 35.45 1295.37 39.19C1292.07 42.93 1290.42 47.55 1290.42 53.05C1290.42 58.55 1292.07 63.17 1295.37 66.91C1298.74 70.65 1302.74 72.52 1307.36 72.52C1314.77 72.52 1319.97 69.1467 1322.98 62.4L1332 66.25C1330.02 71.09 1326.9 74.9033 1322.65 77.69C1318.47 80.4033 1313.59 81.76 1308.02 81.76ZM1337.23 53.05C1337.23 44.7633 1339.84 37.9067 1345.04 32.48C1350.32 27.0533 1356.96 24.34 1364.95 24.34C1372.95 24.34 1379.55 27.0533 1384.75 32.48C1390.03 37.9067 1392.67 44.7633 1392.67 53.05C1392.67 61.41 1390.03 68.2667 1384.75 73.62C1379.55 79.0467 1372.95 81.76 1364.95 81.76C1356.96 81.76 1350.32 79.0467 1345.04 73.62C1339.84 68.1933 1337.23 61.3367 1337.23 53.05ZM1347.35 53.05C1347.35 58.8433 1349.04 63.5367 1352.41 67.13C1355.79 70.7233 1359.97 72.52 1364.95 72.52C1369.94 72.52 1374.12 70.7233 1377.49 67.13C1380.87 63.5367 1382.55 58.8433 1382.55 53.05C1382.55 47.33 1380.87 42.6733 1377.49 39.08C1374.05 35.4133 1369.87 33.58 1364.95 33.58C1360.04 33.58 1355.86 35.4133 1352.41 39.08C1349.04 42.6733 1347.35 47.33 1347.35 53.05ZM1410.91 80H1400.79V26.1H1410.47V33.58H1410.91C1412.45 30.94 1414.8 28.74 1417.95 26.98C1421.18 25.22 1424.37 24.34 1427.52 24.34C1431.48 24.34 1434.97 25.2567 1437.97 27.09C1440.98 28.9233 1443.18 31.4533 1444.57 34.68C1449.05 27.7867 1455.24 24.34 1463.16 24.34C1469.4 24.34 1474.2 26.2467 1477.57 30.06C1480.95 33.8733 1482.63 39.3 1482.63 46.34V80H1472.51V47.88C1472.51 42.82 1471.6 39.19 1469.76 36.99C1467.93 34.7167 1464.85 33.58 1460.52 33.58C1456.64 33.58 1453.37 35.23 1450.73 38.53C1448.09 41.83 1446.77 45.7167 1446.77 50.19V80H1436.65V47.88C1436.65 42.82 1435.74 39.19 1433.9 36.99C1432.07 34.7167 1428.99 33.58 1424.66 33.58C1420.78 33.58 1417.51 35.23 1414.87 38.53C1412.23 41.83 1410.91 45.7167 1410.91 50.19V80Z" fill="#000"/>
<path d="M103 21.3C103 15.635 98.365 11 92.7 11H10.3C4.635 11 0 15.635 0 21.3V83.1C0 88.7651 4.635 93.4001 10.3 93.4001H92.7C98.365 93.4001 103 88.7651 103 83.1V21.3ZM92.7 21.3L51.5 47.05L10.3 21.3H92.7ZM92.7 83.1H10.3V31.6L51.5 57.35L92.7 31.6V83.1Z" fill="#000"/>
</svg>
