<svg xmlns="http://www.w3.org/2000/svg" width="538" height="69" style="width: 240px;"
                 viewBox="0 0 538 69" fill="none">
                <path d="M53.0186 29.312C53.0186 36.512 50.8826 42.248 46.6106 46.52C41.8106 51.608 35.4986 54.152 27.6746 54.152C20.1866 54.152 13.8506 51.56 8.66656 46.376C3.48256 41.192 0.890563 34.808 0.890563 27.224C0.890563 19.64 3.48256 13.256 8.66656 8.072C13.8506 2.888 20.1866 0.295996 27.6746 0.295996C31.4666 0.295996 35.0426 0.967996 38.4026 2.312C41.7626 3.656 44.5226 5.552 46.6826 8L41.9306 12.752C40.3466 10.832 38.2826 9.344 35.7386 8.288C33.2426 7.184 30.5546 6.632 27.6746 6.632C22.0586 6.632 17.3066 8.576 13.4186 12.464C9.57856 16.4 7.65856 21.32 7.65856 27.224C7.65856 33.128 9.57856 38.048 13.4186 41.984C17.3066 45.872 22.0586 47.816 27.6746 47.816C32.8106 47.816 37.0826 46.376 40.4906 43.496C43.8986 40.616 45.8666 36.656 46.3946 31.616H27.6746V25.424H52.6586C52.8986 26.768 53.0186 28.064 53.0186 29.312ZM75.4033 54.152C70.2193 54.152 65.9473 52.376 62.5873 48.824C59.2273 45.272 57.5473 40.784 57.5473 35.36C57.5473 29.984 59.1793 25.52 62.4433 21.968C65.7073 18.368 69.8833 16.568 74.9713 16.568C80.2033 16.568 84.3553 18.272 87.4273 21.68C90.5473 25.04 92.1073 29.768 92.1073 35.864L92.0353 36.584H64.3153C64.4113 40.04 65.5633 42.824 67.7713 44.936C69.9793 47.048 72.6193 48.104 75.6913 48.104C79.9153 48.104 83.2273 45.992 85.6273 41.768L91.5312 44.648C89.9473 47.624 87.7393 49.952 84.9073 51.632C82.1233 53.312 78.9553 54.152 75.4033 54.152ZM64.8193 31.112H85.0513C84.8593 28.664 83.8513 26.648 82.0273 25.064C80.2513 23.432 77.8513 22.616 74.8273 22.616C72.3313 22.616 70.1713 23.384 68.3473 24.92C66.5713 26.456 65.3953 28.52 64.8193 31.112ZM111.078 53.576C108.198 53.576 105.798 52.688 103.878 50.912C102.006 49.136 101.046 46.664 100.998 43.496V23.768H94.8061V17.72H100.998V6.92H107.622V17.72H116.262V23.768H107.622V41.336C107.622 43.688 108.078 45.296 108.99 46.16C109.902 46.976 110.934 47.384 112.086 47.384C112.614 47.384 113.118 47.336 113.598 47.24C114.126 47.096 114.606 46.928 115.038 46.736L117.126 52.64C115.398 53.264 113.382 53.576 111.078 53.576ZM146.16 32.12V53H139.536V1.448H157.104C161.568 1.448 165.36 2.936 168.48 5.912C171.648 8.888 173.232 12.512 173.232 16.784C173.232 21.152 171.648 24.8 168.48 27.728C165.408 30.656 161.616 32.12 157.104 32.12H146.16ZM146.16 7.784V25.784H157.248C159.888 25.784 162.072 24.896 163.8 23.12C165.576 21.344 166.464 19.232 166.464 16.784C166.464 14.384 165.576 12.296 163.8 10.52C162.072 8.696 159.888 7.784 157.248 7.784H146.16ZM210.56 17.72L188.456 68.552H181.616L189.824 50.768L175.28 17.72H182.48L192.992 43.064H193.136L203.36 17.72H210.56ZM228.852 53.576C225.972 53.576 223.572 52.688 221.652 50.912C219.78 49.136 218.82 46.664 218.772 43.496V23.768H212.58V17.72H218.772V6.92H225.396V17.72H234.036V23.768H225.396V41.336C225.396 43.688 225.852 45.296 226.764 46.16C227.676 46.976 228.708 47.384 229.86 47.384C230.388 47.384 230.892 47.336 231.372 47.24C231.9 47.096 232.38 46.928 232.812 46.736L234.9 52.64C233.172 53.264 231.156 53.576 228.852 53.576ZM240.688 1.448H247.312V17.72L247.024 22.616H247.312C248.32 20.888 249.856 19.448 251.92 18.296C254.032 17.144 256.216 16.568 258.472 16.568C262.792 16.568 266.104 17.816 268.408 20.312C270.76 22.76 271.936 26.264 271.936 30.824V53H265.312V32.12C265.312 25.784 262.504 22.616 256.888 22.616C254.2 22.616 251.92 23.744 250.048 26C248.224 28.208 247.312 30.8 247.312 33.776V53H240.688V1.448ZM277.696 35.36C277.696 29.936 279.4 25.448 282.808 21.896C286.264 18.344 290.608 16.568 295.84 16.568C301.072 16.568 305.392 18.344 308.8 21.896C312.256 25.448 313.984 29.936 313.984 35.36C313.984 40.832 312.256 45.32 308.8 48.824C305.392 52.376 301.072 54.152 295.84 54.152C290.608 54.152 286.264 52.376 282.808 48.824C279.4 45.272 277.696 40.784 277.696 35.36ZM284.32 35.36C284.32 39.152 285.424 42.224 287.632 44.576C289.84 46.928 292.576 48.104 295.84 48.104C299.104 48.104 301.84 46.928 304.048 44.576C306.256 42.224 307.36 39.152 307.36 35.36C307.36 31.616 306.256 28.568 304.048 26.216C301.792 23.816 299.056 22.616 295.84 22.616C292.624 22.616 289.888 23.816 287.632 26.216C285.424 28.568 284.32 31.616 284.32 35.36ZM319.298 17.72H325.634V22.616H325.922C326.93 20.888 328.466 19.448 330.53 18.296C332.642 17.144 334.826 16.568 337.082 16.568C341.402 16.568 344.714 17.816 347.018 20.312C349.37 22.76 350.546 26.264 350.546 30.824V53H343.922V31.256C343.778 25.496 340.874 22.616 335.21 22.616C332.57 22.616 330.362 23.696 328.586 25.856C326.81 27.968 325.922 30.512 325.922 33.488V53H319.298V17.72ZM398.151 54.152C390.519 54.152 384.135 51.584 378.999 46.448C373.911 41.312 371.367 34.904 371.367 27.224C371.367 19.544 373.911 13.16 378.999 8.072C384.087 2.888 390.471 0.295996 398.151 0.295996C405.927 0.295996 412.239 3.104 417.087 8.72L412.335 13.328C408.639 8.864 403.911 6.632 398.151 6.632C392.439 6.632 387.663 8.552 383.823 12.392C380.031 16.184 378.135 21.128 378.135 27.224C378.135 33.32 380.031 38.264 383.823 42.056C387.663 45.896 392.439 47.816 398.151 47.816C404.151 47.816 409.359 45.296 413.775 40.256L418.599 44.936C416.151 47.864 413.151 50.144 409.599 51.776C406.047 53.36 402.231 54.152 398.151 54.152ZM421.766 35.36C421.766 29.936 423.47 25.448 426.878 21.896C430.334 18.344 434.678 16.568 439.91 16.568C445.142 16.568 449.462 18.344 452.87 21.896C456.326 25.448 458.054 29.936 458.054 35.36C458.054 40.832 456.326 45.32 452.87 48.824C449.462 52.376 445.142 54.152 439.91 54.152C434.678 54.152 430.334 52.376 426.878 48.824C423.47 45.272 421.766 40.784 421.766 35.36ZM428.39 35.36C428.39 39.152 429.494 42.224 431.702 44.576C433.91 46.928 436.646 48.104 439.91 48.104C443.174 48.104 445.91 46.928 448.118 44.576C450.326 42.224 451.43 39.152 451.43 35.36C451.43 31.616 450.326 28.568 448.118 26.216C445.862 23.816 443.126 22.616 439.91 22.616C436.694 22.616 433.958 23.816 431.702 26.216C429.494 28.568 428.39 31.616 428.39 35.36ZM479.911 48.104C483.175 48.104 485.839 46.928 487.903 44.576C490.063 42.224 491.143 39.152 491.143 35.36C491.143 31.664 490.063 28.616 487.903 26.216C485.791 23.816 483.127 22.616 479.911 22.616C476.743 22.616 474.079 23.816 471.919 26.216C469.759 28.616 468.679 31.664 468.679 35.36C468.679 39.104 469.759 42.152 471.919 44.504C474.079 46.904 476.743 48.104 479.911 48.104ZM478.831 54.152C474.223 54.152 470.263 52.328 466.951 48.68C463.687 44.984 462.055 40.544 462.055 35.36C462.055 30.176 463.687 25.736 466.951 22.04C470.263 18.392 474.223 16.568 478.831 16.568C481.423 16.568 483.775 17.12 485.887 18.224C488.047 19.328 489.703 20.792 490.855 22.616H491.143L490.855 17.72V1.448H497.479V53H491.143V48.104H490.855C489.703 49.928 488.047 51.392 485.887 52.496C483.775 53.6 481.423 54.152 478.831 54.152ZM521.044 54.152C515.86 54.152 511.588 52.376 508.228 48.824C504.868 45.272 503.188 40.784 503.188 35.36C503.188 29.984 504.82 25.52 508.084 21.968C511.348 18.368 515.524 16.568 520.612 16.568C525.844 16.568 529.996 18.272 533.068 21.68C536.188 25.04 537.748 29.768 537.748 35.864L537.676 36.584H509.956C510.052 40.04 511.204 42.824 513.412 44.936C515.62 47.048 518.26 48.104 521.332 48.104C525.556 48.104 528.868 45.992 531.268 41.768L537.172 44.648C535.588 47.624 533.38 49.952 530.548 51.632C527.764 53.312 524.596 54.152 521.044 54.152ZM510.46 31.112H530.692C530.5 28.664 529.492 26.648 527.668 25.064C525.892 23.432 523.492 22.616 520.468 22.616C517.972 22.616 515.812 23.384 513.988 24.92C512.212 26.456 511.036 28.52 510.46 31.112Z" fill="#000"/>
            </svg>