<svg width="590" height="82" viewBox="0 0 590 82" fill="none" xmlns="http://www.w3.org/2000/svg">
<path d="M45.14 80H0.92V1.24H11.04V70.32H45.14V80ZM67.0352 7.51C67.0352 9.49 66.3385 11.1767 64.9452 12.57C63.5518 13.9633 61.8652 14.66 59.8852 14.66C57.9052 14.66 56.2185 13.9633 54.8252 12.57C53.4318 11.1767 52.7352 9.49 52.7352 7.51C52.7352 5.52999 53.4318 3.84333 54.8252 2.45C56.2185 1.05666 57.9052 0.359996 59.8852 0.359996C61.8652 0.359996 63.5518 1.05666 64.9452 2.45C66.3385 3.84333 67.0352 5.52999 67.0352 7.51ZM64.9452 26.1V80H54.8252V26.1H64.9452ZM104.295 80H94.1751L72.3951 26.1H83.3951L99.2351 67.9H99.4551L115.515 26.1H126.295L104.295 80ZM155.489 81.76C147.569 81.76 141.042 79.0467 135.909 73.62C130.776 68.1933 128.209 61.3367 128.209 53.05C128.209 44.8367 130.702 38.0167 135.689 32.59C140.676 27.09 147.056 24.34 154.829 24.34C162.822 24.34 169.166 26.9433 173.859 32.15C178.626 37.2833 181.009 44.5067 181.009 53.82L180.899 54.92H138.549C138.696 60.2 140.456 64.4533 143.829 67.68C147.202 70.9067 151.236 72.52 155.929 72.52C162.382 72.52 167.442 69.2933 171.109 62.84L180.129 67.24C177.709 71.7867 174.336 75.3433 170.009 77.91C165.756 80.4767 160.916 81.76 155.489 81.76ZM139.319 46.56H170.229C169.936 42.82 168.396 39.74 165.609 37.32C162.896 34.8267 159.229 33.58 154.609 33.58C150.796 33.58 147.496 34.7533 144.709 37.1C141.996 39.4467 140.199 42.6 139.319 46.56ZM255.683 65.04C255.683 69.7333 253.63 73.6933 249.523 76.92C245.417 80.1467 240.247 81.76 234.013 81.76C228.587 81.76 223.82 80.3667 219.713 77.58C215.607 74.72 212.673 70.98 210.913 66.36L219.933 62.51C221.253 65.7367 223.16 68.2667 225.653 70.1C228.22 71.86 231.007 72.74 234.013 72.74C237.24 72.74 239.917 72.0433 242.043 70.65C244.243 69.2567 245.343 67.6067 245.343 65.7C245.343 62.2533 242.703 59.7233 237.423 58.11L228.183 55.8C217.697 53.16 212.453 48.1 212.453 40.62C212.453 35.7067 214.433 31.7833 218.393 28.85C222.427 25.8433 227.56 24.34 233.793 24.34C238.56 24.34 242.85 25.4767 246.663 27.75C250.55 30.0233 253.263 33.0667 254.803 36.88L245.783 40.62C244.757 38.3467 243.07 36.5867 240.723 35.34C238.45 34.02 235.883 33.36 233.023 33.36C230.383 33.36 228 34.02 225.873 35.34C223.82 36.66 222.793 38.2733 222.793 40.18C222.793 43.26 225.69 45.46 231.483 46.78L239.623 48.87C250.33 51.51 255.683 56.9 255.683 65.04ZM285.295 80.88C280.895 80.88 277.228 79.5233 274.295 76.81C271.435 74.0967 269.968 70.32 269.895 65.48V35.34H260.435V26.1H269.895V9.6H280.015V26.1H293.215V35.34H280.015V62.18C280.015 65.7733 280.712 68.23 282.105 69.55C283.498 70.7967 285.075 71.42 286.835 71.42C287.642 71.42 288.412 71.3467 289.145 71.2C289.952 70.98 290.685 70.7233 291.345 70.43L294.535 79.45C291.895 80.4033 288.815 80.88 285.295 80.88ZM312.962 80H302.842V26.1H312.522V34.9H312.962C313.988 32.04 316.078 29.62 319.232 27.64C322.458 25.5867 325.612 24.56 328.692 24.56C331.625 24.56 334.118 25 336.172 25.88L333.092 35.67C331.845 35.1567 329.865 34.9 327.152 34.9C323.338 34.9 320.002 36.44 317.142 39.52C314.355 42.6 312.962 46.1933 312.962 50.3V80ZM363.673 81.76C355.753 81.76 349.226 79.0467 344.093 73.62C338.959 68.1933 336.393 61.3367 336.393 53.05C336.393 44.8367 338.886 38.0167 343.873 32.59C348.859 27.09 355.239 24.34 363.013 24.34C371.006 24.34 377.349 26.9433 382.043 32.15C386.809 37.2833 389.193 44.5067 389.193 53.82L389.083 54.92H346.733C346.879 60.2 348.639 64.4533 352.013 67.68C355.386 70.9067 359.419 72.52 364.113 72.52C370.566 72.52 375.626 69.2933 379.293 62.84L388.312 67.24C385.893 71.7867 382.519 75.3433 378.193 77.91C373.939 80.4767 369.099 81.76 363.673 81.76ZM347.503 46.56H378.413C378.119 42.82 376.579 39.74 373.793 37.32C371.079 34.8267 367.413 33.58 362.793 33.58C358.979 33.58 355.679 34.7533 352.893 37.1C350.179 39.4467 348.383 42.6 347.503 46.56ZM406.354 63.5C406.354 66.14 407.454 68.34 409.654 70.1C411.928 71.86 414.568 72.74 417.574 72.74C421.828 72.74 425.604 71.1633 428.904 68.01C432.278 64.8567 433.964 61.1533 433.964 56.9C430.811 54.4067 426.411 53.16 420.764 53.16C416.658 53.16 413.211 54.15 410.424 56.13C407.711 58.11 406.354 60.5667 406.354 63.5ZM419.444 24.34C426.924 24.34 432.828 26.3567 437.154 30.39C441.481 34.35 443.644 39.8133 443.644 46.78V80H433.964V72.52H433.524C429.344 78.68 423.771 81.76 416.804 81.76C410.864 81.76 405.878 80 401.844 76.48C397.884 72.96 395.904 68.56 395.904 63.28C395.904 57.7067 397.994 53.27 402.174 49.97C406.428 46.67 412.074 45.02 419.114 45.02C425.128 45.02 430.078 46.12 433.964 48.32V46.01C433.964 42.49 432.571 39.52 429.784 37.1C426.998 34.6067 423.734 33.36 419.994 33.36C414.348 33.36 409.874 35.7433 406.574 40.51L397.664 34.9C402.578 27.86 409.838 24.34 419.444 24.34ZM465.178 80H455.058V26.1H464.738V33.58H465.178C466.718 30.94 469.065 28.74 472.218 26.98C475.445 25.22 478.635 24.34 481.788 24.34C485.748 24.34 489.232 25.2567 492.238 27.09C495.245 28.9233 497.445 31.4533 498.838 34.68C503.312 27.7867 509.508 24.34 517.428 24.34C523.662 24.34 528.465 26.2467 531.838 30.06C535.212 33.8733 536.898 39.3 536.898 46.34V80H526.778V47.88C526.778 42.82 525.862 39.19 524.028 36.99C522.195 34.7167 519.115 33.58 514.788 33.58C510.902 33.58 507.638 35.23 504.998 38.53C502.358 41.83 501.038 45.7167 501.038 50.19V80H490.918V47.88C490.918 42.82 490.002 39.19 488.168 36.99C486.335 34.7167 483.255 33.58 478.928 33.58C475.042 33.58 471.778 35.23 469.138 38.53C466.498 41.83 465.178 45.7167 465.178 50.19V80ZM589.443 65.04C589.443 69.7333 587.39 73.6933 583.283 76.92C579.177 80.1467 574.007 81.76 567.773 81.76C562.347 81.76 557.58 80.3667 553.473 77.58C549.367 74.72 546.433 70.98 544.673 66.36L553.693 62.51C555.013 65.7367 556.92 68.2667 559.413 70.1C561.98 71.86 564.767 72.74 567.773 72.74C571 72.74 573.677 72.0433 575.803 70.65C578.003 69.2567 579.103 67.6067 579.103 65.7C579.103 62.2533 576.463 59.7233 571.183 58.11L561.943 55.8C551.457 53.16 546.213 48.1 546.213 40.62C546.213 35.7067 548.193 31.7833 552.153 28.85C556.187 25.8433 561.32 24.34 567.553 24.34C572.32 24.34 576.61 25.4767 580.423 27.75C584.31 30.0233 587.023 33.0667 588.563 36.88L579.543 40.62C578.517 38.3467 576.83 36.5867 574.483 35.34C572.21 34.02 569.643 33.36 566.783 33.36C564.143 33.36 561.76 34.02 559.633 35.34C557.58 36.66 556.553 38.2733 556.553 40.18C556.553 43.26 559.45 45.46 565.243 46.78L573.383 48.87C584.09 51.51 589.443 56.9 589.443 65.04Z" fill="#000"/>
</svg>
