<svg width="1861" height="216" viewBox="0 0 1861 216" fill="none" xmlns="http://www.w3.org/2000/svg">
<path d="M41.8367 82.76C30.1767 82.76 20.4233 78.8367 12.5767 70.99C4.80335 63.1433 0.91668 53.3533 0.91668 41.62C0.91668 29.8867 4.80335 20.1333 12.5767 12.36C20.35 4.44 30.1033 0.479994 41.8367 0.479994C53.7167 0.479994 63.36 4.77 70.7667 13.35L63.5067 20.39C57.86 13.57 50.6367 10.16 41.8367 10.16C33.11 10.16 25.8133 13.0933 19.9467 18.96C14.1533 24.7533 11.2567 32.3067 11.2567 41.62C11.2567 50.9333 14.1533 58.4867 19.9467 64.28C25.8133 70.1467 33.11 73.08 41.8367 73.08C51.0033 73.08 58.96 69.23 65.7067 61.53L73.0767 68.68C69.3367 73.1533 64.7533 76.6367 59.3267 79.13C53.9 81.55 48.07 82.76 41.8367 82.76ZM128.832 81H119.152V73.52H118.712C117.172 76.16 114.789 78.36 111.562 80.12C108.409 81.88 105.109 82.76 101.662 82.76C95.0621 82.76 89.9654 80.89 86.3721 77.15C82.8521 73.3367 81.0921 67.9467 81.0921 60.98V27.1H91.2121V60.32C91.4321 69.12 95.8687 73.52 104.522 73.52C108.555 73.52 111.929 71.9067 114.642 68.68C117.355 65.38 118.712 61.4567 118.712 56.91V27.1H128.832V81ZM151.271 81H141.151V27.1H150.831V35.9H151.271C152.298 33.04 154.388 30.62 157.541 28.64C160.768 26.5867 163.921 25.56 167.001 25.56C169.935 25.56 172.428 26 174.481 26.88L171.401 36.67C170.155 36.1567 168.175 35.9 165.461 35.9C161.648 35.9 158.311 37.44 155.451 40.52C152.665 43.6 151.271 47.1933 151.271 51.3V81ZM191.232 81H181.112V27.1H190.792V35.9H191.232C192.259 33.04 194.349 30.62 197.502 28.64C200.729 26.5867 203.882 25.56 206.962 25.56C209.895 25.56 212.389 26 214.442 26.88L211.362 36.67C210.115 36.1567 208.135 35.9 205.422 35.9C201.609 35.9 198.272 37.44 195.412 40.52C192.625 43.6 191.232 47.1933 191.232 51.3V81ZM241.943 82.76C234.023 82.76 227.496 80.0467 222.363 74.62C217.23 69.1933 214.663 62.3367 214.663 54.05C214.663 45.8367 217.156 39.0167 222.143 33.59C227.13 28.09 233.51 25.34 241.283 25.34C249.276 25.34 255.62 27.9433 260.313 33.15C265.08 38.2833 267.463 45.5067 267.463 54.82L267.353 55.92H225.003C225.15 61.2 226.91 65.4533 230.283 68.68C233.656 71.9067 237.69 73.52 242.383 73.52C248.836 73.52 253.896 70.2933 257.563 63.84L266.583 68.24C264.163 72.7867 260.79 76.3433 256.463 78.91C252.21 81.4767 247.37 82.76 241.943 82.76ZM225.773 47.56H256.683C256.39 43.82 254.85 40.74 252.063 38.32C249.35 35.8267 245.683 34.58 241.063 34.58C237.25 34.58 233.95 35.7533 231.163 38.1C228.45 40.4467 226.653 43.6 225.773 47.56ZM276.718 27.1H286.398V34.58H286.838C288.378 31.94 290.724 29.74 293.878 27.98C297.104 26.22 300.441 25.34 303.888 25.34C310.488 25.34 315.548 27.2467 319.068 31.06C322.661 34.8 324.458 40.1533 324.458 47.12V81H314.338V47.78C314.118 38.98 309.681 34.58 301.028 34.58C296.994 34.58 293.621 36.23 290.908 39.53C288.194 42.7567 286.838 46.6433 286.838 51.19V81H276.718V27.1ZM354.884 81.88C350.484 81.88 346.817 80.5233 343.884 77.81C341.024 75.0967 339.557 71.32 339.484 66.48V36.34H330.024V27.1H339.484V10.6H349.604V27.1H362.804V36.34H349.604V63.18C349.604 66.7733 350.3 69.23 351.694 70.55C353.087 71.7967 354.664 72.42 356.424 72.42C357.23 72.42 358 72.3467 358.734 72.2C359.54 71.98 360.274 71.7233 360.934 71.43L364.124 80.45C361.484 81.4033 358.404 81.88 354.884 81.88ZM383.088 2.24V81H372.968V2.24H383.088ZM443.599 27.1L409.829 104.76H399.379L411.919 77.59L389.699 27.1H400.699L416.759 65.82H416.979L432.599 27.1H443.599ZM495.714 81.88C491.314 81.88 487.647 80.5233 484.714 77.81C481.854 75.0967 480.387 71.32 480.314 66.48V36.34H470.854V27.1H480.314V10.6H490.434V27.1H503.634V36.34H490.434V63.18C490.434 66.7733 491.131 69.23 492.524 70.55C493.917 71.7967 495.494 72.42 497.254 72.42C498.061 72.42 498.831 72.3467 499.564 72.2C500.371 71.98 501.104 71.7233 501.764 71.43L504.954 80.45C502.314 81.4033 499.234 81.88 495.714 81.88ZM513.798 2.24H523.918V27.1L523.478 34.58H523.918C525.458 31.94 527.804 29.74 530.958 27.98C534.184 26.22 537.521 25.34 540.968 25.34C547.568 25.34 552.628 27.2467 556.148 31.06C559.741 34.8 561.538 40.1533 561.538 47.12V81H551.418V49.1C551.418 39.42 547.128 34.58 538.548 34.58C534.441 34.58 530.958 36.3033 528.098 39.75C525.311 43.1233 523.918 47.0833 523.918 51.63V81H513.798V2.24ZM597.617 82.76C589.697 82.76 583.17 80.0467 578.037 74.62C572.904 69.1933 570.337 62.3367 570.337 54.05C570.337 45.8367 572.83 39.0167 577.817 33.59C582.804 28.09 589.184 25.34 596.957 25.34C604.95 25.34 611.294 27.9433 615.987 33.15C620.754 38.2833 623.137 45.5067 623.137 54.82L623.027 55.92H580.677C580.824 61.2 582.584 65.4533 585.957 68.68C589.33 71.9067 593.364 73.52 598.057 73.52C604.51 73.52 609.57 70.2933 613.237 63.84L622.257 68.24C619.837 72.7867 616.464 76.3433 612.137 78.91C607.884 81.4767 603.044 82.76 597.617 82.76ZM581.447 47.56H612.357C612.064 43.82 610.524 40.74 607.737 38.32C605.024 35.8267 601.357 34.58 596.737 34.58C592.924 34.58 589.624 35.7533 586.837 38.1C584.124 40.4467 582.327 43.6 581.447 47.56ZM642.511 81H632.391V27.1H642.071V35.9H642.511C643.538 33.04 645.628 30.62 648.781 28.64C652.008 26.5867 655.161 25.56 658.241 25.56C661.175 25.56 663.668 26 665.721 26.88L662.641 36.67C661.395 36.1567 659.415 35.9 656.701 35.9C652.888 35.9 649.551 37.44 646.691 40.52C643.905 43.6 642.511 47.1933 642.511 51.3V81ZM693.222 82.76C685.302 82.76 678.776 80.0467 673.642 74.62C668.509 69.1933 665.942 62.3367 665.942 54.05C665.942 45.8367 668.436 39.0167 673.422 33.59C678.409 28.09 684.789 25.34 692.562 25.34C700.556 25.34 706.899 27.9433 711.592 33.15C716.359 38.2833 718.742 45.5067 718.742 54.82L718.632 55.92H676.282C676.429 61.2 678.189 65.4533 681.562 68.68C684.936 71.9067 688.969 73.52 693.662 73.52C700.116 73.52 705.176 70.2933 708.842 63.84L717.862 68.24C715.442 72.7867 712.069 76.3433 707.742 78.91C703.489 81.4767 698.649 82.76 693.222 82.76ZM677.052 47.56H707.962C707.669 43.82 706.129 40.74 703.342 38.32C700.629 35.8267 696.962 34.58 692.342 34.58C688.529 34.58 685.229 35.7533 682.442 38.1C679.729 40.4467 677.932 43.6 677.052 47.56ZM759.537 64.5C759.537 67.14 760.637 69.34 762.837 71.1C765.11 72.86 767.75 73.74 770.757 73.74C775.01 73.74 778.787 72.1633 782.087 69.01C785.46 65.8567 787.147 62.1533 787.147 57.9C783.994 55.4067 779.594 54.16 773.947 54.16C769.84 54.16 766.394 55.15 763.607 57.13C760.894 59.11 759.537 61.5667 759.537 64.5ZM772.627 25.34C780.107 25.34 786.01 27.3567 790.337 31.39C794.664 35.35 796.827 40.8133 796.827 47.78V81H787.147V73.52H786.707C782.527 79.68 776.954 82.76 769.987 82.76C764.047 82.76 759.06 81 755.027 77.48C751.067 73.96 749.087 69.56 749.087 64.28C749.087 58.7067 751.177 54.27 755.357 50.97C759.61 47.67 765.257 46.02 772.297 46.02C778.31 46.02 783.26 47.12 787.147 49.32V47.01C787.147 43.49 785.754 40.52 782.967 38.1C780.18 35.6067 776.917 34.36 773.177 34.36C767.53 34.36 763.057 36.7433 759.757 41.51L750.847 35.9C755.76 28.86 763.02 25.34 772.627 25.34ZM818.361 81H808.241V27.1H817.921V35.9H818.361C819.388 33.04 821.478 30.62 824.631 28.64C827.858 26.5867 831.011 25.56 834.091 25.56C837.024 25.56 839.518 26 841.571 26.88L838.491 36.67C837.244 36.1567 835.264 35.9 832.551 35.9C828.738 35.9 825.401 37.44 822.541 40.52C819.754 43.6 818.361 47.1933 818.361 51.3V81ZM869.072 82.76C861.152 82.76 854.625 80.0467 849.492 74.62C844.359 69.1933 841.792 62.3367 841.792 54.05C841.792 45.8367 844.285 39.0167 849.272 33.59C854.259 28.09 860.639 25.34 868.412 25.34C876.405 25.34 882.749 27.9433 887.442 33.15C892.209 38.2833 894.592 45.5067 894.592 54.82L894.482 55.92H852.132C852.279 61.2 854.039 65.4533 857.412 68.68C860.785 71.9067 864.819 73.52 869.512 73.52C875.965 73.52 881.025 70.2933 884.692 63.84L893.712 68.24C891.292 72.7867 887.919 76.3433 883.592 78.91C879.339 81.4767 874.499 82.76 869.072 82.76ZM852.902 47.56H883.812C883.519 43.82 881.979 40.74 879.192 38.32C876.479 35.8267 872.812 34.58 868.192 34.58C864.379 34.58 861.079 35.7533 858.292 38.1C855.579 40.4467 853.782 43.6 852.902 47.56ZM928.016 27.1H937.696V34.58H938.136C939.676 31.94 942.023 29.74 945.176 27.98C948.403 26.22 951.74 25.34 955.186 25.34C961.786 25.34 966.846 27.2467 970.366 31.06C973.96 34.8 975.756 40.1533 975.756 47.12V81H965.636V47.78C965.416 38.98 960.98 34.58 952.326 34.58C948.293 34.58 944.92 36.23 942.206 39.53C939.493 42.7567 938.136 46.6433 938.136 51.19V81H928.016V27.1ZM984.556 54.05C984.556 45.7633 987.159 38.9067 992.366 33.48C997.646 28.0533 1004.28 25.34 1012.28 25.34C1020.27 25.34 1026.87 28.0533 1032.08 33.48C1037.36 38.9067 1040 45.7633 1040 54.05C1040 62.41 1037.36 69.2667 1032.08 74.62C1026.87 80.0467 1020.27 82.76 1012.28 82.76C1004.28 82.76 997.646 80.0467 992.366 74.62C987.159 69.1933 984.556 62.3367 984.556 54.05ZM994.676 54.05C994.676 59.8433 996.362 64.5367 999.736 68.13C1003.11 71.7233 1007.29 73.52 1012.28 73.52C1017.26 73.52 1021.44 71.7233 1024.82 68.13C1028.19 64.5367 1029.88 59.8433 1029.88 54.05C1029.88 48.33 1028.19 43.6733 1024.82 40.08C1021.37 36.4133 1017.19 34.58 1012.28 34.58C1007.36 34.58 1003.18 36.4133 999.736 40.08C996.362 43.6733 994.676 48.33 994.676 54.05ZM1083.48 2.24V81H1073.36V2.24H1083.48ZM1108.9 8.51C1108.9 10.49 1108.2 12.1767 1106.81 13.57C1105.42 14.9633 1103.73 15.66 1101.75 15.66C1099.77 15.66 1098.08 14.9633 1096.69 13.57C1095.3 12.1767 1094.6 10.49 1094.6 8.51C1094.6 6.52999 1095.3 4.84333 1096.69 3.45C1098.08 2.05666 1099.77 1.36 1101.75 1.36C1103.73 1.36 1105.42 2.05666 1106.81 3.45C1108.2 4.84333 1108.9 6.52999 1108.9 8.51ZM1106.81 27.1V81H1096.69V27.1H1106.81ZM1146.16 81H1136.04L1114.26 27.1H1125.26L1141.1 68.9H1141.32L1157.38 27.1H1168.16L1146.16 81ZM1197.35 82.76C1189.43 82.76 1182.91 80.0467 1177.77 74.62C1172.64 69.1933 1170.07 62.3367 1170.07 54.05C1170.07 45.8367 1172.57 39.0167 1177.55 33.59C1182.54 28.09 1188.92 25.34 1196.69 25.34C1204.69 25.34 1211.03 27.9433 1215.72 33.15C1220.49 38.2833 1222.87 45.5067 1222.87 54.82L1222.76 55.92H1180.41C1180.56 61.2 1182.32 65.4533 1185.69 68.68C1189.07 71.9067 1193.1 73.52 1197.79 73.52C1204.25 73.52 1209.31 70.2933 1212.97 63.84L1221.99 68.24C1219.57 72.7867 1216.2 76.3433 1211.87 78.91C1207.62 81.4767 1202.78 82.76 1197.35 82.76ZM1181.18 47.56H1212.09C1211.8 43.82 1210.26 40.74 1207.47 38.32C1204.76 35.8267 1201.09 34.58 1196.47 34.58C1192.66 34.58 1189.36 35.7533 1186.57 38.1C1183.86 40.4467 1182.06 43.6 1181.18 47.56ZM1297.55 66.04C1297.55 70.7333 1295.49 74.6933 1291.39 77.92C1287.28 81.1467 1282.11 82.76 1275.88 82.76C1270.45 82.76 1265.68 81.3667 1261.58 78.58C1257.47 75.72 1254.54 71.98 1252.78 67.36L1261.8 63.51C1263.12 66.7367 1265.02 69.2667 1267.52 71.1C1270.08 72.86 1272.87 73.74 1275.88 73.74C1279.1 73.74 1281.78 73.0433 1283.91 71.65C1286.11 70.2567 1287.21 68.6067 1287.21 66.7C1287.21 63.2533 1284.57 60.7233 1279.29 59.11L1270.05 56.8C1259.56 54.16 1254.32 49.1 1254.32 41.62C1254.32 36.7067 1256.3 32.7833 1260.26 29.85C1264.29 26.8433 1269.42 25.34 1275.66 25.34C1280.42 25.34 1284.71 26.4767 1288.53 28.75C1292.41 31.0233 1295.13 34.0667 1296.67 37.88L1287.65 41.62C1286.62 39.3467 1284.93 37.5867 1282.59 36.34C1280.31 35.02 1277.75 34.36 1274.89 34.36C1272.25 34.36 1269.86 35.02 1267.74 36.34C1265.68 37.66 1264.66 39.2733 1264.66 41.18C1264.66 44.26 1267.55 46.46 1273.35 47.78L1281.49 49.87C1292.19 52.51 1297.55 57.9 1297.55 66.04ZM1327.16 81.88C1322.76 81.88 1319.09 80.5233 1316.16 77.81C1313.3 75.0967 1311.83 71.32 1311.76 66.48V36.34H1302.3V27.1H1311.76V10.6H1321.88V27.1H1335.08V36.34H1321.88V63.18C1321.88 66.7733 1322.58 69.23 1323.97 70.55C1325.36 71.7967 1326.94 72.42 1328.7 72.42C1329.51 72.42 1330.28 72.3467 1331.01 72.2C1331.82 71.98 1332.55 71.7233 1333.21 71.43L1336.4 80.45C1333.76 81.4033 1330.68 81.88 1327.16 81.88ZM1354.83 81H1344.71V27.1H1354.39V35.9H1354.83C1355.85 33.04 1357.94 30.62 1361.1 28.64C1364.32 26.5867 1367.48 25.56 1370.56 25.56C1373.49 25.56 1375.98 26 1378.04 26.88L1374.96 36.67C1373.71 36.1567 1371.73 35.9 1369.02 35.9C1365.2 35.9 1361.87 37.44 1359.01 40.52C1356.22 43.6 1354.83 47.1933 1354.83 51.3V81ZM1405.54 82.76C1397.62 82.76 1391.09 80.0467 1385.96 74.62C1380.82 69.1933 1378.26 62.3367 1378.26 54.05C1378.26 45.8367 1380.75 39.0167 1385.74 33.59C1390.72 28.09 1397.1 25.34 1404.88 25.34C1412.87 25.34 1419.21 27.9433 1423.91 33.15C1428.67 38.2833 1431.06 45.5067 1431.06 54.82L1430.95 55.92H1388.6C1388.74 61.2 1390.5 65.4533 1393.88 68.68C1397.25 71.9067 1401.28 73.52 1405.98 73.52C1412.43 73.52 1417.49 70.2933 1421.16 63.84L1430.18 68.24C1427.76 72.7867 1424.38 76.3433 1420.06 78.91C1415.8 81.4767 1410.96 82.76 1405.54 82.76ZM1389.37 47.56H1420.28C1419.98 43.82 1418.44 40.74 1415.66 38.32C1412.94 35.8267 1409.28 34.58 1404.66 34.58C1400.84 34.58 1397.54 35.7533 1394.76 38.1C1392.04 40.4467 1390.25 43.6 1389.37 47.56ZM1448.22 64.5C1448.22 67.14 1449.32 69.34 1451.52 71.1C1453.79 72.86 1456.43 73.74 1459.44 73.74C1463.69 73.74 1467.47 72.1633 1470.77 69.01C1474.14 65.8567 1475.83 62.1533 1475.83 57.9C1472.68 55.4067 1468.28 54.16 1462.63 54.16C1458.52 54.16 1455.08 55.15 1452.29 57.13C1449.58 59.11 1448.22 61.5667 1448.22 64.5ZM1461.31 25.34C1468.79 25.34 1474.69 27.3567 1479.02 31.39C1483.35 35.35 1485.51 40.8133 1485.51 47.78V81H1475.83V73.52H1475.39C1471.21 79.68 1465.64 82.76 1458.67 82.76C1452.73 82.76 1447.74 81 1443.71 77.48C1439.75 73.96 1437.77 69.56 1437.77 64.28C1437.77 58.7067 1439.86 54.27 1444.04 50.97C1448.29 47.67 1453.94 46.02 1460.98 46.02C1466.99 46.02 1471.94 47.12 1475.83 49.32V47.01C1475.83 43.49 1474.44 40.52 1471.65 38.1C1468.86 35.6067 1465.6 34.36 1461.86 34.36C1456.21 34.36 1451.74 36.7433 1448.44 41.51L1439.53 35.9C1444.44 28.86 1451.7 25.34 1461.31 25.34ZM1507.04 81H1496.92V27.1H1506.6V34.58H1507.04C1508.58 31.94 1510.93 29.74 1514.08 27.98C1517.31 26.22 1520.5 25.34 1523.65 25.34C1527.61 25.34 1531.1 26.2567 1534.1 28.09C1537.11 29.9233 1539.31 32.4533 1540.7 35.68C1545.18 28.7867 1551.37 25.34 1559.29 25.34C1565.53 25.34 1570.33 27.2467 1573.7 31.06C1577.08 34.8733 1578.76 40.3 1578.76 47.34V81H1568.64V48.88C1568.64 43.82 1567.73 40.19 1565.89 37.99C1564.06 35.7167 1560.98 34.58 1556.65 34.58C1552.77 34.58 1549.5 36.23 1546.86 39.53C1544.22 42.83 1542.9 46.7167 1542.9 51.19V81H1532.78V48.88C1532.78 43.82 1531.87 40.19 1530.03 37.99C1528.2 35.7167 1525.12 34.58 1520.79 34.58C1516.91 34.58 1513.64 36.23 1511 39.53C1508.36 42.83 1507.04 46.7167 1507.04 51.19V81ZM1631.31 66.04C1631.31 70.7333 1629.25 74.6933 1625.15 77.92C1621.04 81.1467 1615.87 82.76 1609.64 82.76C1604.21 82.76 1599.44 81.3667 1595.34 78.58C1591.23 75.72 1588.3 71.98 1586.54 67.36L1595.56 63.51C1596.88 66.7367 1598.78 69.2667 1601.28 71.1C1603.84 72.86 1606.63 73.74 1609.64 73.74C1612.86 73.74 1615.54 73.0433 1617.67 71.65C1619.87 70.2567 1620.97 68.6067 1620.97 66.7C1620.97 63.2533 1618.33 60.7233 1613.05 59.11L1603.81 56.8C1593.32 54.16 1588.08 49.1 1588.08 41.62C1588.08 36.7067 1590.06 32.7833 1594.02 29.85C1598.05 26.8433 1603.18 25.34 1609.42 25.34C1614.18 25.34 1618.47 26.4767 1622.29 28.75C1626.17 31.0233 1628.89 34.0667 1630.43 37.88L1621.41 41.62C1620.38 39.3467 1618.69 37.5867 1616.35 36.34C1614.07 35.02 1611.51 34.36 1608.65 34.36C1606.01 34.36 1603.62 35.02 1601.5 36.34C1599.44 37.66 1598.42 39.2733 1598.42 41.18C1598.42 44.26 1601.31 46.46 1607.11 47.78L1615.25 49.87C1625.95 52.51 1631.31 57.9 1631.31 66.04ZM1664.29 27.1H1673.97V34.58H1674.41C1675.95 31.94 1678.29 29.74 1681.45 27.98C1684.67 26.22 1688.01 25.34 1691.46 25.34C1698.06 25.34 1703.12 27.2467 1706.64 31.06C1710.23 34.8 1712.03 40.1533 1712.03 47.12V81H1701.91V47.78C1701.69 38.98 1697.25 34.58 1688.6 34.58C1684.56 34.58 1681.19 36.23 1678.48 39.53C1675.76 42.7567 1674.41 46.6433 1674.41 51.19V81H1664.29V27.1ZM1720.83 54.05C1720.83 45.7633 1723.43 38.9067 1728.64 33.48C1733.92 28.0533 1740.55 25.34 1748.55 25.34C1756.54 25.34 1763.14 28.0533 1768.35 33.48C1773.63 38.9067 1776.27 45.7633 1776.27 54.05C1776.27 62.41 1773.63 69.2667 1768.35 74.62C1763.14 80.0467 1756.54 82.76 1748.55 82.76C1740.55 82.76 1733.92 80.0467 1728.64 74.62C1723.43 69.1933 1720.83 62.3367 1720.83 54.05ZM1730.95 54.05C1730.95 59.8433 1732.63 64.5367 1736.01 68.13C1739.38 71.7233 1743.56 73.52 1748.55 73.52C1753.53 73.52 1757.71 71.7233 1761.09 68.13C1764.46 64.5367 1766.15 59.8433 1766.15 54.05C1766.15 48.33 1764.46 43.6733 1761.09 40.08C1757.64 36.4133 1753.46 34.58 1748.55 34.58C1743.63 34.58 1739.45 36.4133 1736.01 40.08C1732.63 43.6733 1730.95 48.33 1730.95 54.05ZM1860.72 27.1L1843.34 81H1833L1819.58 39.64L1806.27 81H1796.04L1778.66 27.1H1789.22L1801.21 67.8H1801.32L1814.63 27.1H1825.08L1838.39 67.8H1838.5L1850.38 27.1H1860.72ZM573.521 215.76C561.861 215.76 552.108 211.837 544.261 203.99C536.488 196.143 532.601 186.353 532.601 174.62C532.601 162.887 536.488 153.133 544.261 145.36C552.035 137.44 561.788 133.48 573.521 133.48C585.401 133.48 595.045 137.77 602.451 146.35L595.191 153.39C589.545 146.57 582.321 143.16 573.521 143.16C564.795 143.16 557.498 146.093 551.631 151.96C545.838 157.753 542.941 165.307 542.941 174.62C542.941 183.933 545.838 191.487 551.631 197.28C557.498 203.147 564.795 206.08 573.521 206.08C582.688 206.08 590.645 202.23 597.391 194.53L604.761 201.68C601.021 206.153 596.438 209.637 591.011 212.13C585.585 214.55 579.755 215.76 573.521 215.76ZM613.754 135.24H623.874V160.1L623.434 167.58H623.874C625.414 164.94 627.76 162.74 630.914 160.98C634.14 159.22 637.477 158.34 640.924 158.34C647.524 158.34 652.584 160.247 656.104 164.06C659.697 167.8 661.494 173.153 661.494 180.12V214H651.374V182.1C651.374 172.42 647.084 167.58 638.504 167.58C634.397 167.58 630.914 169.303 628.054 172.75C625.267 176.123 623.874 180.083 623.874 184.63V214H613.754V135.24ZM697.573 215.76C689.653 215.76 683.126 213.047 677.993 207.62C672.86 202.193 670.293 195.337 670.293 187.05C670.293 178.837 672.786 172.017 677.773 166.59C682.76 161.09 689.14 158.34 696.913 158.34C704.906 158.34 711.25 160.943 715.943 166.15C720.71 171.283 723.093 178.507 723.093 187.82L722.983 188.92H680.633C680.78 194.2 682.54 198.453 685.913 201.68C689.286 204.907 693.32 206.52 698.013 206.52C704.466 206.52 709.526 203.293 713.193 196.84L722.213 201.24C719.793 205.787 716.42 209.343 712.093 211.91C707.84 214.477 703 215.76 697.573 215.76ZM681.403 180.56H712.313C712.02 176.82 710.48 173.74 707.693 171.32C704.98 168.827 701.313 167.58 696.693 167.58C692.88 167.58 689.58 168.753 686.793 171.1C684.08 173.447 682.283 176.6 681.403 180.56ZM757.525 215.76C749.531 215.76 742.895 213.047 737.615 207.62C732.408 202.047 729.805 195.19 729.805 187.05C729.805 178.763 732.408 171.907 737.615 166.48C742.895 161.053 749.531 158.34 757.525 158.34C763.025 158.34 767.828 159.733 771.935 162.52C776.041 165.233 779.121 169.01 781.175 173.85L771.935 177.7C769.075 170.953 764.051 167.58 756.865 167.58C752.245 167.58 748.248 169.45 744.875 173.19C741.575 176.93 739.925 181.55 739.925 187.05C739.925 192.55 741.575 197.17 744.875 200.91C748.248 204.65 752.245 206.52 756.865 206.52C764.271 206.52 769.478 203.147 772.485 196.4L781.505 200.25C779.525 205.09 776.408 208.903 772.155 211.69C767.975 214.403 763.098 215.76 757.525 215.76ZM837.765 214H825.555L808.725 188.59L800.475 196.73V214H790.355V135.24H800.475V183.75L823.795 160.1H836.775V160.54L815.765 181.44L837.765 213.56V214ZM896.189 215.76C892.229 215.76 888.599 214.917 885.299 213.23C882.072 211.543 879.579 209.307 877.819 206.52H877.379V214H867.699V135.24H877.819V160.1L877.379 167.58H877.819C879.579 164.793 882.072 162.557 885.299 160.87C888.599 159.183 892.229 158.34 896.189 158.34C903.302 158.34 909.316 161.127 914.229 166.7C919.289 172.347 921.819 179.13 921.819 187.05C921.819 195.043 919.289 201.827 914.229 207.4C909.316 212.973 903.302 215.76 896.189 215.76ZM894.539 206.52C899.379 206.52 903.449 204.687 906.749 201.02C910.049 197.427 911.699 192.77 911.699 187.05C911.699 181.403 910.049 176.747 906.749 173.08C903.449 169.413 899.379 167.58 894.539 167.58C889.626 167.58 885.519 169.413 882.219 173.08C878.992 176.747 877.379 181.403 877.379 187.05C877.379 192.77 878.992 197.463 882.219 201.13C885.519 204.723 889.626 206.52 894.539 206.52ZM938.448 197.5C938.448 200.14 939.548 202.34 941.748 204.1C944.021 205.86 946.661 206.74 949.668 206.74C953.921 206.74 957.698 205.163 960.998 202.01C964.371 198.857 966.058 195.153 966.058 190.9C962.905 188.407 958.505 187.16 952.858 187.16C948.751 187.16 945.305 188.15 942.518 190.13C939.805 192.11 938.448 194.567 938.448 197.5ZM951.538 158.34C959.018 158.34 964.921 160.357 969.248 164.39C973.575 168.35 975.738 173.813 975.738 180.78V214H966.058V206.52H965.618C961.438 212.68 955.865 215.76 948.898 215.76C942.958 215.76 937.971 214 933.938 210.48C929.978 206.96 927.998 202.56 927.998 197.28C927.998 191.707 930.088 187.27 934.268 183.97C938.521 180.67 944.168 179.02 951.208 179.02C957.221 179.02 962.171 180.12 966.058 182.32V180.01C966.058 176.49 964.665 173.52 961.878 171.1C959.091 168.607 955.828 167.36 952.088 167.36C946.441 167.36 941.968 169.743 938.668 174.51L929.758 168.9C934.671 161.86 941.931 158.34 951.538 158.34ZM1011.26 215.76C1003.26 215.76 996.625 213.047 991.345 207.62C986.138 202.047 983.535 195.19 983.535 187.05C983.535 178.763 986.138 171.907 991.345 166.48C996.625 161.053 1003.26 158.34 1011.26 158.34C1016.76 158.34 1021.56 159.733 1025.67 162.52C1029.77 165.233 1032.85 169.01 1034.91 173.85L1025.67 177.7C1022.81 170.953 1017.78 167.58 1010.6 167.58C1005.98 167.58 1001.98 169.45 998.605 173.19C995.305 176.93 993.655 181.55 993.655 187.05C993.655 192.55 995.305 197.17 998.605 200.91C1001.98 204.65 1005.98 206.52 1010.6 206.52C1018 206.52 1023.21 203.147 1026.22 196.4L1035.24 200.25C1033.26 205.09 1030.14 208.903 1025.89 211.69C1021.71 214.403 1016.83 215.76 1011.26 215.76ZM1091.5 214H1079.29L1062.46 188.59L1054.21 196.73V214H1044.09V135.24H1054.21V183.75L1077.53 160.1H1090.51V160.54L1069.5 181.44L1091.5 213.56V214ZM1131.55 135.24V214H1121.43V135.24H1131.55ZM1150.71 197.5C1150.71 200.14 1151.81 202.34 1154.01 204.1C1156.29 205.86 1158.93 206.74 1161.93 206.74C1166.19 206.74 1169.96 205.163 1173.26 202.01C1176.64 198.857 1178.32 195.153 1178.32 190.9C1175.17 188.407 1170.77 187.16 1165.12 187.16C1161.02 187.16 1157.57 188.15 1154.78 190.13C1152.07 192.11 1150.71 194.567 1150.71 197.5ZM1163.8 158.34C1171.28 158.34 1177.19 160.357 1181.51 164.39C1185.84 168.35 1188 173.813 1188 180.78V214H1178.32V206.52H1177.88C1173.7 212.68 1168.13 215.76 1161.16 215.76C1155.22 215.76 1150.24 214 1146.2 210.48C1142.24 206.96 1140.26 202.56 1140.26 197.28C1140.26 191.707 1142.35 187.27 1146.53 183.97C1150.79 180.67 1156.43 179.02 1163.47 179.02C1169.49 179.02 1174.44 180.12 1178.32 182.32V180.01C1178.32 176.49 1176.93 173.52 1174.14 171.1C1171.36 168.607 1168.09 167.36 1164.35 167.36C1158.71 167.36 1154.23 169.743 1150.93 174.51L1142.02 168.9C1146.94 161.86 1154.2 158.34 1163.8 158.34ZM1219.68 214.88C1215.28 214.88 1211.62 213.523 1208.68 210.81C1205.82 208.097 1204.36 204.32 1204.28 199.48V169.34H1194.82V160.1H1204.28V143.6H1214.4V160.1H1227.6V169.34H1214.4V196.18C1214.4 199.773 1215.1 202.23 1216.49 203.55C1217.89 204.797 1219.46 205.42 1221.22 205.42C1222.03 205.42 1222.8 205.347 1223.53 205.2C1224.34 204.98 1225.07 204.723 1225.73 204.43L1228.92 213.45C1226.28 214.403 1223.2 214.88 1219.68 214.88ZM1260.89 215.76C1252.97 215.76 1246.45 213.047 1241.31 207.62C1236.18 202.193 1233.61 195.337 1233.61 187.05C1233.61 178.837 1236.11 172.017 1241.09 166.59C1246.08 161.09 1252.46 158.34 1260.23 158.34C1268.23 158.34 1274.57 160.943 1279.26 166.15C1284.03 171.283 1286.41 178.507 1286.41 187.82L1286.3 188.92H1243.95C1244.1 194.2 1245.86 198.453 1249.23 201.68C1252.61 204.907 1256.64 206.52 1261.33 206.52C1267.79 206.52 1272.85 203.293 1276.51 196.84L1285.53 201.24C1283.11 205.787 1279.74 209.343 1275.41 211.91C1271.16 214.477 1266.32 215.76 1260.89 215.76ZM1244.72 180.56H1275.63C1275.34 176.82 1273.8 173.74 1271.01 171.32C1268.3 168.827 1264.63 167.58 1260.01 167.58C1256.2 167.58 1252.9 168.753 1250.11 171.1C1247.4 173.447 1245.6 176.6 1244.72 180.56ZM1305.79 214H1295.67V160.1H1305.35V168.9H1305.79C1306.81 166.04 1308.9 163.62 1312.06 161.64C1315.28 159.587 1318.44 158.56 1321.52 158.56C1324.45 158.56 1326.94 159 1329 159.88L1325.92 169.67C1324.67 169.157 1322.69 168.9 1319.98 168.9C1316.16 168.9 1312.83 170.44 1309.97 173.52C1307.18 176.6 1305.79 180.193 1305.79 184.3V214Z" fill="#989898"/>
</svg>
