<svg width="1195" height="170" viewBox="0 0 1195 170" fill="none" xmlns="http://www.w3.org/2000/svg">
<path d="M260.16 36.24H270.28V61.1L269.84 68.58H270.28C271.82 65.94 274.167 63.74 277.32 61.98C280.547 60.22 283.883 59.34 287.33 59.34C293.93 59.34 298.99 61.2467 302.51 65.06C306.103 68.8 307.9 74.1533 307.9 81.12V115H297.78V83.1C297.78 73.42 293.49 68.58 284.91 68.58C280.803 68.58 277.32 70.3033 274.46 73.75C271.673 77.1233 270.28 81.0833 270.28 85.63V115H260.16V36.24ZM373.526 115.88C369.126 115.88 365.46 114.523 362.526 111.81C359.666 109.097 358.2 105.32 358.126 100.48V70.34H333.046V97.51C333.046 100.663 333.67 102.937 334.916 104.33C336.236 105.723 337.776 106.42 339.536 106.42C341.223 106.42 342.836 106.09 344.376 105.43L347.566 114.45C344.926 115.403 341.846 115.88 338.326 115.88C333.926 115.88 330.26 114.523 327.326 111.81C324.466 109.097 323 105.32 322.926 100.48V70.34H313.466V61.1H322.926V44.6H333.046V61.1H358.126V44.6H368.246V61.1H381.446V70.34H368.246V97.18C368.246 100.773 368.943 103.23 370.336 104.55C371.73 105.797 373.306 106.42 375.066 106.42C375.873 106.42 376.643 106.347 377.376 106.2C378.183 105.98 378.916 105.723 379.576 105.43L382.766 114.45C380.126 115.403 377.046 115.88 373.526 115.88ZM418.044 107.52C422.884 107.52 426.954 105.687 430.254 102.02C433.554 98.4267 435.204 93.77 435.204 88.05C435.204 82.4033 433.554 77.7467 430.254 74.08C426.954 70.4133 422.884 68.58 418.044 68.58C413.131 68.58 409.024 70.4133 405.724 74.08C402.498 77.7467 400.884 82.4033 400.884 88.05C400.884 93.77 402.498 98.4633 405.724 102.13C409.024 105.723 413.131 107.52 418.044 107.52ZM419.694 116.76C415.734 116.76 412.104 115.917 408.804 114.23C405.578 112.543 403.084 110.307 401.324 107.52H400.884L401.324 115V138.76H391.204V61.1H400.884V68.58H401.324C403.084 65.7933 405.578 63.5567 408.804 61.87C412.104 60.1833 415.734 59.34 419.694 59.34C426.808 59.34 432.821 62.1267 437.734 67.7C442.794 73.3467 445.324 80.13 445.324 88.05C445.324 96.0433 442.794 102.827 437.734 108.4C432.821 113.973 426.808 116.76 419.694 116.76ZM495.306 100.04C495.306 104.733 493.253 108.693 489.146 111.92C485.04 115.147 479.87 116.76 473.636 116.76C468.21 116.76 463.443 115.367 459.336 112.58C455.23 109.72 452.296 105.98 450.536 101.36L459.556 97.51C460.876 100.737 462.783 103.267 465.276 105.1C467.843 106.86 470.63 107.74 473.636 107.74C476.863 107.74 479.54 107.043 481.666 105.65C483.866 104.257 484.966 102.607 484.966 100.7C484.966 97.2533 482.326 94.7233 477.046 93.11L467.806 90.8C457.32 88.16 452.076 83.1 452.076 75.62C452.076 70.7067 454.056 66.7833 458.016 63.85C462.05 60.8433 467.183 59.34 473.416 59.34C478.183 59.34 482.473 60.4767 486.286 62.75C490.173 65.0233 492.886 68.0667 494.426 71.88L485.406 75.62C484.38 73.3467 482.693 71.5867 480.346 70.34C478.073 69.02 475.506 68.36 472.646 68.36C470.006 68.36 467.623 69.02 465.496 70.34C463.443 71.66 462.416 73.2733 462.416 75.18C462.416 78.26 465.313 80.46 471.106 81.78L479.246 83.87C489.953 86.51 495.306 91.9 495.306 100.04ZM518.195 67.92C518.195 69.9733 517.462 71.7333 515.995 73.2C514.602 74.6667 512.842 75.4 510.715 75.4C508.662 75.4 506.902 74.6667 505.435 73.2C503.968 71.7333 503.235 69.9733 503.235 67.92C503.235 65.7933 503.968 64.0333 505.435 62.64C506.902 61.1733 508.662 60.44 510.715 60.44C512.842 60.44 514.602 61.1733 515.995 62.64C517.462 64.0333 518.195 65.7933 518.195 67.92ZM518.195 108.18C518.195 110.233 517.462 111.993 515.995 113.46C514.602 114.927 512.842 115.66 510.715 115.66C508.662 115.66 506.902 114.927 505.435 113.46C503.968 111.993 503.235 110.233 503.235 108.18C503.235 106.053 503.968 104.293 505.435 102.9C506.902 101.433 508.662 100.7 510.715 100.7C512.842 100.7 514.602 101.433 515.995 102.9C517.462 104.293 518.195 106.053 518.195 108.18ZM568.621 36.24L535.951 115H526.491L559.161 36.24H568.621ZM595.692 36.24L563.022 115H553.562L586.232 36.24H595.692ZM626.109 115.88C621.709 115.88 618.043 114.523 615.109 111.81C612.249 109.097 610.783 105.32 610.709 100.48V70.34H601.249V61.1H610.709V44.6H620.829V61.1H634.029V70.34H620.829V97.18C620.829 100.773 621.526 103.23 622.919 104.55C624.313 105.797 625.889 106.42 627.649 106.42C628.456 106.42 629.226 106.347 629.959 106.2C630.766 105.98 631.499 105.723 632.159 105.43L635.349 114.45C632.709 115.403 629.629 115.88 626.109 115.88ZM657.736 108.18C657.736 110.233 657.003 111.993 655.536 113.46C654.143 114.927 652.383 115.66 650.256 115.66C648.203 115.66 646.443 114.927 644.976 113.46C643.509 111.993 642.776 110.233 642.776 108.18C642.776 106.053 643.509 104.293 644.976 102.9C646.443 101.433 648.203 100.7 650.256 100.7C652.383 100.7 654.143 101.433 655.536 102.9C657.003 104.293 657.736 106.053 657.736 108.18ZM679.343 115H669.223V61.1H678.903V68.58H679.343C680.883 65.94 683.229 63.74 686.383 61.98C689.609 60.22 692.799 59.34 695.953 59.34C699.913 59.34 703.396 60.2567 706.403 62.09C709.409 63.9233 711.609 66.4533 713.003 69.68C717.476 62.7867 723.673 59.34 731.593 59.34C737.826 59.34 742.629 61.2467 746.003 65.06C749.376 68.8733 751.063 74.3 751.063 81.34V115H740.943V82.88C740.943 77.82 740.026 74.19 738.193 71.99C736.359 69.7167 733.279 68.58 728.953 68.58C725.066 68.58 721.803 70.23 719.163 73.53C716.523 76.83 715.203 80.7167 715.203 85.19V115H705.083V82.88C705.083 77.82 704.166 74.19 702.333 71.99C700.499 69.7167 697.419 68.58 693.093 68.58C689.206 68.58 685.943 70.23 683.303 73.53C680.663 76.83 679.343 80.7167 679.343 85.19V115ZM787.094 116.76C779.174 116.76 772.648 114.047 767.514 108.62C762.381 103.193 759.814 96.3367 759.814 88.05C759.814 79.8367 762.308 73.0167 767.294 67.59C772.281 62.09 778.661 59.34 786.434 59.34C794.428 59.34 800.771 61.9433 805.464 67.15C810.231 72.2833 812.614 79.5067 812.614 88.82L812.504 89.92H770.154C770.301 95.2 772.061 99.4533 775.434 102.68C778.808 105.907 782.841 107.52 787.534 107.52C793.988 107.52 799.048 104.293 802.714 97.84L811.734 102.24C809.314 106.787 805.941 110.343 801.614 112.91C797.361 115.477 792.521 116.76 787.094 116.76ZM770.924 81.56H801.834C801.541 77.82 800.001 74.74 797.214 72.32C794.501 69.8267 790.834 68.58 786.214 68.58C782.401 68.58 779.101 69.7533 776.314 72.1C773.601 74.4467 771.804 77.6 770.924 81.56ZM860.809 36.24L828.139 115H818.679L851.349 36.24H860.809ZM892.512 48.67L879.642 84.2H905.822L892.952 48.67H892.512ZM868.532 115H857.312L887.012 36.24H898.452L928.152 115H916.932L909.342 93.66H876.232L868.532 115ZM983.039 115H970.829L953.999 89.59L945.749 97.73V115H935.629V36.24H945.749V84.75L969.069 61.1H982.049V61.54L961.039 82.44L983.039 114.56V115ZM1032.91 99.16V115H1022.79V99.16H987.043V91.46L1021.91 39.76H1032.91V89.7H1042.59V99.16H1032.91ZM998.483 89.7H1022.79V54.61H1022.35L998.483 89.7ZM1131.13 78.81C1131.13 89.81 1127.86 98.5733 1121.34 105.1C1114 112.873 1104.36 116.76 1092.41 116.76C1080.97 116.76 1071.29 112.8 1063.37 104.88C1055.45 96.96 1051.49 87.2067 1051.49 75.62C1051.49 64.0333 1055.45 54.28 1063.37 46.36C1071.29 38.44 1080.97 34.48 1092.41 34.48C1098.2 34.48 1103.66 35.5067 1108.8 37.56C1113.93 39.6133 1118.15 42.51 1121.45 46.25L1114.19 53.51C1111.77 50.5767 1108.61 48.3033 1104.73 46.69C1100.91 45.0033 1096.81 44.16 1092.41 44.16C1083.83 44.16 1076.57 47.13 1070.63 53.07C1064.76 59.0833 1061.83 66.6 1061.83 75.62C1061.83 84.64 1064.76 92.1567 1070.63 98.17C1076.57 104.11 1083.83 107.08 1092.41 107.08C1100.25 107.08 1106.78 104.88 1111.99 100.48C1117.19 96.08 1120.2 90.03 1121.01 82.33H1092.41V72.87H1130.58C1130.94 74.9233 1131.13 76.9033 1131.13 78.81ZM1166.99 107.52C1171.83 107.52 1175.9 105.687 1179.2 102.02C1182.5 98.4267 1184.15 93.77 1184.15 88.05C1184.15 82.4033 1182.5 77.7467 1179.2 74.08C1175.9 70.4133 1171.83 68.58 1166.99 68.58C1162.08 68.58 1157.97 70.4133 1154.67 74.08C1151.44 77.7467 1149.83 82.4033 1149.83 88.05C1149.83 93.77 1151.44 98.4633 1154.67 102.13C1157.97 105.723 1162.08 107.52 1166.99 107.52ZM1168.64 116.76C1164.68 116.76 1161.05 115.917 1157.75 114.23C1154.52 112.543 1152.03 110.307 1150.27 107.52H1149.83L1150.27 115V138.76H1140.15V61.1H1149.83V68.58H1150.27C1152.03 65.7933 1154.52 63.5567 1157.75 61.87C1161.05 60.1833 1164.68 59.34 1168.64 59.34C1175.75 59.34 1181.77 62.1267 1186.68 67.7C1191.74 73.3467 1194.27 80.13 1194.27 88.05C1194.27 96.0433 1191.74 102.827 1186.68 108.4C1181.77 113.973 1175.75 116.76 1168.64 116.76Z" fill="white"/>
<a href="https://t.me/Ak4Gp">
<rect fill="black" fill-opacity="0" y="-0.214996" width="943.35" height="133.43"/>
</a>
<path d="M85 170C131.944 170 170 131.944 170 85C170 38.0558 131.944 0 85 0C38.0558 0 0 38.0558 0 85C0 131.944 38.0558 170 85 170Z" fill="url(#paint0_linear)"/>
<path d="M69.4167 123.958C66.6627 123.958 67.1309 122.918 66.181 120.296L58.0833 93.6466L120.417 56.6667" fill="#C8DAEA"/>
<path d="M69.4167 123.958C71.5417 123.958 72.4802 122.986 73.6667 121.833L85 110.813L70.8631 102.288" fill="#A9C9DD"/>
<path d="M70.8617 102.29L105.117 127.598C109.026 129.755 111.847 128.638 112.821 123.97L126.764 58.2626C128.191 52.5392 124.582 49.9425 120.842 51.6403L38.9661 83.2115C33.3774 85.4534 33.4107 88.5714 37.9475 89.9605L58.9588 96.5189L107.602 65.8304C109.899 64.4378 112.007 65.1858 110.277 66.7215" fill="url(#paint1_linear)"/>
<defs>
<linearGradient id="paint0_linear" x1="113.39" y1="28.39" x2="70.89" y2="127.5" gradientUnits="userSpaceOnUse">
<stop stop-color="#37AEE2"/>
<stop offset="1" stop-color="#1E96C8"/>
</linearGradient>
<linearGradient id="paint1_linear" x1="95.6561" y1="85.0068" x2="108.921" y2="115.231" gradientUnits="userSpaceOnUse">
<stop stop-color="#EFF7FC"/>
<stop offset="1" stop-color="white"/>
</linearGradient>
</defs>
</svg>
