<svg width="10" height="10" viewBox="0 0 10 10" fill="none" xmlns="http://www.w3.org/2000/svg">
<path d="M9.53888 7.04741L9.53302 1.15288C9.53302 0.818897 9.31622 0.584522 8.96466 0.584522H3.07013C2.742 0.584522 2.51934 0.836475 2.51934 1.11773C2.51934 1.39898 2.7713 1.63921 3.04669 1.63921H5.08575L7.94513 1.54546L6.85528 2.50054L1.04864 8.3189C0.943172 8.42437 0.884579 8.55913 0.884579 8.68804C0.884579 8.96929 1.13653 9.23296 1.4295 9.23296C1.56427 9.23296 1.69317 9.18608 1.79864 9.07476L7.617 3.26226L8.5838 2.16655L8.47833 4.90288V7.07085C8.47833 7.34624 8.71856 7.60405 9.00567 7.60405C9.28692 7.60405 9.53888 7.36382 9.53888 7.04741Z" fill="black"/>
</svg>
