<svg width="118" height="188" viewBox="0 0 118 188" fill="none" xmlns="http://www.w3.org/2000/svg">
<path d="M14.88 187.92C10.64 187.92 7.09402 186.493 4.24002 183.64C1.41402 180.787 0 177.227 0 172.96C0 168.693 1.41402 165.147 4.24002 162.32C7.06702 159.44 10.614 158 14.88 158C19.2 158 22.707 159.56 25.4 162.68L22.76 165.24C20.707 162.76 18.08 161.52 14.88 161.52C11.707 161.52 9.05401 162.587 6.92001 164.72C4.81401 166.827 3.76001 169.573 3.76001 172.96C3.76001 176.347 4.81401 179.093 6.92001 181.2C9.05401 183.333 11.707 184.4 14.88 184.4C18.214 184.4 21.107 183 23.56 180.2L26.24 182.8C24.88 184.427 23.214 185.693 21.24 186.6C19.267 187.48 17.147 187.92 14.88 187.92ZM28 177.48C28 174.467 28.946 171.973 30.84 170C32.76 168.027 35.173 167.04 38.08 167.04C40.986 167.04 43.386 168.027 45.28 170C47.2 171.973 48.16 174.467 48.16 177.48C48.16 180.52 47.2 183.013 45.28 184.96C43.386 186.933 40.986 187.92 38.08 187.92C35.173 187.92 32.76 186.933 30.84 184.96C28.946 182.987 28 180.493 28 177.48ZM31.68 177.48C31.68 179.587 32.293 181.293 33.52 182.6C34.746 183.907 36.266 184.56 38.08 184.56C39.893 184.56 41.413 183.907 42.64 182.6C43.866 181.293 44.48 179.587 44.48 177.48C44.48 175.4 43.866 173.707 42.64 172.4C41.386 171.067 39.866 170.4 38.08 170.4C36.293 170.4 34.773 171.067 33.52 172.4C32.293 173.707 31.68 175.4 31.68 177.48ZM60.303 184.56C62.116 184.56 63.596 183.907 64.743 182.6C65.943 181.293 66.543 179.587 66.543 177.48C66.543 175.427 65.943 173.733 64.743 172.4C63.569 171.067 62.089 170.4 60.303 170.4C58.543 170.4 57.063 171.067 55.863 172.4C54.663 173.733 54.063 175.427 54.063 177.48C54.063 179.56 54.663 181.253 55.863 182.56C57.063 183.893 58.543 184.56 60.303 184.56ZM59.703 187.92C57.143 187.92 54.943 186.907 53.103 184.88C51.289 182.827 50.383 180.36 50.383 177.48C50.383 174.6 51.289 172.133 53.103 170.08C54.943 168.053 57.143 167.04 59.703 167.04C61.143 167.04 62.449 167.347 63.623 167.96C64.823 168.573 65.743 169.387 66.383 170.4H66.543L66.383 167.68V158.64H70.063V187.28H66.543V184.56H66.383C65.743 185.573 64.823 186.387 63.623 187C62.449 187.613 61.143 187.92 59.703 187.92ZM83.154 187.92C80.274 187.92 77.901 186.933 76.034 184.96C74.167 182.987 73.234 180.493 73.234 177.48C73.234 174.493 74.141 172.013 75.954 170.04C77.767 168.04 80.087 167.04 82.914 167.04C85.821 167.04 88.127 167.987 89.834 169.88C91.567 171.747 92.434 174.373 92.434 177.76L92.394 178.16H76.994C77.047 180.08 77.687 181.627 78.914 182.8C80.141 183.973 81.607 184.56 83.314 184.56C85.661 184.56 87.501 183.387 88.834 181.04L92.114 182.64C91.234 184.293 90.007 185.587 88.434 186.52C86.887 187.453 85.127 187.92 83.154 187.92ZM77.274 175.12H88.514C88.407 173.76 87.847 172.64 86.834 171.76C85.847 170.853 84.514 170.4 82.834 170.4C81.447 170.4 80.247 170.827 79.234 171.68C78.247 172.533 77.594 173.68 77.274 175.12Z" fill="black" fill-opacity="0.6"/>
<path d="M3.67999 129.04V140.64H0V112H9.75999C12.24 112 14.347 112.827 16.08 114.48C17.84 116.133 18.72 118.147 18.72 120.52C18.72 122.947 17.84 124.973 16.08 126.6C14.373 128.227 12.267 129.04 9.75999 129.04H3.67999ZM3.67999 115.52V125.52H9.84C11.307 125.52 12.52 125.027 13.48 124.04C14.467 123.053 14.96 121.88 14.96 120.52C14.96 119.187 14.467 118.027 13.48 117.04C12.52 116.027 11.307 115.52 9.84 115.52H3.67999ZM39.458 121.04L27.178 149.28H23.378L27.938 139.4L19.858 121.04H23.858L29.698 135.12H29.778L35.458 121.04H39.458ZM49.62 140.96C48.02 140.96 46.687 140.467 45.62 139.48C44.58 138.493 44.047 137.12 44.02 135.36V124.4H40.58V121.04H44.02V115.04H47.7V121.04H52.5V124.4H47.7V134.16C47.7 135.467 47.953 136.36 48.46 136.84C48.967 137.293 49.54 137.52 50.18 137.52C50.473 137.52 50.753 137.493 51.02 137.44C51.313 137.36 51.58 137.267 51.82 137.16L52.98 140.44C52.02 140.787 50.9 140.96 49.62 140.96ZM56.196 112H59.876V121.04L59.716 123.76H59.876C60.436 122.8 61.289 122 62.436 121.36C63.609 120.72 64.823 120.4 66.076 120.4C68.476 120.4 70.316 121.093 71.596 122.48C72.903 123.84 73.556 125.787 73.556 128.32V140.64H69.876V129.04C69.876 125.52 68.316 123.76 65.196 123.76C63.703 123.76 62.436 124.387 61.396 125.64C60.383 126.867 59.876 128.307 59.876 129.96V140.64H56.196V112ZM76.756 130.84C76.756 127.827 77.702 125.333 79.596 123.36C81.516 121.387 83.929 120.4 86.836 120.4C89.742 120.4 92.142 121.387 94.036 123.36C95.956 125.333 96.916 127.827 96.916 130.84C96.916 133.88 95.956 136.373 94.036 138.32C92.142 140.293 89.742 141.28 86.836 141.28C83.929 141.28 81.516 140.293 79.596 138.32C77.702 136.347 76.756 133.853 76.756 130.84ZM80.436 130.84C80.436 132.947 81.049 134.653 82.276 135.96C83.502 137.267 85.022 137.92 86.836 137.92C88.649 137.92 90.169 137.267 91.396 135.96C92.622 134.653 93.236 132.947 93.236 130.84C93.236 128.76 92.622 127.067 91.396 125.76C90.142 124.427 88.622 123.76 86.836 123.76C85.049 123.76 83.529 124.427 82.276 125.76C81.049 127.067 80.436 128.76 80.436 130.84ZM99.868 121.04H103.388V123.76H103.548C104.108 122.8 104.961 122 106.108 121.36C107.281 120.72 108.494 120.4 109.748 120.4C112.148 120.4 113.988 121.093 115.268 122.48C116.574 123.84 117.228 125.787 117.228 128.32V140.64H113.548V128.56C113.468 125.36 111.854 123.76 108.708 123.76C107.241 123.76 106.014 124.36 105.028 125.56C104.041 126.733 103.548 128.147 103.548 129.8V140.64H99.868V121.04Z" fill="black" fill-opacity="0.6"/>
<path d="M28.96 82.12C28.96 86.12 27.773 89.3067 25.4 91.68C22.7333 94.5067 19.2267 95.92 14.88 95.92C10.72 95.92 7.2 94.48 4.32 91.6C1.44 88.72 0 85.1733 0 80.96C0 76.7467 1.44 73.2 4.32 70.32C7.2 67.44 10.72 66 14.88 66C16.9867 66 18.9733 66.3733 20.84 67.12C22.7067 67.8667 24.24 68.92 25.44 70.28L22.8 72.92C21.92 71.8533 20.7733 71.0267 19.36 70.44C17.9733 69.8267 16.48 69.52 14.88 69.52C11.76 69.52 9.12 70.6 6.96 72.76C4.8267 74.9467 3.75999 77.68 3.75999 80.96C3.75999 84.24 4.8267 86.9733 6.96 89.16C9.12 91.32 11.76 92.4 14.88 92.4C17.7333 92.4 20.1067 91.6 22 90C23.8933 88.4 24.987 86.2 25.28 83.4H14.88V79.96H28.76C28.893 80.7067 28.96 81.4267 28.96 82.12ZM41.396 95.92C38.516 95.92 36.143 94.9333 34.276 92.96C32.409 90.9867 31.476 88.4933 31.476 85.48C31.476 82.4933 32.383 80.0133 34.196 78.04C36.009 76.04 38.329 75.04 41.156 75.04C44.063 75.04 46.369 75.9867 48.076 77.88C49.809 79.7467 50.676 82.3733 50.676 85.76L50.636 86.16H35.236C35.289 88.08 35.929 89.6267 37.156 90.8C38.383 91.9733 39.849 92.56 41.556 92.56C43.903 92.56 45.743 91.3867 47.076 89.04L50.356 90.64C49.476 92.2933 48.249 93.5867 46.676 94.52C45.129 95.4533 43.369 95.92 41.396 95.92ZM35.516 83.12H46.756C46.649 81.76 46.089 80.64 45.076 79.76C44.089 78.8533 42.756 78.4 41.076 78.4C39.689 78.4 38.489 78.8267 37.476 79.68C36.489 80.5333 35.836 81.68 35.516 83.12ZM61.215 95.6C59.615 95.6 58.282 95.1067 57.215 94.12C56.175 93.1333 55.642 91.76 55.615 90V79.04H52.175V75.68H55.615V69.68H59.295V75.68H64.095V79.04H59.295V88.8C59.295 90.1067 59.549 91 60.055 91.48C60.562 91.9333 61.135 92.16 61.775 92.16C62.069 92.16 62.349 92.1333 62.615 92.08C62.909 92 63.175 91.9067 63.415 91.8L64.575 95.08C63.615 95.4267 62.495 95.6 61.215 95.6Z" fill="black" fill-opacity="0.6"/>
<path d="M50 25C50 11.1929 38.8071 0 25 0C11.1929 0 0 11.1929 0 25C0 38.8071 11.1929 50 25 50C38.8071 50 50 38.8071 50 25Z" fill="#601CFB"/>
<path d="M17.434 34.356H17.016C16.0533 34.356 15.287 34.071 14.717 33.501C14.147 32.9437 13.862 32.1837 13.862 31.221V28.143C13.862 26.965 13.3933 26.376 12.456 26.376V24.932C13.3933 24.932 13.862 24.343 13.862 23.165V20.087C13.862 19.1243 14.147 18.3643 14.717 17.807C15.287 17.237 16.0533 16.952 17.016 16.952H17.434V18.396H17.149C16.0217 18.396 15.458 19.0357 15.458 20.315V23.469C15.4453 24.5963 15.0083 25.312 14.147 25.616V25.692C14.9957 25.9707 15.4327 26.6673 15.458 27.782V30.993C15.458 32.2723 16.0217 32.912 17.149 32.912H17.434V34.356ZM31.6266 34.356V32.912H31.9116C33.0389 32.912 33.6026 32.2723 33.6026 30.993V27.782C33.6279 26.6673 34.0649 25.9707 34.9136 25.692V25.616C34.0522 25.312 33.6152 24.5963 33.6026 23.469V20.315C33.6026 19.0357 33.0389 18.396 31.9116 18.396H31.6266V16.952H32.0446C33.0072 16.952 33.7736 17.237 34.3436 17.807C34.9136 18.3643 35.1986 19.1243 35.1986 20.087V23.165C35.1986 24.343 35.6672 24.932 36.6046 24.932V26.376C35.6672 26.376 35.1986 26.965 35.1986 28.143V31.221C35.1986 32.1837 34.9136 32.9437 34.3436 33.501C33.7736 34.071 33.0072 34.356 32.0446 34.356H31.6266Z" fill="white"/>
<path d="M25.8388 18.396L20.1958 32H18.5618L24.2048 18.396H25.8388ZM30.5146 18.396L24.8716 32H23.2376L28.8806 18.396H30.5146Z" fill="black"/>
</svg>
