<svg width="222" height="43" viewBox="0 0 222 43" fill="none" xmlns="http://www.w3.org/2000/svg">
<path d="M19.256 7.026L12.47 25.76H26.274L19.488 7.026H19.256ZM6.612 42H0.696L16.356 0.471999H22.388L38.048 42H32.132L28.13 30.748H10.672L6.612 42ZM53.9006 38.056C56.5299 38.056 58.6759 37.1087 60.3386 35.214C62.0786 33.3193 62.9486 30.8447 62.9486 27.79C62.9486 24.8127 62.0786 22.3573 60.3386 20.424C58.6372 18.4907 56.4912 17.524 53.9006 17.524C51.3486 17.524 49.2026 18.4907 47.4626 20.424C45.7226 22.3573 44.8526 24.8127 44.8526 27.79C44.8526 30.806 45.7226 33.2613 47.4626 35.156C49.2026 37.0893 51.3486 38.056 53.9006 38.056ZM53.0306 42.928C49.3186 42.928 46.1286 41.4587 43.4606 38.52C40.8312 35.5427 39.5166 31.966 39.5166 27.79C39.5166 23.614 40.8312 20.0373 43.4606 17.06C46.1286 14.1213 49.3186 12.652 53.0306 12.652C55.1186 12.652 57.0132 13.0967 58.7146 13.986C60.4546 14.8753 61.7886 16.0547 62.7166 17.524H62.9486L62.7166 13.58V0.471999H68.0526V42H62.9486V38.056H62.7166C61.7886 39.5253 60.4546 40.7047 58.7146 41.594C57.0132 42.4833 55.1186 42.928 53.0306 42.928ZM96.0253 34.112C96.0253 36.5867 94.9427 38.6747 92.7773 40.376C90.612 42.0773 87.886 42.928 84.5993 42.928C81.738 42.928 79.2247 42.1933 77.0593 40.724C74.894 39.216 73.3473 37.244 72.4193 34.808L77.1753 32.778C77.8713 34.4793 78.8767 35.8133 80.1913 36.78C81.5447 37.708 83.014 38.172 84.5993 38.172C86.3007 38.172 87.712 37.8047 88.8333 37.07C89.9933 36.3353 90.5733 35.4653 90.5733 34.46C90.5733 32.6427 89.1813 31.3087 86.3973 30.458L81.5253 29.24C75.996 27.848 73.2313 25.18 73.2313 21.236C73.2313 18.6453 74.2753 16.5767 76.3633 15.03C78.49 13.4447 81.1967 12.652 84.4833 12.652C86.9967 12.652 89.2587 13.2513 91.2693 14.45C93.3187 15.6487 94.7493 17.2533 95.5613 19.264L90.8053 21.236C90.264 20.0373 89.3747 19.1093 88.1373 18.452C86.9387 17.756 85.5853 17.408 84.0773 17.408C82.6853 17.408 81.4287 17.756 80.3073 18.452C79.2247 19.148 78.6833 19.9987 78.6833 21.004C78.6833 22.628 80.2107 23.788 83.2653 24.484L87.5573 25.586C93.2027 26.978 96.0253 29.82 96.0253 34.112ZM113.414 0.471999H118.75V13.58L118.518 17.524H118.75C119.562 16.132 120.799 14.972 122.462 14.044C124.163 13.116 125.923 12.652 127.74 12.652C131.22 12.652 133.888 13.6573 135.744 15.668C137.639 17.64 138.586 20.4627 138.586 24.136V42H133.25V25.18C133.25 20.076 130.988 17.524 126.464 17.524C124.299 17.524 122.462 18.4327 120.954 20.25C119.485 22.0287 118.75 24.1167 118.75 26.514V42H113.414V0.471999ZM157.61 42.928C153.434 42.928 149.992 41.4973 147.286 38.636C144.579 35.7747 143.226 32.1593 143.226 27.79C143.226 23.4593 144.54 19.8633 147.17 17.002C149.799 14.102 153.163 12.652 157.262 12.652C161.476 12.652 164.821 14.0247 167.296 16.77C169.809 19.4767 171.066 23.2853 171.066 28.196L171.008 28.776H148.678C148.755 31.56 149.683 33.8027 151.462 35.504C153.24 37.2053 155.367 38.056 157.842 38.056C161.244 38.056 163.912 36.3547 165.846 32.952L170.602 35.272C169.326 37.6693 167.547 39.5447 165.266 40.898C163.023 42.2513 160.471 42.928 157.61 42.928ZM149.084 24.368H165.382C165.227 22.396 164.415 20.772 162.946 19.496C161.515 18.1813 159.582 17.524 157.146 17.524C155.135 17.524 153.395 18.1427 151.926 19.38C150.495 20.6173 149.548 22.28 149.084 24.368ZM181.281 42H175.945V13.58H181.049V18.22H181.281C181.823 16.712 182.925 15.436 184.587 14.392C186.289 13.3093 187.951 12.768 189.575 12.768C191.122 12.768 192.437 13 193.519 13.464L191.895 18.626C191.238 18.3553 190.194 18.22 188.763 18.22C186.753 18.22 184.993 19.032 183.485 20.656C182.016 22.28 181.281 24.1747 181.281 26.34V42ZM208.02 42.928C203.844 42.928 200.402 41.4973 197.696 38.636C194.989 35.7747 193.636 32.1593 193.636 27.79C193.636 23.4593 194.95 19.8633 197.58 17.002C200.209 14.102 203.573 12.652 207.672 12.652C211.886 12.652 215.231 14.0247 217.706 16.77C220.219 19.4767 221.476 23.2853 221.476 28.196L221.418 28.776H199.088C199.165 31.56 200.093 33.8027 201.872 35.504C203.65 37.2053 205.777 38.056 208.252 38.056C211.654 38.056 214.322 36.3547 216.256 32.952L221.012 35.272C219.736 37.6693 217.957 39.5447 215.676 40.898C213.433 42.2513 210.881 42.928 208.02 42.928ZM199.494 24.368H215.792C215.637 22.396 214.825 20.772 213.356 19.496C211.925 18.1813 209.992 17.524 207.556 17.524C205.545 17.524 203.805 18.1427 202.336 19.38C200.905 20.6173 199.958 22.28 199.494 24.368Z" fill="#1E1E1E"/>
</svg>
