<svg width="241" height="56" viewBox="0 0 241 56" fill="none" xmlns="http://www.w3.org/2000/svg">
<path d="M56 28C56 12.536 43.464 0 28 0C12.536 0 0 12.536 0 28C0 43.464 12.536 56 28 56C43.464 56 56 43.464 56 28Z" fill="#601CFB"/>
<path d="M18.7622 38.0598C17.7274 38.0598 16.9075 37.7574 16.3027 37.1526C15.7114 36.5478 15.4157 35.7414 15.4157 34.7334V31.2861C15.4157 30.735 15.2746 30.3184 14.9923 30.0362C14.7101 29.7405 14.3539 29.5926 13.9238 29.5926V28.0605C14.3539 28.0605 14.7101 27.9194 14.9923 27.6371C15.2746 27.3414 15.4157 26.9181 15.4157 26.367V22.9197C15.4157 21.9117 15.7114 21.1053 16.3027 20.5005C16.9075 19.8957 17.7274 19.5933 18.7622 19.5933H19.2058V21.1254H18.7622C18.2918 21.1254 17.8954 21.2934 17.5728 21.6294C17.2637 21.9654 17.1091 22.4157 17.1091 22.9802V26.4275C17.1091 27.6506 16.6454 28.4368 15.7181 28.7862V28.8669C16.6454 29.1894 17.1091 29.9757 17.1091 31.2256V34.673C17.1091 35.2374 17.2637 35.6877 17.5728 36.0237C17.8954 36.3597 18.2918 36.5277 18.7622 36.5277H19.2058V38.0598H18.7622ZM34.7082 38.0598H34.2647V36.5277H34.7082C35.1786 36.5277 35.5684 36.3597 35.8775 36.0237C36.2001 35.6877 36.3614 35.2374 36.3614 34.673V31.2256C36.3614 29.9757 36.825 29.1894 37.7524 28.8669V28.7862C36.825 28.4368 36.3614 27.6506 36.3614 26.4275V22.9802C36.3614 22.4157 36.2001 21.9654 35.8775 21.6294C35.5684 21.2934 35.1786 21.1254 34.7082 21.1254H34.2647V19.5933H34.7082C35.7431 19.5933 36.5562 19.8957 37.1476 20.5005C37.7524 21.1053 38.0548 21.9117 38.0548 22.9197V26.367C38.0548 26.9181 38.1959 27.3414 38.4782 27.6371C38.7604 27.9194 39.1166 28.0605 39.5466 28.0605V29.5926C39.1166 29.5926 38.7604 29.7405 38.4782 30.0362C38.1959 30.3184 38.0548 30.735 38.0548 31.2861V34.7334C38.0548 35.7414 37.7524 36.5478 37.1476 37.1526C36.5562 37.7574 35.7431 38.0598 34.7082 38.0598Z" fill="white"/>
<path d="M21.7532 36.4874L20.2613 35.8826L26.773 20.1981L28.2649 20.8029L21.7532 36.4874ZM26.7144 36.4874L25.2226 35.8826L31.7344 20.1981L33.2262 20.8029L26.7144 36.4874Z" fill="black"/>
<path d="M92.742 17.762C92.742 19.962 92.0893 21.7147 90.784 23.02C89.3173 24.5747 87.3887 25.352 84.998 25.352C82.71 25.352 80.774 24.56 79.19 22.976C77.606 21.392 76.814 19.4413 76.814 17.124C76.814 14.8067 77.606 12.856 79.19 11.272C80.774 9.688 82.71 8.896 84.998 8.896C86.1567 8.896 87.2493 9.10133 88.276 9.512C89.3027 9.92267 90.146 10.502 90.806 11.25L89.354 12.702C88.87 12.1153 88.2393 11.6607 87.462 11.338C86.6993 11.0007 85.878 10.832 84.998 10.832C83.282 10.832 81.83 11.426 80.642 12.614C79.4687 13.8167 78.882 15.32 78.882 17.124C78.882 18.928 79.4687 20.4313 80.642 21.634C81.83 22.822 83.282 23.416 84.998 23.416C86.5673 23.416 87.8727 22.976 88.914 22.096C89.9553 21.216 90.5567 20.006 90.718 18.466H84.998V16.574H92.632C92.7053 16.9847 92.742 17.3807 92.742 17.762ZM99.5818 25.352C97.9978 25.352 96.6924 24.8093 95.6658 23.724C94.6391 22.6387 94.1258 21.2673 94.1258 19.61C94.1258 17.9673 94.6244 16.6033 95.6218 15.518C96.6191 14.418 97.8951 13.868 99.4498 13.868C101.048 13.868 102.317 14.3887 103.256 15.43C104.209 16.4567 104.686 17.9013 104.686 19.764L104.664 19.984H96.1938C96.2231 21.04 96.5751 21.8907 97.2498 22.536C97.9244 23.1813 98.7311 23.504 99.6698 23.504C100.96 23.504 101.972 22.8587 102.706 21.568L104.51 22.448C104.026 23.3573 103.351 24.0687 102.486 24.582C101.635 25.0953 100.667 25.352 99.5818 25.352ZM96.3478 18.312H102.53C102.471 17.564 102.163 16.948 101.606 16.464C101.063 15.9653 100.33 15.716 99.4058 15.716C98.6431 15.716 97.9831 15.9507 97.4258 16.42C96.8831 16.8893 96.5238 17.52 96.3478 18.312ZM110.482 25.176C109.602 25.176 108.869 24.9047 108.282 24.362C107.71 23.8193 107.417 23.064 107.402 22.096V16.068H105.51V14.22H107.402V10.92H109.426V14.22H112.066V16.068H109.426V21.436C109.426 22.1547 109.566 22.646 109.844 22.91C110.123 23.1593 110.438 23.284 110.79 23.284C110.952 23.284 111.106 23.2693 111.252 23.24C111.414 23.196 111.56 23.1447 111.692 23.086L112.33 24.89C111.802 25.0807 111.186 25.176 110.482 25.176ZM121.202 18.62V25H119.178V9.248H124.546C125.91 9.248 127.068 9.70267 128.022 10.612C128.99 11.5213 129.474 12.6287 129.474 13.934C129.474 15.2687 128.99 16.3833 128.022 17.278C127.083 18.1727 125.924 18.62 124.546 18.62H121.202ZM121.202 11.184V16.684H124.59C125.396 16.684 126.064 16.4127 126.592 15.87C127.134 15.3273 127.406 14.682 127.406 13.934C127.406 13.2007 127.134 12.5627 126.592 12.02C126.064 11.4627 125.396 11.184 124.59 11.184H121.202ZM140.88 14.22L134.126 29.752H132.036L134.544 24.318L130.1 14.22H132.3L135.512 21.964H135.556L138.68 14.22H140.88ZM146.469 25.176C145.589 25.176 144.855 24.9047 144.269 24.362C143.697 23.8193 143.403 23.064 143.389 22.096V16.068H141.497V14.22H143.389V10.92H145.413V14.22H148.053V16.068H145.413V21.436C145.413 22.1547 145.552 22.646 145.831 22.91C146.109 23.1593 146.425 23.284 146.777 23.284C146.938 23.284 147.092 23.2693 147.239 23.24C147.4 23.196 147.547 23.1447 147.679 23.086L148.317 24.89C147.789 25.0807 147.173 25.176 146.469 25.176ZM150.086 9.248H152.11V14.22L152.022 15.716H152.11C152.418 15.188 152.887 14.748 153.518 14.396C154.163 14.044 154.83 13.868 155.52 13.868C156.84 13.868 157.852 14.2493 158.556 15.012C159.274 15.76 159.634 16.8307 159.634 18.224V25H157.61V18.62C157.61 16.684 156.752 15.716 155.036 15.716C154.214 15.716 153.518 16.0607 152.946 16.75C152.388 17.4247 152.11 18.2167 152.11 19.126V25H150.086V9.248ZM161.393 19.61C161.393 17.9527 161.914 16.5813 162.955 15.496C164.011 14.4107 165.339 13.868 166.937 13.868C168.536 13.868 169.856 14.4107 170.897 15.496C171.953 16.5813 172.481 17.9527 172.481 19.61C172.481 21.282 171.953 22.6533 170.897 23.724C169.856 24.8093 168.536 25.352 166.937 25.352C165.339 25.352 164.011 24.8093 162.955 23.724C161.914 22.6387 161.393 21.2673 161.393 19.61ZM163.417 19.61C163.417 20.7687 163.755 21.7073 164.429 22.426C165.104 23.1447 165.94 23.504 166.937 23.504C167.935 23.504 168.771 23.1447 169.445 22.426C170.12 21.7073 170.457 20.7687 170.457 19.61C170.457 18.466 170.12 17.5347 169.445 16.816C168.756 16.0827 167.92 15.716 166.937 15.716C165.955 15.716 165.119 16.0827 164.429 16.816C163.755 17.5347 163.417 18.466 163.417 19.61ZM174.105 14.22H176.041V15.716H176.129C176.437 15.188 176.906 14.748 177.537 14.396C178.182 14.044 178.85 13.868 179.539 13.868C180.859 13.868 181.871 14.2493 182.575 15.012C183.294 15.76 183.653 16.8307 183.653 18.224V25H181.629V18.356C181.585 16.596 180.698 15.716 178.967 15.716C178.16 15.716 177.486 16.046 176.943 16.706C176.4 17.3513 176.129 18.1287 176.129 19.038V25H174.105V14.22ZM198.199 25.352C195.867 25.352 193.917 24.5673 192.347 22.998C190.793 21.4287 190.015 19.4707 190.015 17.124C190.015 14.7773 190.793 12.8267 192.347 11.272C193.902 9.688 195.853 8.896 198.199 8.896C200.575 8.896 202.504 9.754 203.985 11.47L202.533 12.878C201.404 11.514 199.959 10.832 198.199 10.832C196.454 10.832 194.995 11.4187 193.821 12.592C192.663 13.7507 192.083 15.2613 192.083 17.124C192.083 18.9867 192.663 20.4973 193.821 21.656C194.995 22.8293 196.454 23.416 198.199 23.416C200.033 23.416 201.624 22.646 202.973 21.106L204.447 22.536C203.699 23.4307 202.783 24.1273 201.697 24.626C200.612 25.11 199.446 25.352 198.199 25.352ZM205.415 19.61C205.415 17.9527 205.935 16.5813 206.977 15.496C208.033 14.4107 209.36 13.868 210.959 13.868C212.557 13.868 213.877 14.4107 214.919 15.496C215.975 16.5813 216.503 17.9527 216.503 19.61C216.503 21.282 215.975 22.6533 214.919 23.724C213.877 24.8093 212.557 25.352 210.959 25.352C209.36 25.352 208.033 24.8093 206.977 23.724C205.935 22.6387 205.415 21.2673 205.415 19.61ZM207.439 19.61C207.439 20.7687 207.776 21.7073 208.451 22.426C209.125 23.1447 209.961 23.504 210.959 23.504C211.956 23.504 212.792 23.1447 213.467 22.426C214.141 21.7073 214.479 20.7687 214.479 19.61C214.479 18.466 214.141 17.5347 213.467 16.816C212.777 16.0827 211.941 15.716 210.959 15.716C209.976 15.716 209.14 16.0827 208.451 16.816C207.776 17.5347 207.439 18.466 207.439 19.61ZM223.181 23.504C224.179 23.504 224.993 23.1447 225.623 22.426C226.283 21.7073 226.613 20.7687 226.613 19.61C226.613 18.4807 226.283 17.5493 225.623 16.816C224.978 16.0827 224.164 15.716 223.181 15.716C222.213 15.716 221.399 16.0827 220.739 16.816C220.079 17.5493 219.749 18.4807 219.749 19.61C219.749 20.754 220.079 21.6853 220.739 22.404C221.399 23.1373 222.213 23.504 223.181 23.504ZM222.851 25.352C221.443 25.352 220.233 24.7947 219.221 23.68C218.224 22.5507 217.725 21.194 217.725 19.61C217.725 18.026 218.224 16.6693 219.221 15.54C220.233 14.4253 221.443 13.868 222.851 13.868C223.643 13.868 224.362 14.0367 225.007 14.374C225.667 14.7113 226.173 15.1587 226.525 15.716H226.613L226.525 14.22V9.248H228.549V25H226.613V23.504H226.525C226.173 24.0613 225.667 24.5087 225.007 24.846C224.362 25.1833 223.643 25.352 222.851 25.352ZM235.75 25.352C234.166 25.352 232.86 24.8093 231.834 23.724C230.807 22.6387 230.294 21.2673 230.294 19.61C230.294 17.9673 230.792 16.6033 231.79 15.518C232.787 14.418 234.063 13.868 235.618 13.868C237.216 13.868 238.485 14.3887 239.424 15.43C240.377 16.4567 240.854 17.9013 240.854 19.764L240.832 19.984H232.362C232.391 21.04 232.743 21.8907 233.418 22.536C234.092 23.1813 234.899 23.504 235.838 23.504C237.128 23.504 238.14 22.8587 238.874 21.568L240.678 22.448C240.194 23.3573 239.519 24.0687 238.654 24.582C237.803 25.0953 236.835 25.352 235.75 25.352ZM232.516 18.312H238.698C238.639 17.564 238.331 16.948 237.774 16.464C237.231 15.9653 236.498 15.716 235.574 15.716C234.811 15.716 234.151 15.9507 233.594 16.42C233.051 16.8893 232.692 17.52 232.516 18.312Z" fill="black"/>
<path d="M77.207 39.7227L77.6406 35.4688H82.0117V36.4707H78.5605L78.3027 38.7969C78.7207 38.5508 79.1953 38.4277 79.7266 38.4277C80.5039 38.4277 81.1211 38.6855 81.5781 39.2012C82.0352 39.7129 82.2637 40.4062 82.2637 41.2812C82.2637 42.1602 82.0254 42.8535 81.5488 43.3613C81.0762 43.8652 80.4141 44.1172 79.5625 44.1172C78.8086 44.1172 78.1934 43.9082 77.7168 43.4902C77.2402 43.0723 76.9688 42.4941 76.9023 41.7559H77.9277C77.9941 42.2441 78.168 42.6133 78.4492 42.8633C78.7305 43.1094 79.1016 43.2324 79.5625 43.2324C80.0664 43.2324 80.4609 43.0605 80.7461 42.7168C81.0352 42.373 81.1797 41.8984 81.1797 41.293C81.1797 40.7227 81.0234 40.2656 80.7109 39.9219C80.4023 39.5742 79.9902 39.4004 79.4746 39.4004C79.002 39.4004 78.6309 39.5039 78.3613 39.7109L78.0742 39.9453L77.207 39.7227ZM83.582 43.4316C83.582 43.2441 83.6367 43.0879 83.7461 42.9629C83.8594 42.8379 84.0273 42.7754 84.25 42.7754C84.4727 42.7754 84.6406 42.8379 84.7539 42.9629C84.8711 43.0879 84.9297 43.2441 84.9297 43.4316C84.9297 43.6113 84.8711 43.7617 84.7539 43.8828C84.6406 44.0039 84.4727 44.0645 84.25 44.0645C84.0273 44.0645 83.8594 44.0039 83.7461 43.8828C83.6367 43.7617 83.582 43.6113 83.582 43.4316ZM91.7852 37.6953C91.7852 38.1211 91.6719 38.5 91.4453 38.832C91.2227 39.1641 90.9199 39.4238 90.5371 39.6113C90.9824 39.8027 91.334 40.082 91.5918 40.4492C91.8535 40.8164 91.9844 41.2324 91.9844 41.6973C91.9844 42.4355 91.7344 43.0234 91.2344 43.4609C90.7383 43.8984 90.084 44.1172 89.2715 44.1172C88.4512 44.1172 87.793 43.8984 87.2969 43.4609C86.8047 43.0195 86.5586 42.4316 86.5586 41.6973C86.5586 41.2363 86.6836 40.8203 86.9336 40.4492C87.1875 40.0781 87.5371 39.7969 87.9824 39.6055C87.6035 39.418 87.3047 39.1582 87.0859 38.8262C86.8672 38.4941 86.7578 38.1172 86.7578 37.6953C86.7578 36.9766 86.9883 36.4062 87.4492 35.9844C87.9102 35.5625 88.5176 35.3516 89.2715 35.3516C90.0215 35.3516 90.627 35.5625 91.0879 35.9844C91.5527 36.4062 91.7852 36.9766 91.7852 37.6953ZM90.9004 41.6738C90.9004 41.1973 90.748 40.8086 90.4434 40.5078C90.1426 40.207 89.748 40.0566 89.2598 40.0566C88.7715 40.0566 88.3789 40.2051 88.082 40.502C87.7891 40.7988 87.6426 41.1895 87.6426 41.6738C87.6426 42.1582 87.7852 42.5391 88.0703 42.8164C88.3594 43.0938 88.7598 43.2324 89.2715 43.2324C89.7793 43.2324 90.1777 43.0938 90.4668 42.8164C90.7559 42.5352 90.9004 42.1543 90.9004 41.6738ZM89.2715 36.2422C88.8457 36.2422 88.5 36.375 88.2344 36.6406C87.9727 36.9023 87.8418 37.2598 87.8418 37.7129C87.8418 38.1465 87.9707 38.498 88.2285 38.7676C88.4902 39.0332 88.8379 39.166 89.2715 39.166C89.7051 39.166 90.0508 39.0332 90.3086 38.7676C90.5703 38.498 90.7012 38.1465 90.7012 37.7129C90.7012 37.2793 90.5664 36.9258 90.2969 36.6523C90.0273 36.3789 89.6855 36.2422 89.2715 36.2422ZM98.5234 37.6953C98.5234 38.1211 98.4102 38.5 98.1836 38.832C97.9609 39.1641 97.6582 39.4238 97.2754 39.6113C97.7207 39.8027 98.0723 40.082 98.3301 40.4492C98.5918 40.8164 98.7227 41.2324 98.7227 41.6973C98.7227 42.4355 98.4727 43.0234 97.9727 43.4609C97.4766 43.8984 96.8223 44.1172 96.0098 44.1172C95.1895 44.1172 94.5312 43.8984 94.0352 43.4609C93.543 43.0195 93.2969 42.4316 93.2969 41.6973C93.2969 41.2363 93.4219 40.8203 93.6719 40.4492C93.9258 40.0781 94.2754 39.7969 94.7207 39.6055C94.3418 39.418 94.043 39.1582 93.8242 38.8262C93.6055 38.4941 93.4961 38.1172 93.4961 37.6953C93.4961 36.9766 93.7266 36.4062 94.1875 35.9844C94.6484 35.5625 95.2559 35.3516 96.0098 35.3516C96.7598 35.3516 97.3652 35.5625 97.8262 35.9844C98.291 36.4062 98.5234 36.9766 98.5234 37.6953ZM97.6387 41.6738C97.6387 41.1973 97.4863 40.8086 97.1816 40.5078C96.8809 40.207 96.4863 40.0566 95.998 40.0566C95.5098 40.0566 95.1172 40.2051 94.8203 40.502C94.5273 40.7988 94.3809 41.1895 94.3809 41.6738C94.3809 42.1582 94.5234 42.5391 94.8086 42.8164C95.0977 43.0938 95.498 43.2324 96.0098 43.2324C96.5176 43.2324 96.916 43.0938 97.2051 42.8164C97.4941 42.5352 97.6387 42.1543 97.6387 41.6738ZM96.0098 36.2422C95.584 36.2422 95.2383 36.375 94.9727 36.6406C94.7109 36.9023 94.5801 37.2598 94.5801 37.7129C94.5801 38.1465 94.709 38.498 94.9668 38.7676C95.2285 39.0332 95.5762 39.166 96.0098 39.166C96.4434 39.166 96.7891 39.0332 97.0469 38.7676C97.3086 38.498 97.4395 38.1465 97.4395 37.7129C97.4395 37.2793 97.3047 36.9258 97.0352 36.6523C96.7656 36.3789 96.4238 36.2422 96.0098 36.2422ZM102.537 40.0332L101.494 41.1172V44H100.369V35.4688H101.494V39.6875L105.285 35.4688H106.645L103.287 39.2363L106.908 44H105.561L102.537 40.0332ZM114.391 42.3184C114.391 42.0254 114.279 41.7988 114.057 41.6387C113.838 41.4746 113.453 41.334 112.902 41.2168C112.355 41.0996 111.92 40.959 111.596 40.7949C111.275 40.6309 111.037 40.4355 110.881 40.209C110.729 39.9824 110.652 39.7129 110.652 39.4004C110.652 38.8809 110.871 38.4414 111.309 38.082C111.75 37.7227 112.312 37.543 112.996 37.543C113.715 37.543 114.297 37.7285 114.742 38.0996C115.191 38.4707 115.416 38.9453 115.416 39.5234H114.326C114.326 39.2266 114.199 38.9707 113.945 38.7559C113.695 38.541 113.379 38.4336 112.996 38.4336C112.602 38.4336 112.293 38.5195 112.07 38.6914C111.848 38.8633 111.736 39.0879 111.736 39.3652C111.736 39.627 111.84 39.8242 112.047 39.957C112.254 40.0898 112.627 40.2168 113.166 40.3379C113.709 40.459 114.148 40.6035 114.484 40.7715C114.82 40.9395 115.068 41.1426 115.229 41.3809C115.393 41.6152 115.475 41.9023 115.475 42.2422C115.475 42.8086 115.248 43.2637 114.795 43.6074C114.342 43.9473 113.754 44.1172 113.031 44.1172C112.523 44.1172 112.074 44.0273 111.684 43.8477C111.293 43.668 110.986 43.418 110.764 43.0977C110.545 42.7734 110.436 42.4238 110.436 42.0488H111.52C111.539 42.4121 111.684 42.7012 111.953 42.916C112.227 43.127 112.586 43.2324 113.031 43.2324C113.441 43.2324 113.77 43.1504 114.016 42.9863C114.266 42.8184 114.391 42.5957 114.391 42.3184ZM120.801 43.373C120.379 43.8691 119.76 44.1172 118.943 44.1172C118.268 44.1172 117.752 43.9219 117.396 43.5312C117.045 43.1367 116.867 42.5547 116.863 41.7852V37.6602H117.947V41.7559C117.947 42.7168 118.338 43.1973 119.119 43.1973C119.947 43.1973 120.498 42.8887 120.771 42.2715V37.6602H121.855V44H120.824L120.801 43.373ZM128.875 40.9004C128.875 41.8691 128.652 42.6484 128.207 43.2383C127.762 43.8242 127.164 44.1172 126.414 44.1172C125.613 44.1172 124.994 43.834 124.557 43.2676L124.504 44H123.508V35H124.592V38.3574C125.029 37.8145 125.633 37.543 126.402 37.543C127.172 37.543 127.775 37.834 128.213 38.416C128.654 38.998 128.875 39.7949 128.875 40.8066V40.9004ZM127.791 40.7773C127.791 40.0391 127.648 39.4688 127.363 39.0664C127.078 38.6641 126.668 38.4629 126.133 38.4629C125.418 38.4629 124.904 38.7949 124.592 39.459V42.2012C124.924 42.8652 125.441 43.1973 126.145 43.1973C126.664 43.1973 127.068 42.9961 127.357 42.5938C127.646 42.1914 127.791 41.5859 127.791 40.7773ZM133.938 42.3184C133.938 42.0254 133.826 41.7988 133.604 41.6387C133.385 41.4746 133 41.334 132.449 41.2168C131.902 41.0996 131.467 40.959 131.143 40.7949C130.822 40.6309 130.584 40.4355 130.428 40.209C130.275 39.9824 130.199 39.7129 130.199 39.4004C130.199 38.8809 130.418 38.4414 130.855 38.082C131.297 37.7227 131.859 37.543 132.543 37.543C133.262 37.543 133.844 37.7285 134.289 38.0996C134.738 38.4707 134.963 38.9453 134.963 39.5234H133.873C133.873 39.2266 133.746 38.9707 133.492 38.7559C133.242 38.541 132.926 38.4336 132.543 38.4336C132.148 38.4336 131.84 38.5195 131.617 38.6914C131.395 38.8633 131.283 39.0879 131.283 39.3652C131.283 39.627 131.387 39.8242 131.594 39.957C131.801 40.0898 132.174 40.2168 132.713 40.3379C133.256 40.459 133.695 40.6035 134.031 40.7715C134.367 40.9395 134.615 41.1426 134.775 41.3809C134.939 41.6152 135.021 41.9023 135.021 42.2422C135.021 42.8086 134.795 43.2637 134.342 43.6074C133.889 43.9473 133.301 44.1172 132.578 44.1172C132.07 44.1172 131.621 44.0273 131.23 43.8477C130.84 43.668 130.533 43.418 130.311 43.0977C130.092 42.7734 129.982 42.4238 129.982 42.0488H131.066C131.086 42.4121 131.23 42.7012 131.5 42.916C131.773 43.127 132.133 43.2324 132.578 43.2324C132.988 43.2324 133.316 43.1504 133.562 42.9863C133.812 42.8184 133.938 42.5957 133.938 42.3184ZM138.977 43.2324C139.363 43.2324 139.701 43.1152 139.99 42.8809C140.279 42.6465 140.439 42.3535 140.471 42.002H141.496C141.477 42.3652 141.352 42.7109 141.121 43.0391C140.891 43.3672 140.582 43.6289 140.195 43.8242C139.812 44.0195 139.406 44.1172 138.977 44.1172C138.113 44.1172 137.426 43.8301 136.914 43.2559C136.406 42.6777 136.152 41.8887 136.152 40.8887V40.707C136.152 40.0898 136.266 39.541 136.492 39.0605C136.719 38.5801 137.043 38.207 137.465 37.9414C137.891 37.6758 138.393 37.543 138.971 37.543C139.682 37.543 140.271 37.7559 140.74 38.1816C141.213 38.6074 141.465 39.1602 141.496 39.8398H140.471C140.439 39.4297 140.283 39.0938 140.002 38.832C139.725 38.5664 139.381 38.4336 138.971 38.4336C138.42 38.4336 137.992 38.6328 137.688 39.0312C137.387 39.4258 137.236 39.998 137.236 40.748V40.9531C137.236 41.6836 137.387 42.2461 137.688 42.6406C137.988 43.0352 138.418 43.2324 138.977 43.2324ZM145.779 38.6328C145.615 38.6055 145.438 38.5918 145.246 38.5918C144.535 38.5918 144.053 38.8945 143.799 39.5V44H142.715V37.6602H143.77L143.787 38.3926C144.143 37.8262 144.646 37.543 145.299 37.543C145.51 37.543 145.67 37.5703 145.779 37.625V38.6328ZM147.959 44H146.875V37.6602H147.959V44ZM146.787 35.9785C146.787 35.8027 146.84 35.6543 146.945 35.5332C147.055 35.4121 147.215 35.3516 147.426 35.3516C147.637 35.3516 147.797 35.4121 147.906 35.5332C148.016 35.6543 148.07 35.8027 148.07 35.9785C148.07 36.1543 148.016 36.3008 147.906 36.418C147.797 36.5352 147.637 36.5938 147.426 36.5938C147.215 36.5938 147.055 36.5352 146.945 36.418C146.84 36.3008 146.787 36.1543 146.787 35.9785ZM155.066 40.9004C155.066 41.8691 154.844 42.6484 154.398 43.2383C153.953 43.8242 153.355 44.1172 152.605 44.1172C151.805 44.1172 151.186 43.834 150.748 43.2676L150.695 44H149.699V35H150.783V38.3574C151.221 37.8145 151.824 37.543 152.594 37.543C153.363 37.543 153.967 37.834 154.404 38.416C154.846 38.998 155.066 39.7949 155.066 40.8066V40.9004ZM153.982 40.7773C153.982 40.0391 153.84 39.4688 153.555 39.0664C153.27 38.6641 152.859 38.4629 152.324 38.4629C151.609 38.4629 151.096 38.7949 150.783 39.459V42.2012C151.115 42.8652 151.633 43.1973 152.336 43.1973C152.855 43.1973 153.26 42.9961 153.549 42.5938C153.838 42.1914 153.982 41.5859 153.982 40.7773ZM159.068 44.1172C158.209 44.1172 157.51 43.8359 156.971 43.2734C156.432 42.707 156.162 41.9512 156.162 41.0059V40.8066C156.162 40.1777 156.281 39.6172 156.52 39.125C156.762 38.6289 157.098 38.2422 157.527 37.9648C157.961 37.6836 158.43 37.543 158.934 37.543C159.758 37.543 160.398 37.8145 160.855 38.3574C161.312 38.9004 161.541 39.6777 161.541 40.6895V41.1406H157.246C157.262 41.7656 157.443 42.2715 157.791 42.6582C158.143 43.041 158.588 43.2324 159.127 43.2324C159.51 43.2324 159.834 43.1543 160.1 42.998C160.365 42.8418 160.598 42.6348 160.797 42.377L161.459 42.8926C160.928 43.709 160.131 44.1172 159.068 44.1172ZM158.934 38.4336C158.496 38.4336 158.129 38.5938 157.832 38.9141C157.535 39.2305 157.352 39.6758 157.281 40.25H160.457V40.168C160.426 39.6172 160.277 39.1914 160.012 38.8906C159.746 38.5859 159.387 38.4336 158.934 38.4336ZM165.865 38.6328C165.701 38.6055 165.523 38.5918 165.332 38.5918C164.621 38.5918 164.139 38.8945 163.885 39.5V44H162.801V37.6602H163.855L163.873 38.3926C164.229 37.8262 164.732 37.543 165.385 37.543C165.596 37.543 165.756 37.5703 165.865 37.625V38.6328ZM170.559 42.3184C170.559 42.0254 170.447 41.7988 170.225 41.6387C170.006 41.4746 169.621 41.334 169.07 41.2168C168.523 41.0996 168.088 40.959 167.764 40.7949C167.443 40.6309 167.205 40.4355 167.049 40.209C166.896 39.9824 166.82 39.7129 166.82 39.4004C166.82 38.8809 167.039 38.4414 167.477 38.082C167.918 37.7227 168.48 37.543 169.164 37.543C169.883 37.543 170.465 37.7285 170.91 38.0996C171.359 38.4707 171.584 38.9453 171.584 39.5234H170.494C170.494 39.2266 170.367 38.9707 170.113 38.7559C169.863 38.541 169.547 38.4336 169.164 38.4336C168.77 38.4336 168.461 38.5195 168.238 38.6914C168.016 38.8633 167.904 39.0879 167.904 39.3652C167.904 39.627 168.008 39.8242 168.215 39.957C168.422 40.0898 168.795 40.2168 169.334 40.3379C169.877 40.459 170.316 40.6035 170.652 40.7715C170.988 40.9395 171.236 41.1426 171.396 41.3809C171.561 41.6152 171.643 41.9023 171.643 42.2422C171.643 42.8086 171.416 43.2637 170.963 43.6074C170.51 43.9473 169.922 44.1172 169.199 44.1172C168.691 44.1172 168.242 44.0273 167.852 43.8477C167.461 43.668 167.154 43.418 166.932 43.0977C166.713 42.7734 166.604 42.4238 166.604 42.0488H167.688C167.707 42.4121 167.852 42.7012 168.121 42.916C168.395 43.127 168.754 43.2324 169.199 43.2324C169.609 43.2324 169.938 43.1504 170.184 42.9863C170.434 42.8184 170.559 42.5957 170.559 42.3184Z" fill="#6B6B6B"/>
</svg>
