<svg width="241" height="56" viewBox="0 0 241 56" fill="none" xmlns="http://www.w3.org/2000/svg">
<path d="M56 28C56 12.536 43.464 0 28 0C12.536 0 0 12.536 0 28C0 43.464 12.536 56 28 56C43.464 56 56 43.464 56 28Z" fill="#601CFB"/>
<path d="M18.7622 38.0598C17.7274 38.0598 16.9075 37.7574 16.3027 37.1526C15.7114 36.5478 15.4157 35.7414 15.4157 34.7334V31.2861C15.4157 30.735 15.2746 30.3184 14.9923 30.0362C14.7101 29.7405 14.3539 29.5926 13.9238 29.5926V28.0605C14.3539 28.0605 14.7101 27.9194 14.9923 27.6371C15.2746 27.3414 15.4157 26.9181 15.4157 26.367V22.9197C15.4157 21.9117 15.7114 21.1053 16.3027 20.5005C16.9075 19.8957 17.7274 19.5933 18.7622 19.5933H19.2058V21.1254H18.7622C18.2918 21.1254 17.8954 21.2934 17.5728 21.6294C17.2637 21.9654 17.1091 22.4157 17.1091 22.9802V26.4275C17.1091 27.6506 16.6454 28.4368 15.7181 28.7862V28.8669C16.6454 29.1894 17.1091 29.9757 17.1091 31.2256V34.673C17.1091 35.2374 17.2637 35.6877 17.5728 36.0237C17.8954 36.3597 18.2918 36.5277 18.7622 36.5277H19.2058V38.0598H18.7622ZM34.7082 38.0598H34.2647V36.5277H34.7082C35.1786 36.5277 35.5684 36.3597 35.8775 36.0237C36.2001 35.6877 36.3614 35.2374 36.3614 34.673V31.2256C36.3614 29.9757 36.825 29.1894 37.7524 28.8669V28.7862C36.825 28.4368 36.3614 27.6506 36.3614 26.4275V22.9802C36.3614 22.4157 36.2001 21.9654 35.8775 21.6294C35.5684 21.2934 35.1786 21.1254 34.7082 21.1254H34.2647V19.5933H34.7082C35.7431 19.5933 36.5562 19.8957 37.1476 20.5005C37.7524 21.1053 38.0548 21.9117 38.0548 22.9197V26.367C38.0548 26.9181 38.1959 27.3414 38.4782 27.6371C38.7604 27.9194 39.1166 28.0605 39.5466 28.0605V29.5926C39.1166 29.5926 38.7604 29.7405 38.4782 30.0362C38.1959 30.3184 38.0548 30.735 38.0548 31.2861V34.7334C38.0548 35.7414 37.7524 36.5478 37.1476 37.1526C36.5562 37.7574 35.7431 38.0598 34.7082 38.0598Z" fill="white"/>
<path d="M21.7532 36.4874L20.2613 35.8826L26.773 20.1981L28.2649 20.8029L21.7532 36.4874ZM26.7144 36.4874L25.2226 35.8826L31.7344 20.1981L33.2262 20.8029L26.7144 36.4874Z" fill="black"/>
<path d="M92.742 17.762C92.742 19.962 92.0893 21.7147 90.784 23.02C89.3173 24.5747 87.3887 25.352 84.998 25.352C82.71 25.352 80.774 24.56 79.19 22.976C77.606 21.392 76.814 19.4413 76.814 17.124C76.814 14.8067 77.606 12.856 79.19 11.272C80.774 9.688 82.71 8.896 84.998 8.896C86.1567 8.896 87.2493 9.10133 88.276 9.512C89.3027 9.92267 90.146 10.502 90.806 11.25L89.354 12.702C88.87 12.1153 88.2393 11.6607 87.462 11.338C86.6993 11.0007 85.878 10.832 84.998 10.832C83.282 10.832 81.83 11.426 80.642 12.614C79.4687 13.8167 78.882 15.32 78.882 17.124C78.882 18.928 79.4687 20.4313 80.642 21.634C81.83 22.822 83.282 23.416 84.998 23.416C86.5673 23.416 87.8727 22.976 88.914 22.096C89.9553 21.216 90.5567 20.006 90.718 18.466H84.998V16.574H92.632C92.7053 16.9847 92.742 17.3807 92.742 17.762ZM99.5818 25.352C97.9978 25.352 96.6924 24.8093 95.6658 23.724C94.6391 22.6387 94.1258 21.2673 94.1258 19.61C94.1258 17.9673 94.6244 16.6033 95.6218 15.518C96.6191 14.418 97.8951 13.868 99.4498 13.868C101.048 13.868 102.317 14.3887 103.256 15.43C104.209 16.4567 104.686 17.9013 104.686 19.764L104.664 19.984H96.1938C96.2231 21.04 96.5751 21.8907 97.2498 22.536C97.9244 23.1813 98.7311 23.504 99.6698 23.504C100.96 23.504 101.972 22.8587 102.706 21.568L104.51 22.448C104.026 23.3573 103.351 24.0687 102.486 24.582C101.635 25.0953 100.667 25.352 99.5818 25.352ZM96.3478 18.312H102.53C102.471 17.564 102.163 16.948 101.606 16.464C101.063 15.9653 100.33 15.716 99.4058 15.716C98.6431 15.716 97.9831 15.9507 97.4258 16.42C96.8831 16.8893 96.5238 17.52 96.3478 18.312ZM110.482 25.176C109.602 25.176 108.869 24.9047 108.282 24.362C107.71 23.8193 107.417 23.064 107.402 22.096V16.068H105.51V14.22H107.402V10.92H109.426V14.22H112.066V16.068H109.426V21.436C109.426 22.1547 109.566 22.646 109.844 22.91C110.123 23.1593 110.438 23.284 110.79 23.284C110.952 23.284 111.106 23.2693 111.252 23.24C111.414 23.196 111.56 23.1447 111.692 23.086L112.33 24.89C111.802 25.0807 111.186 25.176 110.482 25.176ZM121.202 18.62V25H119.178V9.248H124.546C125.91 9.248 127.068 9.70267 128.022 10.612C128.99 11.5213 129.474 12.6287 129.474 13.934C129.474 15.2687 128.99 16.3833 128.022 17.278C127.083 18.1727 125.924 18.62 124.546 18.62H121.202ZM121.202 11.184V16.684H124.59C125.396 16.684 126.064 16.4127 126.592 15.87C127.134 15.3273 127.406 14.682 127.406 13.934C127.406 13.2007 127.134 12.5627 126.592 12.02C126.064 11.4627 125.396 11.184 124.59 11.184H121.202ZM140.88 14.22L134.126 29.752H132.036L134.544 24.318L130.1 14.22H132.3L135.512 21.964H135.556L138.68 14.22H140.88ZM146.469 25.176C145.589 25.176 144.855 24.9047 144.269 24.362C143.697 23.8193 143.403 23.064 143.389 22.096V16.068H141.497V14.22H143.389V10.92H145.413V14.22H148.053V16.068H145.413V21.436C145.413 22.1547 145.552 22.646 145.831 22.91C146.109 23.1593 146.425 23.284 146.777 23.284C146.938 23.284 147.092 23.2693 147.239 23.24C147.4 23.196 147.547 23.1447 147.679 23.086L148.317 24.89C147.789 25.0807 147.173 25.176 146.469 25.176ZM150.086 9.248H152.11V14.22L152.022 15.716H152.11C152.418 15.188 152.887 14.748 153.518 14.396C154.163 14.044 154.83 13.868 155.52 13.868C156.84 13.868 157.852 14.2493 158.556 15.012C159.274 15.76 159.634 16.8307 159.634 18.224V25H157.61V18.62C157.61 16.684 156.752 15.716 155.036 15.716C154.214 15.716 153.518 16.0607 152.946 16.75C152.388 17.4247 152.11 18.2167 152.11 19.126V25H150.086V9.248ZM161.393 19.61C161.393 17.9527 161.914 16.5813 162.955 15.496C164.011 14.4107 165.339 13.868 166.937 13.868C168.536 13.868 169.856 14.4107 170.897 15.496C171.953 16.5813 172.481 17.9527 172.481 19.61C172.481 21.282 171.953 22.6533 170.897 23.724C169.856 24.8093 168.536 25.352 166.937 25.352C165.339 25.352 164.011 24.8093 162.955 23.724C161.914 22.6387 161.393 21.2673 161.393 19.61ZM163.417 19.61C163.417 20.7687 163.755 21.7073 164.429 22.426C165.104 23.1447 165.94 23.504 166.937 23.504C167.935 23.504 168.771 23.1447 169.445 22.426C170.12 21.7073 170.457 20.7687 170.457 19.61C170.457 18.466 170.12 17.5347 169.445 16.816C168.756 16.0827 167.92 15.716 166.937 15.716C165.955 15.716 165.119 16.0827 164.429 16.816C163.755 17.5347 163.417 18.466 163.417 19.61ZM174.105 14.22H176.041V15.716H176.129C176.437 15.188 176.906 14.748 177.537 14.396C178.182 14.044 178.85 13.868 179.539 13.868C180.859 13.868 181.871 14.2493 182.575 15.012C183.294 15.76 183.653 16.8307 183.653 18.224V25H181.629V18.356C181.585 16.596 180.698 15.716 178.967 15.716C178.16 15.716 177.486 16.046 176.943 16.706C176.4 17.3513 176.129 18.1287 176.129 19.038V25H174.105V14.22ZM198.199 25.352C195.867 25.352 193.917 24.5673 192.347 22.998C190.793 21.4287 190.015 19.4707 190.015 17.124C190.015 14.7773 190.793 12.8267 192.347 11.272C193.902 9.688 195.853 8.896 198.199 8.896C200.575 8.896 202.504 9.754 203.985 11.47L202.533 12.878C201.404 11.514 199.959 10.832 198.199 10.832C196.454 10.832 194.995 11.4187 193.821 12.592C192.663 13.7507 192.083 15.2613 192.083 17.124C192.083 18.9867 192.663 20.4973 193.821 21.656C194.995 22.8293 196.454 23.416 198.199 23.416C200.033 23.416 201.624 22.646 202.973 21.106L204.447 22.536C203.699 23.4307 202.783 24.1273 201.697 24.626C200.612 25.11 199.446 25.352 198.199 25.352ZM205.415 19.61C205.415 17.9527 205.935 16.5813 206.977 15.496C208.033 14.4107 209.36 13.868 210.959 13.868C212.557 13.868 213.877 14.4107 214.919 15.496C215.975 16.5813 216.503 17.9527 216.503 19.61C216.503 21.282 215.975 22.6533 214.919 23.724C213.877 24.8093 212.557 25.352 210.959 25.352C209.36 25.352 208.033 24.8093 206.977 23.724C205.935 22.6387 205.415 21.2673 205.415 19.61ZM207.439 19.61C207.439 20.7687 207.776 21.7073 208.451 22.426C209.125 23.1447 209.961 23.504 210.959 23.504C211.956 23.504 212.792 23.1447 213.467 22.426C214.141 21.7073 214.479 20.7687 214.479 19.61C214.479 18.466 214.141 17.5347 213.467 16.816C212.777 16.0827 211.941 15.716 210.959 15.716C209.976 15.716 209.14 16.0827 208.451 16.816C207.776 17.5347 207.439 18.466 207.439 19.61ZM223.181 23.504C224.179 23.504 224.993 23.1447 225.623 22.426C226.283 21.7073 226.613 20.7687 226.613 19.61C226.613 18.4807 226.283 17.5493 225.623 16.816C224.978 16.0827 224.164 15.716 223.181 15.716C222.213 15.716 221.399 16.0827 220.739 16.816C220.079 17.5493 219.749 18.4807 219.749 19.61C219.749 20.754 220.079 21.6853 220.739 22.404C221.399 23.1373 222.213 23.504 223.181 23.504ZM222.851 25.352C221.443 25.352 220.233 24.7947 219.221 23.68C218.224 22.5507 217.725 21.194 217.725 19.61C217.725 18.026 218.224 16.6693 219.221 15.54C220.233 14.4253 221.443 13.868 222.851 13.868C223.643 13.868 224.362 14.0367 225.007 14.374C225.667 14.7113 226.173 15.1587 226.525 15.716H226.613L226.525 14.22V9.248H228.549V25H226.613V23.504H226.525C226.173 24.0613 225.667 24.5087 225.007 24.846C224.362 25.1833 223.643 25.352 222.851 25.352ZM235.75 25.352C234.166 25.352 232.86 24.8093 231.834 23.724C230.807 22.6387 230.294 21.2673 230.294 19.61C230.294 17.9673 230.792 16.6033 231.79 15.518C232.787 14.418 234.063 13.868 235.618 13.868C237.216 13.868 238.485 14.3887 239.424 15.43C240.377 16.4567 240.854 17.9013 240.854 19.764L240.832 19.984H232.362C232.391 21.04 232.743 21.8907 233.418 22.536C234.092 23.1813 234.899 23.504 235.838 23.504C237.128 23.504 238.14 22.8587 238.874 21.568L240.678 22.448C240.194 23.3573 239.519 24.0687 238.654 24.582C237.803 25.0953 236.835 25.352 235.75 25.352ZM232.516 18.312H238.698C238.639 17.564 238.331 16.948 237.774 16.464C237.231 15.9653 236.498 15.716 235.574 15.716C234.811 15.716 234.151 15.9507 233.594 16.42C233.051 16.8893 232.692 17.52 232.516 18.312Z" fill="black"/>
</svg>
