<svg width="1107" height="528" viewBox="0 0 1107 528" fill="none" xmlns="http://www.w3.org/2000/svg">
<path d="M204.04 73.1V105H193.92V26.24H220.76C227.58 26.24 233.373 28.5133 238.14 33.06C242.98 37.6067 245.4 43.1433 245.4 49.67C245.4 56.3433 242.98 61.9167 238.14 66.39C233.447 70.8633 227.653 73.1 220.76 73.1H204.04ZM204.04 35.92V63.42H220.98C225.013 63.42 228.35 62.0633 230.99 59.35C233.703 56.6367 235.06 53.41 235.06 49.67C235.06 46.0033 233.703 42.8133 230.99 40.1C228.35 37.3133 225.013 35.92 220.98 35.92H204.04ZM264.37 105H254.25V51.1H263.93V59.9H264.37C265.397 57.04 267.487 54.62 270.64 52.64C273.867 50.5867 277.02 49.56 280.1 49.56C283.033 49.56 285.527 50 287.58 50.88L284.5 60.67C283.253 60.1567 281.273 59.9 278.56 59.9C274.747 59.9 271.41 61.44 268.55 64.52C265.763 67.6 264.37 71.1933 264.37 75.3V105ZM287.801 78.05C287.801 69.7633 290.404 62.9067 295.611 57.48C300.891 52.0533 307.527 49.34 315.521 49.34C323.514 49.34 330.114 52.0533 335.321 57.48C340.601 62.9067 343.241 69.7633 343.241 78.05C343.241 86.41 340.601 93.2667 335.321 98.62C330.114 104.047 323.514 106.76 315.521 106.76C307.527 106.76 300.891 104.047 295.611 98.62C290.404 93.1933 287.801 86.3367 287.801 78.05ZM297.921 78.05C297.921 83.8433 299.607 88.5367 302.981 92.13C306.354 95.7233 310.534 97.52 315.521 97.52C320.507 97.52 324.687 95.7233 328.061 92.13C331.434 88.5367 333.121 83.8433 333.121 78.05C333.121 72.33 331.434 67.6733 328.061 64.08C324.614 60.4133 320.434 58.58 315.521 58.58C310.607 58.58 306.427 60.4133 302.981 64.08C299.607 67.6733 297.921 72.33 297.921 78.05ZM376.633 97.52C381.62 97.52 385.69 95.7233 388.843 92.13C392.143 88.5367 393.793 83.8433 393.793 78.05C393.793 72.4033 392.143 67.7467 388.843 64.08C385.617 60.4133 381.547 58.58 376.633 58.58C371.793 58.58 367.723 60.4133 364.423 64.08C361.123 67.7467 359.473 72.4033 359.473 78.05C359.473 83.77 361.123 88.4267 364.423 92.02C367.723 95.6867 371.793 97.52 376.633 97.52ZM376.303 130.52C373.297 130.52 370.473 130.117 367.833 129.31C365.193 128.577 362.773 127.513 360.573 126.12C358.447 124.727 356.613 123.077 355.073 121.17C353.533 119.263 352.36 117.137 351.553 114.79L361.123 110.83C362.223 113.983 364.13 116.513 366.843 118.42C369.557 120.327 372.71 121.28 376.303 121.28C381.803 121.28 386.093 119.63 389.173 116.33C392.253 113.03 393.793 108.483 393.793 102.69V97.52H393.353C391.447 100.38 388.843 102.653 385.543 104.34C382.317 105.953 378.797 106.76 374.983 106.76C367.943 106.76 361.893 104.01 356.833 98.51C351.847 92.8633 349.353 86.0433 349.353 78.05C349.353 70.0567 351.847 63.2733 356.833 57.7C361.893 52.1267 367.943 49.34 374.983 49.34C378.797 49.34 382.317 50.1833 385.543 51.87C388.843 53.4833 391.447 55.72 393.353 58.58H393.793V51.1H403.473V102.69C403.473 111.343 401.017 118.127 396.103 123.04C391.117 128.027 384.517 130.52 376.303 130.52ZM425.932 105H415.812V51.1H425.492V59.9H425.932C426.959 57.04 429.049 54.62 432.202 52.64C435.429 50.5867 438.582 49.56 441.662 49.56C444.596 49.56 447.089 50 449.142 50.88L446.062 60.67C444.816 60.1567 442.836 59.9 440.122 59.9C436.309 59.9 432.972 61.44 430.112 64.52C427.326 67.6 425.932 71.1933 425.932 75.3V105ZM460.995 88.5C460.995 91.14 462.095 93.34 464.295 95.1C466.568 96.86 469.208 97.74 472.215 97.74C476.468 97.74 480.245 96.1633 483.545 93.01C486.918 89.8567 488.605 86.1533 488.605 81.9C485.452 79.4067 481.052 78.16 475.405 78.16C471.298 78.16 467.852 79.15 465.065 81.13C462.352 83.11 460.995 85.5667 460.995 88.5ZM474.085 49.34C481.565 49.34 487.468 51.3567 491.795 55.39C496.122 59.35 498.285 64.8133 498.285 71.78V105H488.605V97.52H488.165C483.985 103.68 478.412 106.76 471.445 106.76C465.505 106.76 460.518 105 456.485 101.48C452.525 97.96 450.545 93.56 450.545 88.28C450.545 82.7067 452.635 78.27 456.815 74.97C461.068 71.67 466.715 70.02 473.755 70.02C479.768 70.02 484.718 71.12 488.605 73.32V71.01C488.605 67.49 487.212 64.52 484.425 62.1C481.638 59.6067 478.375 58.36 474.635 58.36C468.988 58.36 464.515 60.7433 461.215 65.51L452.305 59.9C457.218 52.86 464.478 49.34 474.085 49.34ZM519.819 105H509.699V51.1H519.379V58.58H519.819C521.359 55.94 523.706 53.74 526.859 51.98C530.086 50.22 533.276 49.34 536.429 49.34C540.389 49.34 543.872 50.2567 546.879 52.09C549.886 53.9233 552.086 56.4533 553.479 59.68C557.952 52.7867 564.149 49.34 572.069 49.34C578.302 49.34 583.106 51.2467 586.479 55.06C589.852 58.8733 591.539 64.3 591.539 71.34V105H581.419V72.88C581.419 67.82 580.502 64.19 578.669 61.99C576.836 59.7167 573.756 58.58 569.429 58.58C565.542 58.58 562.279 60.23 559.639 63.53C556.999 66.83 555.679 70.7167 555.679 75.19V105H545.559V72.88C545.559 67.82 544.642 64.19 542.809 61.99C540.976 59.7167 537.896 58.58 533.569 58.58C529.682 58.58 526.419 60.23 523.779 63.53C521.139 66.83 519.819 70.7167 519.819 75.19V105ZM613.491 105H603.371V51.1H613.051V58.58H613.491C615.031 55.94 617.378 53.74 620.531 51.98C623.758 50.22 626.948 49.34 630.101 49.34C634.061 49.34 637.544 50.2567 640.551 52.09C643.558 53.9233 645.758 56.4533 647.151 59.68C651.624 52.7867 657.821 49.34 665.741 49.34C671.974 49.34 676.778 51.2467 680.151 55.06C683.524 58.8733 685.211 64.3 685.211 71.34V105H675.091V72.88C675.091 67.82 674.174 64.19 672.341 61.99C670.508 59.7167 667.428 58.58 663.101 58.58C659.214 58.58 655.951 60.23 653.311 63.53C650.671 66.83 649.351 70.7167 649.351 75.19V105H639.231V72.88C639.231 67.82 638.314 64.19 636.481 61.99C634.648 59.7167 631.568 58.58 627.241 58.58C623.354 58.58 620.091 60.23 617.451 63.53C614.811 66.83 613.491 70.7167 613.491 75.19V105ZM710.133 32.51C710.133 34.49 709.436 36.1767 708.043 37.57C706.649 38.9633 704.963 39.66 702.983 39.66C701.003 39.66 699.316 38.9633 697.923 37.57C696.529 36.1767 695.833 34.49 695.833 32.51C695.833 30.53 696.529 28.8433 697.923 27.45C699.316 26.0567 701.003 25.36 702.983 25.36C704.963 25.36 706.649 26.0567 708.043 27.45C709.436 28.8433 710.133 30.53 710.133 32.51ZM708.043 51.1V105H697.923V51.1H708.043ZM721.213 51.1H730.893V58.58H731.333C732.873 55.94 735.219 53.74 738.373 51.98C741.599 50.22 744.936 49.34 748.383 49.34C754.983 49.34 760.043 51.2467 763.563 55.06C767.156 58.8 768.953 64.1533 768.953 71.12V105H758.833V71.78C758.613 62.98 754.176 58.58 745.523 58.58C741.489 58.58 738.116 60.23 735.403 63.53C732.689 66.7567 731.333 70.6433 731.333 75.19V105H721.213V51.1ZM804.495 97.52C809.481 97.52 813.551 95.7233 816.705 92.13C820.005 88.5367 821.655 83.8433 821.655 78.05C821.655 72.4033 820.005 67.7467 816.705 64.08C813.478 60.4133 809.408 58.58 804.495 58.58C799.655 58.58 795.585 60.4133 792.285 64.08C788.985 67.7467 787.335 72.4033 787.335 78.05C787.335 83.77 788.985 88.4267 792.285 92.02C795.585 95.6867 799.655 97.52 804.495 97.52ZM804.165 130.52C801.158 130.52 798.335 130.117 795.695 129.31C793.055 128.577 790.635 127.513 788.435 126.12C786.308 124.727 784.475 123.077 782.935 121.17C781.395 119.263 780.221 117.137 779.415 114.79L788.985 110.83C790.085 113.983 791.991 116.513 794.705 118.42C797.418 120.327 800.571 121.28 804.165 121.28C809.665 121.28 813.955 119.63 817.035 116.33C820.115 113.03 821.655 108.483 821.655 102.69V97.52H821.215C819.308 100.38 816.705 102.653 813.405 104.34C810.178 105.953 806.658 106.76 802.845 106.76C795.805 106.76 789.755 104.01 784.695 98.51C779.708 92.8633 777.215 86.0433 777.215 78.05C777.215 70.0567 779.708 63.2733 784.695 57.7C789.755 52.1267 795.805 49.34 802.845 49.34C806.658 49.34 810.178 50.1833 813.405 51.87C816.705 53.4833 819.308 55.72 821.215 58.58H821.655V51.1H831.335V102.69C831.335 111.343 828.878 118.127 823.965 123.04C818.978 128.027 812.378 130.52 804.165 130.52ZM847.084 117.32L842.354 114.24L848.294 105C846.754 104.707 845.434 103.937 844.334 102.69C843.307 101.443 842.794 99.94 842.794 98.18C842.794 96.0533 843.527 94.2933 844.994 92.9C846.46 91.4333 848.22 90.7 850.274 90.7C852.4 90.7 854.16 91.4333 855.554 92.9C857.02 94.2933 857.754 96.0533 857.754 98.18C857.754 100.16 857.02 102.323 855.554 104.67L847.084 117.32ZM895.17 105V26.24H919.26C931.287 26.24 940.93 29.87 948.19 37.13C955.523 44.39 959.19 53.8867 959.19 65.62C959.19 77.4267 955.523 86.96 948.19 94.22C940.93 101.407 931.287 105 919.26 105H895.17ZM905.29 35.92V95.32H919.26C928.427 95.32 935.65 92.7167 940.93 87.51C946.21 82.23 948.85 74.9333 948.85 65.62C948.85 56.38 946.21 49.12 940.93 43.84C935.65 38.56 928.427 35.92 919.26 35.92H905.29ZM976.835 88.5C976.835 91.14 977.935 93.34 980.135 95.1C982.408 96.86 985.048 97.74 988.055 97.74C992.308 97.74 996.085 96.1633 999.385 93.01C1002.76 89.8567 1004.44 86.1533 1004.44 81.9C1001.29 79.4067 996.891 78.16 991.245 78.16C987.138 78.16 983.691 79.15 980.905 81.13C978.191 83.11 976.835 85.5667 976.835 88.5ZM989.925 49.34C997.405 49.34 1003.31 51.3567 1007.63 55.39C1011.96 59.35 1014.12 64.8133 1014.12 71.78V105H1004.44V97.52H1004C999.825 103.68 994.251 106.76 987.285 106.76C981.345 106.76 976.358 105 972.325 101.48C968.365 97.96 966.385 93.56 966.385 88.28C966.385 82.7067 968.475 78.27 972.655 74.97C976.908 71.67 982.555 70.02 989.595 70.02C995.608 70.02 1000.56 71.12 1004.44 73.32V71.01C1004.44 67.49 1003.05 64.52 1000.26 62.1C997.478 59.6067 994.215 58.36 990.475 58.36C984.828 58.36 980.355 60.7433 977.055 65.51L968.145 59.9C973.058 52.86 980.318 49.34 989.925 49.34ZM1045.8 105.88C1041.4 105.88 1037.74 104.523 1034.8 101.81C1031.94 99.0967 1030.48 95.32 1030.4 90.48V60.34H1020.94V51.1H1030.4V34.6H1040.52V51.1H1053.72V60.34H1040.52V87.18C1040.52 90.7733 1041.22 93.23 1042.61 94.55C1044.01 95.7967 1045.58 96.42 1047.34 96.42C1048.15 96.42 1048.92 96.3467 1049.65 96.2C1050.46 95.98 1051.19 95.7233 1051.85 95.43L1055.04 104.45C1052.4 105.403 1049.32 105.88 1045.8 105.88ZM1069.65 88.5C1069.65 91.14 1070.75 93.34 1072.95 95.1C1075.22 96.86 1077.86 97.74 1080.87 97.74C1085.12 97.74 1088.9 96.1633 1092.2 93.01C1095.57 89.8567 1097.26 86.1533 1097.26 81.9C1094.1 79.4067 1089.7 78.16 1084.06 78.16C1079.95 78.16 1076.5 79.15 1073.72 81.13C1071 83.11 1069.65 85.5667 1069.65 88.5ZM1082.74 49.34C1090.22 49.34 1096.12 51.3567 1100.45 55.39C1104.77 59.35 1106.94 64.8133 1106.94 71.78V105H1097.26V97.52H1096.82C1092.64 103.68 1087.06 106.76 1080.1 106.76C1074.16 106.76 1069.17 105 1065.14 101.48C1061.18 97.96 1059.2 93.56 1059.2 88.28C1059.2 82.7067 1061.29 78.27 1065.47 74.97C1069.72 71.67 1075.37 70.02 1082.41 70.02C1088.42 70.02 1093.37 71.12 1097.26 73.32V71.01C1097.26 67.49 1095.86 64.52 1093.08 62.1C1090.29 59.6067 1087.03 58.36 1083.29 58.36C1077.64 58.36 1073.17 60.7433 1069.87 65.51L1060.96 59.9C1065.87 52.86 1073.13 49.34 1082.74 49.34ZM242.54 216.99C242.54 223.883 240.01 229.42 234.95 233.6C229.817 237.707 223.583 239.76 216.25 239.76C209.723 239.76 203.967 237.853 198.98 234.04C193.993 230.227 190.547 225.02 188.64 218.42L198.32 214.46C198.98 216.807 199.897 218.933 201.07 220.84C202.243 222.747 203.6 224.397 205.14 225.79C206.753 227.11 208.513 228.173 210.42 228.98C212.327 229.713 214.343 230.08 216.47 230.08C221.09 230.08 224.867 228.907 227.8 226.56C230.733 224.14 232.2 220.95 232.2 216.99C232.2 213.69 230.99 210.867 228.57 208.52C226.297 206.247 222.043 204.047 215.81 201.92C209.503 199.647 205.58 198.107 204.04 197.3C195.68 193.047 191.5 186.777 191.5 178.49C191.5 172.697 193.81 167.747 198.43 163.64C203.123 159.533 208.88 157.48 215.7 157.48C221.713 157.48 226.92 159.02 231.32 162.1C235.72 165.107 238.653 168.883 240.12 173.43L230.66 177.39C229.78 174.457 228.02 172.037 225.38 170.13C222.813 168.15 219.66 167.16 215.92 167.16C211.96 167.16 208.623 168.26 205.91 170.46C203.197 172.513 201.84 175.19 201.84 178.49C201.84 181.203 202.903 183.55 205.03 185.53C207.377 187.51 212.473 189.857 220.32 192.57C228.313 195.283 233.997 198.62 237.37 202.58C240.817 206.467 242.54 211.27 242.54 216.99ZM271.508 238.88C267.108 238.88 263.441 237.523 260.508 234.81C257.648 232.097 256.181 228.32 256.108 223.48V193.34H246.648V184.1H256.108V167.6H266.228V184.1H279.428V193.34H266.228V220.18C266.228 223.773 266.924 226.23 268.318 227.55C269.711 228.797 271.288 229.42 273.048 229.42C273.854 229.42 274.624 229.347 275.358 229.2C276.164 228.98 276.898 228.723 277.558 228.43L280.748 237.45C278.108 238.403 275.028 238.88 271.508 238.88ZM299.175 238H289.055V184.1H298.735V192.9H299.175C300.201 190.04 302.291 187.62 305.445 185.64C308.671 183.587 311.825 182.56 314.905 182.56C317.838 182.56 320.331 183 322.385 183.88L319.305 193.67C318.058 193.157 316.078 192.9 313.365 192.9C309.551 192.9 306.215 194.44 303.355 197.52C300.568 200.6 299.175 204.193 299.175 208.3V238ZM376.315 238H366.635V230.52H366.195C364.655 233.16 362.272 235.36 359.045 237.12C355.892 238.88 352.592 239.76 349.145 239.76C342.545 239.76 337.449 237.89 333.855 234.15C330.335 230.337 328.575 224.947 328.575 217.98V184.1H338.695V217.32C338.915 226.12 343.352 230.52 352.005 230.52C356.039 230.52 359.412 228.907 362.125 225.68C364.839 222.38 366.195 218.457 366.195 213.91V184.1H376.315V238ZM412.738 239.76C404.744 239.76 398.108 237.047 392.828 231.62C387.621 226.047 385.018 219.19 385.018 211.05C385.018 202.763 387.621 195.907 392.828 190.48C398.108 185.053 404.744 182.34 412.738 182.34C418.238 182.34 423.041 183.733 427.148 186.52C431.254 189.233 434.334 193.01 436.388 197.85L427.148 201.7C424.288 194.953 419.264 191.58 412.078 191.58C407.458 191.58 403.461 193.45 400.088 197.19C396.788 200.93 395.138 205.55 395.138 211.05C395.138 216.55 396.788 221.17 400.088 224.91C403.461 228.65 407.458 230.52 412.078 230.52C419.484 230.52 424.691 227.147 427.698 220.4L436.718 224.25C434.738 229.09 431.621 232.903 427.368 235.69C423.188 238.403 418.311 239.76 412.738 239.76ZM466.371 238.88C461.971 238.88 458.304 237.523 455.371 234.81C452.511 232.097 451.044 228.32 450.971 223.48V193.34H441.511V184.1H450.971V167.6H461.091V184.1H474.291V193.34H461.091V220.18C461.091 223.773 461.788 226.23 463.181 227.55C464.574 228.797 466.151 229.42 467.911 229.42C468.718 229.42 469.488 229.347 470.221 229.2C471.028 228.98 471.761 228.723 472.421 228.43L475.611 237.45C472.971 238.403 469.891 238.88 466.371 238.88ZM531.218 238H521.538V230.52H521.098C519.558 233.16 517.174 235.36 513.948 237.12C510.794 238.88 507.494 239.76 504.048 239.76C497.448 239.76 492.351 237.89 488.758 234.15C485.238 230.337 483.478 224.947 483.478 217.98V184.1H493.598V217.32C493.818 226.12 498.254 230.52 506.908 230.52C510.941 230.52 514.314 228.907 517.028 225.68C519.741 222.38 521.098 218.457 521.098 213.91V184.1H531.218V238ZM553.657 238H543.537V184.1H553.217V192.9H553.657C554.684 190.04 556.774 187.62 559.927 185.64C563.154 183.587 566.307 182.56 569.387 182.56C572.32 182.56 574.814 183 576.867 183.88L573.787 193.67C572.54 193.157 570.56 192.9 567.847 192.9C564.034 192.9 560.697 194.44 557.837 197.52C555.05 200.6 553.657 204.193 553.657 208.3V238ZM604.368 239.76C596.448 239.76 589.921 237.047 584.788 231.62C579.654 226.193 577.088 219.337 577.088 211.05C577.088 202.837 579.581 196.017 584.568 190.59C589.554 185.09 595.934 182.34 603.708 182.34C611.701 182.34 618.044 184.943 622.738 190.15C627.504 195.283 629.888 202.507 629.888 211.82L629.778 212.92H587.428C587.574 218.2 589.334 222.453 592.708 225.68C596.081 228.907 600.114 230.52 604.808 230.52C611.261 230.52 616.321 227.293 619.988 220.84L629.008 225.24C626.588 229.787 623.214 233.343 618.888 235.91C614.634 238.477 609.794 239.76 604.368 239.76ZM588.198 204.56H619.108C618.814 200.82 617.274 197.74 614.488 195.32C611.774 192.827 608.108 191.58 603.488 191.58C599.674 191.58 596.374 192.753 593.588 195.1C590.874 197.447 589.078 200.6 588.198 204.56ZM680.93 223.04C680.93 227.733 678.876 231.693 674.77 234.92C670.663 238.147 665.493 239.76 659.26 239.76C653.833 239.76 649.066 238.367 644.96 235.58C640.853 232.72 637.92 228.98 636.16 224.36L645.18 220.51C646.5 223.737 648.406 226.267 650.9 228.1C653.466 229.86 656.253 230.74 659.26 230.74C662.486 230.74 665.163 230.043 667.29 228.65C669.49 227.257 670.59 225.607 670.59 223.7C670.59 220.253 667.95 217.723 662.67 216.11L653.43 213.8C642.943 211.16 637.7 206.1 637.7 198.62C637.7 193.707 639.68 189.783 643.64 186.85C647.673 183.843 652.806 182.34 659.04 182.34C663.806 182.34 668.096 183.477 671.91 185.75C675.796 188.023 678.51 191.067 680.05 194.88L671.03 198.62C670.003 196.347 668.316 194.587 665.97 193.34C663.696 192.02 661.13 191.36 658.27 191.36C655.63 191.36 653.246 192.02 651.12 193.34C649.066 194.66 648.04 196.273 648.04 198.18C648.04 201.26 650.936 203.46 656.73 204.78L664.87 206.87C675.576 209.51 680.93 214.9 680.93 223.04ZM740.938 171.67L728.068 207.2H754.248L741.378 171.67H740.938ZM716.958 238H705.738L735.438 159.24H746.878L776.578 238H765.358L757.768 216.66H724.658L716.958 238ZM784.055 184.1H793.735V191.58H794.175C795.715 188.94 798.061 186.74 801.215 184.98C804.441 183.22 807.778 182.34 811.225 182.34C817.825 182.34 822.885 184.247 826.405 188.06C829.998 191.8 831.795 197.153 831.795 204.12V238H821.675V204.78C821.455 195.98 817.018 191.58 808.365 191.58C804.331 191.58 800.958 193.23 798.245 196.53C795.531 199.757 794.175 203.643 794.175 208.19V238H784.055V184.1ZM867.874 230.52C872.86 230.52 876.93 228.723 880.084 225.13C883.384 221.537 885.034 216.843 885.034 211.05C885.034 205.403 883.384 200.747 880.084 197.08C876.857 193.413 872.787 191.58 867.874 191.58C863.034 191.58 858.964 193.413 855.664 197.08C852.364 200.747 850.714 205.403 850.714 211.05C850.714 216.77 852.364 221.427 855.664 225.02C858.964 228.687 863.034 230.52 867.874 230.52ZM866.224 239.76C859.184 239.76 853.134 236.973 848.074 231.4C843.087 225.753 840.594 218.97 840.594 211.05C840.594 203.13 843.087 196.347 848.074 190.7C853.134 185.127 859.184 182.34 866.224 182.34C870.184 182.34 873.777 183.183 877.004 184.87C880.304 186.557 882.834 188.793 884.594 191.58H885.034L884.594 184.1V159.24H894.714V238H885.034V230.52H884.594C882.834 233.307 880.304 235.543 877.004 237.23C873.777 238.917 870.184 239.76 866.224 239.76ZM222.52 304.67L209.65 340.2H235.83L222.96 304.67H222.52ZM198.54 371H187.32L217.02 292.24H228.46L258.16 371H246.94L239.35 349.66H206.24L198.54 371ZM275.757 292.24V371H265.637V292.24H275.757ZM311.751 363.52C316.737 363.52 320.807 361.723 323.961 358.13C327.261 354.537 328.911 349.843 328.911 344.05C328.911 338.403 327.261 333.747 323.961 330.08C320.734 326.413 316.664 324.58 311.751 324.58C306.911 324.58 302.841 326.413 299.541 330.08C296.241 333.747 294.591 338.403 294.591 344.05C294.591 349.77 296.241 354.427 299.541 358.02C302.841 361.687 306.911 363.52 311.751 363.52ZM311.421 396.52C308.414 396.52 305.591 396.117 302.951 395.31C300.311 394.577 297.891 393.513 295.691 392.12C293.564 390.727 291.731 389.077 290.191 387.17C288.651 385.263 287.477 383.137 286.671 380.79L296.241 376.83C297.341 379.983 299.247 382.513 301.961 384.42C304.674 386.327 307.827 387.28 311.421 387.28C316.921 387.28 321.211 385.63 324.291 382.33C327.371 379.03 328.911 374.483 328.911 368.69V363.52H328.471C326.564 366.38 323.961 368.653 320.661 370.34C317.434 371.953 313.914 372.76 310.101 372.76C303.061 372.76 297.011 370.01 291.951 364.51C286.964 358.863 284.471 352.043 284.471 344.05C284.471 336.057 286.964 329.273 291.951 323.7C297.011 318.127 303.061 315.34 310.101 315.34C313.914 315.34 317.434 316.183 320.661 317.87C323.961 319.483 326.564 321.72 328.471 324.58H328.911V317.1H338.591V368.69C338.591 377.343 336.134 384.127 331.221 389.04C326.234 394.027 319.634 396.52 311.421 396.52ZM347.312 344.05C347.312 335.763 349.916 328.907 355.122 323.48C360.402 318.053 367.039 315.34 375.032 315.34C383.026 315.34 389.626 318.053 394.832 323.48C400.112 328.907 402.752 335.763 402.752 344.05C402.752 352.41 400.112 359.267 394.832 364.62C389.626 370.047 383.026 372.76 375.032 372.76C367.039 372.76 360.402 370.047 355.122 364.62C349.916 359.193 347.312 352.337 347.312 344.05ZM357.432 344.05C357.432 349.843 359.119 354.537 362.492 358.13C365.866 361.723 370.046 363.52 375.032 363.52C380.019 363.52 384.199 361.723 387.572 358.13C390.946 354.537 392.632 349.843 392.632 344.05C392.632 338.33 390.946 333.673 387.572 330.08C384.126 326.413 379.946 324.58 375.032 324.58C370.119 324.58 365.939 326.413 362.492 330.08C359.119 333.673 357.432 338.33 357.432 344.05ZM420.991 371H410.871V317.1H420.551V325.9H420.991C422.018 323.04 424.108 320.62 427.261 318.64C430.488 316.587 433.641 315.56 436.721 315.56C439.654 315.56 442.148 316 444.201 316.88L441.121 326.67C439.874 326.157 437.894 325.9 435.181 325.9C431.368 325.9 428.031 327.44 425.171 330.52C422.384 333.6 420.991 337.193 420.991 341.3V371ZM463.922 298.51C463.922 300.49 463.225 302.177 461.832 303.57C460.439 304.963 458.752 305.66 456.772 305.66C454.792 305.66 453.105 304.963 451.712 303.57C450.319 302.177 449.622 300.49 449.622 298.51C449.622 296.53 450.319 294.843 451.712 293.45C453.105 292.057 454.792 291.36 456.772 291.36C458.752 291.36 460.439 292.057 461.832 293.45C463.225 294.843 463.922 296.53 463.922 298.51ZM461.832 317.1V371H451.712V317.1H461.832ZM495.805 371.88C491.405 371.88 487.738 370.523 484.805 367.81C481.945 365.097 480.478 361.32 480.405 356.48V326.34H470.945V317.1H480.405V300.6H490.525V317.1H503.725V326.34H490.525V353.18C490.525 356.773 491.221 359.23 492.615 360.55C494.008 361.797 495.585 362.42 497.345 362.42C498.151 362.42 498.921 362.347 499.655 362.2C500.461 361.98 501.195 361.723 501.855 361.43L505.045 370.45C502.405 371.403 499.325 371.88 495.805 371.88ZM513.889 292.24H524.009V317.1L523.569 324.58H524.009C525.549 321.94 527.895 319.74 531.049 317.98C534.275 316.22 537.612 315.34 541.059 315.34C547.659 315.34 552.719 317.247 556.239 321.06C559.832 324.8 561.629 330.153 561.629 337.12V371H551.509V339.1C551.509 329.42 547.219 324.58 538.639 324.58C534.532 324.58 531.049 326.303 528.189 329.75C525.402 333.123 524.009 337.083 524.009 341.63V371H513.889V292.24ZM583.628 371H573.508V317.1H583.188V324.58H583.628C585.168 321.94 587.514 319.74 590.668 317.98C593.894 316.22 597.084 315.34 600.238 315.34C604.198 315.34 607.681 316.257 610.688 318.09C613.694 319.923 615.894 322.453 617.288 325.68C621.761 318.787 627.958 315.34 635.878 315.34C642.111 315.34 646.914 317.247 650.288 321.06C653.661 324.873 655.348 330.3 655.348 337.34V371H645.228V338.88C645.228 333.82 644.311 330.19 642.478 327.99C640.644 325.717 637.564 324.58 633.238 324.58C629.351 324.58 626.088 326.23 623.448 329.53C620.808 332.83 619.488 336.717 619.488 341.19V371H609.368V338.88C609.368 333.82 608.451 330.19 606.618 327.99C604.784 325.717 601.704 324.58 597.378 324.58C593.491 324.58 590.228 326.23 587.588 329.53C584.948 332.83 583.628 336.717 583.628 341.19V371ZM707.892 356.04C707.892 360.733 705.839 364.693 701.732 367.92C697.626 371.147 692.456 372.76 686.222 372.76C680.796 372.76 676.029 371.367 671.922 368.58C667.816 365.72 664.882 361.98 663.122 357.36L672.142 353.51C673.462 356.737 675.369 359.267 677.862 361.1C680.429 362.86 683.216 363.74 686.222 363.74C689.449 363.74 692.126 363.043 694.252 361.65C696.452 360.257 697.552 358.607 697.552 356.7C697.552 353.253 694.912 350.723 689.632 349.11L680.392 346.8C669.906 344.16 664.662 339.1 664.662 331.62C664.662 326.707 666.642 322.783 670.602 319.85C674.636 316.843 679.769 315.34 686.002 315.34C690.769 315.34 695.059 316.477 698.872 318.75C702.759 321.023 705.472 324.067 707.012 327.88L697.992 331.62C696.966 329.347 695.279 327.587 692.932 326.34C690.659 325.02 688.092 324.36 685.232 324.36C682.592 324.36 680.209 325.02 678.082 326.34C676.029 327.66 675.002 329.273 675.002 331.18C675.002 334.26 677.899 336.46 683.692 337.78L691.832 339.87C702.539 342.51 707.892 347.9 707.892 356.04ZM767.873 372.76C759.146 372.76 752.106 369.9 746.753 364.18C741.399 358.533 738.723 351.053 738.723 341.74V292.24H748.843V342.18C748.843 348.633 750.529 353.73 753.903 357.47C757.276 361.21 761.933 363.08 767.873 363.08C773.813 363.08 778.469 361.21 781.843 357.47C785.216 353.73 786.903 348.633 786.903 342.18V292.24H797.023V341.74C797.023 351.273 794.383 358.827 789.102 364.4C783.823 369.973 776.746 372.76 767.873 372.76ZM850.549 356.04C850.549 360.733 848.495 364.693 844.389 367.92C840.282 371.147 835.112 372.76 828.879 372.76C823.452 372.76 818.685 371.367 814.579 368.58C810.472 365.72 807.539 361.98 805.779 357.36L814.799 353.51C816.119 356.737 818.025 359.267 820.519 361.1C823.085 362.86 825.872 363.74 828.879 363.74C832.105 363.74 834.782 363.043 836.909 361.65C839.109 360.257 840.209 358.607 840.209 356.7C840.209 353.253 837.569 350.723 832.289 349.11L823.049 346.8C812.562 344.16 807.319 339.1 807.319 331.62C807.319 326.707 809.299 322.783 813.259 319.85C817.292 316.843 822.425 315.34 828.659 315.34C833.425 315.34 837.715 316.477 841.529 318.75C845.415 321.023 848.129 324.067 849.669 327.88L840.649 331.62C839.622 329.347 837.935 327.587 835.589 326.34C833.315 325.02 830.749 324.36 827.889 324.36C825.249 324.36 822.865 325.02 820.739 326.34C818.685 327.66 817.659 329.273 817.659 331.18C817.659 334.26 820.555 336.46 826.349 337.78L834.489 339.87C845.195 342.51 850.549 347.9 850.549 356.04ZM871.91 298.51C871.91 300.49 871.213 302.177 869.82 303.57C868.427 304.963 866.74 305.66 864.76 305.66C862.78 305.66 861.093 304.963 859.7 303.57C858.307 302.177 857.61 300.49 857.61 298.51C857.61 296.53 858.307 294.843 859.7 293.45C861.093 292.057 862.78 291.36 864.76 291.36C866.74 291.36 868.427 292.057 869.82 293.45C871.213 294.843 871.91 296.53 871.91 298.51ZM869.82 317.1V371H859.7V317.1H869.82ZM882.99 317.1H892.67V324.58H893.11C894.65 321.94 896.997 319.74 900.15 317.98C903.377 316.22 906.713 315.34 910.16 315.34C916.76 315.34 921.82 317.247 925.34 321.06C928.933 324.8 930.73 330.153 930.73 337.12V371H920.61V337.78C920.39 328.98 915.953 324.58 907.3 324.58C903.267 324.58 899.893 326.23 897.18 329.53C894.467 332.757 893.11 336.643 893.11 341.19V371H882.99V317.1ZM966.272 363.52C971.259 363.52 975.329 361.723 978.482 358.13C981.782 354.537 983.432 349.843 983.432 344.05C983.432 338.403 981.782 333.747 978.482 330.08C975.255 326.413 971.185 324.58 966.272 324.58C961.432 324.58 957.362 326.413 954.062 330.08C950.762 333.747 949.112 338.403 949.112 344.05C949.112 349.77 950.762 354.427 954.062 358.02C957.362 361.687 961.432 363.52 966.272 363.52ZM965.942 396.52C962.935 396.52 960.112 396.117 957.472 395.31C954.832 394.577 952.412 393.513 950.212 392.12C948.085 390.727 946.252 389.077 944.712 387.17C943.172 385.263 941.999 383.137 941.192 380.79L950.762 376.83C951.862 379.983 953.769 382.513 956.482 384.42C959.195 386.327 962.349 387.28 965.942 387.28C971.442 387.28 975.732 385.63 978.812 382.33C981.892 379.03 983.432 374.483 983.432 368.69V363.52H982.992C981.085 366.38 978.482 368.653 975.182 370.34C971.955 371.953 968.435 372.76 964.622 372.76C957.582 372.76 951.532 370.01 946.472 364.51C941.485 358.863 938.992 352.043 938.992 344.05C938.992 336.057 941.485 329.273 946.472 323.7C951.532 318.127 957.582 315.34 964.622 315.34C968.435 315.34 971.955 316.183 975.182 317.87C978.482 319.483 981.085 321.72 982.992 324.58H983.432V317.1H993.112V368.69C993.112 377.343 990.655 384.127 985.742 389.04C980.755 394.027 974.155 396.52 965.942 396.52ZM204.04 472.1V504H193.92V425.24H220.76C227.58 425.24 233.373 427.513 238.14 432.06C242.98 436.607 245.4 442.143 245.4 448.67C245.4 455.343 242.98 460.917 238.14 465.39C233.447 469.863 227.653 472.1 220.76 472.1H204.04ZM204.04 434.92V462.42H220.98C225.013 462.42 228.35 461.063 230.99 458.35C233.703 455.637 235.06 452.41 235.06 448.67C235.06 445.003 233.703 441.813 230.99 439.1C228.35 436.313 225.013 434.92 220.98 434.92H204.04ZM302.43 450.1L268.66 527.76H258.21L270.75 500.59L248.53 450.1H259.53L275.59 488.82H275.81L291.43 450.1H302.43ZM330.375 504.88C325.975 504.88 322.308 503.523 319.375 500.81C316.515 498.097 315.048 494.32 314.975 489.48V459.34H305.515V450.1H314.975V433.6H325.095V450.1H338.295V459.34H325.095V486.18C325.095 489.773 325.792 492.23 327.185 493.55C328.578 494.797 330.155 495.42 331.915 495.42C332.722 495.42 333.492 495.347 334.225 495.2C335.032 494.98 335.765 494.723 336.425 494.43L339.615 503.45C336.975 504.403 333.895 504.88 330.375 504.88ZM348.459 425.24H358.579V450.1L358.139 457.58H358.579C360.119 454.94 362.465 452.74 365.619 450.98C368.845 449.22 372.182 448.34 375.629 448.34C382.229 448.34 387.289 450.247 390.809 454.06C394.402 457.8 396.199 463.153 396.199 470.12V504H386.079V472.1C386.079 462.42 381.789 457.58 373.209 457.58C369.102 457.58 365.619 459.303 362.759 462.75C359.972 466.123 358.579 470.083 358.579 474.63V504H348.459V425.24ZM404.998 477.05C404.998 468.763 407.601 461.907 412.808 456.48C418.088 451.053 424.725 448.34 432.718 448.34C440.711 448.34 447.311 451.053 452.518 456.48C457.798 461.907 460.438 468.763 460.438 477.05C460.438 485.41 457.798 492.267 452.518 497.62C447.311 503.047 440.711 505.76 432.718 505.76C424.725 505.76 418.088 503.047 412.808 497.62C407.601 492.193 404.998 485.337 404.998 477.05ZM415.118 477.05C415.118 482.843 416.805 487.537 420.178 491.13C423.551 494.723 427.731 496.52 432.718 496.52C437.705 496.52 441.885 494.723 445.258 491.13C448.631 487.537 450.318 482.843 450.318 477.05C450.318 471.33 448.631 466.673 445.258 463.08C441.811 459.413 437.631 457.58 432.718 457.58C427.805 457.58 423.625 459.413 420.178 463.08C416.805 466.673 415.118 471.33 415.118 477.05ZM468.556 450.1H478.236V457.58H478.676C480.216 454.94 482.563 452.74 485.716 450.98C488.943 449.22 492.28 448.34 495.726 448.34C502.326 448.34 507.386 450.247 510.906 454.06C514.5 457.8 516.296 463.153 516.296 470.12V504H506.176V470.78C505.956 461.98 501.52 457.58 492.866 457.58C488.833 457.58 485.46 459.23 482.746 462.53C480.033 465.757 478.676 469.643 478.676 474.19V504H468.556V450.1Z" fill="#000"/>
<circle cx="70" cy="70" r="70" fill="#6400EE"/>
<path d="M96.01 87.66C96.01 94.26 93.5533 99.76 88.64 104.16C83.8 108.56 77.7867 110.76 70.6 110.76C64.9533 110.76 59.8567 109.073 55.31 105.7C50.69 102.18 47.5733 97.5967 45.96 91.95L55.2 88.1C56.3733 92.28 58.28 95.5067 60.92 97.78C63.6333 99.98 66.86 101.08 70.6 101.08C74.7067 101.08 78.2633 99.7967 81.27 97.23C84.2033 94.59 85.67 91.4 85.67 87.66C85.67 83.92 84.13 80.7667 81.05 78.2C78.0433 75.6333 74.4133 74.35 70.16 74.35H63.67V64.89H69.39C73.4233 64.89 76.7233 63.79 79.29 61.59C81.8567 59.3167 83.14 56.3833 83.14 52.79C83.14 49.49 81.93 46.8133 79.51 44.76C77.09 42.7067 73.9 41.68 69.94 41.68C63.56 41.68 59.1967 44.9433 56.85 51.47L47.5 47.51C49.1867 42.89 52.01 39.15 55.97 36.29C59.93 33.43 64.5867 32 69.94 32C76.6133 32 82.2233 33.98 86.77 37.94C91.2433 41.7533 93.48 46.7033 93.48 52.79C93.48 60.05 90.1067 65.44 83.36 68.96V69.4C87.32 71.0867 90.4 73.5433 92.6 76.77C94.8733 79.9967 96.01 83.6267 96.01 87.66Z" fill="white"/>
</svg>
