<svg width="1166" height="239" viewBox="0 0 1166 239" fill="none" xmlns="http://www.w3.org/2000/svg">
<path d="M88.1 1.24H98.66L77.65 80H67.31L50.37 28.08H49.93L32.99 80H22.65L0.76 1.24H11.32L27.93 63.17H28.37L45.42 11.8H54.88L71.93 63.17H72.37L88.1 1.24ZM124.751 81.76C116.831 81.76 110.304 79.0467 105.171 73.62C100.037 68.1933 97.4706 61.3367 97.4706 53.05C97.4706 44.8367 99.964 38.0167 104.951 32.59C109.937 27.09 116.317 24.34 124.091 24.34C132.084 24.34 138.427 26.9433 143.121 32.15C147.887 37.2833 150.271 44.5067 150.271 53.82L150.161 54.92H107.811C107.957 60.2 109.717 64.4533 113.091 67.68C116.464 70.9067 120.497 72.52 125.191 72.52C131.644 72.52 136.704 69.2933 140.371 62.84L149.391 67.24C146.971 71.7867 143.597 75.3433 139.271 77.91C135.017 80.4767 130.177 81.76 124.751 81.76ZM108.581 46.56H139.491C139.197 42.82 137.657 39.74 134.871 37.32C132.157 34.8267 128.491 33.58 123.871 33.58C120.057 33.58 116.757 34.7533 113.971 37.1C111.257 39.4467 109.461 42.6 108.581 46.56ZM210.095 72.52C214.935 72.52 219.005 70.6867 222.305 67.02C225.605 63.4267 227.255 58.77 227.255 53.05C227.255 47.4033 225.605 42.7467 222.305 39.08C219.005 35.4133 214.935 33.58 210.095 33.58C205.182 33.58 201.075 35.4133 197.775 39.08C194.548 42.7467 192.935 47.4033 192.935 53.05C192.935 58.77 194.548 63.4633 197.775 67.13C201.075 70.7233 205.182 72.52 210.095 72.52ZM211.745 81.76C207.785 81.76 204.155 80.9167 200.855 79.23C197.628 77.5433 195.135 75.3067 193.375 72.52H192.935L193.375 80V103.76H183.255V26.1H192.935V33.58H193.375C195.135 30.7933 197.628 28.5567 200.855 26.87C204.155 25.1833 207.785 24.34 211.745 24.34C218.858 24.34 224.872 27.1267 229.785 32.7C234.845 38.3467 237.375 45.13 237.375 53.05C237.375 61.0433 234.845 67.8267 229.785 73.4C224.872 78.9733 218.858 81.76 211.745 81.76ZM256.227 80H246.107V26.1H255.787V34.9H256.227C257.254 32.04 259.344 29.62 262.497 27.64C265.724 25.5867 268.877 24.56 271.957 24.56C274.891 24.56 277.384 25 279.437 25.88L276.357 35.67C275.111 35.1567 273.131 34.9 270.417 34.9C266.604 34.9 263.267 36.44 260.407 39.52C257.621 42.6 256.227 46.1933 256.227 50.3V80ZM279.658 53.05C279.658 44.7633 282.261 37.9067 287.468 32.48C292.748 27.0533 299.385 24.34 307.378 24.34C315.371 24.34 321.971 27.0533 327.178 32.48C332.458 37.9067 335.098 44.7633 335.098 53.05C335.098 61.41 332.458 68.2667 327.178 73.62C321.971 79.0467 315.371 81.76 307.378 81.76C299.385 81.76 292.748 79.0467 287.468 73.62C282.261 68.1933 279.658 61.3367 279.658 53.05ZM289.778 53.05C289.778 58.8433 291.465 63.5367 294.838 67.13C298.211 70.7233 302.391 72.52 307.378 72.52C312.365 72.52 316.545 70.7233 319.918 67.13C323.291 63.5367 324.978 58.8433 324.978 53.05C324.978 47.33 323.291 42.6733 319.918 39.08C316.471 35.4133 312.291 33.58 307.378 33.58C302.465 33.58 298.285 35.4133 294.838 39.08C291.465 42.6733 289.778 47.33 289.778 53.05ZM369.397 80H359.277L337.497 26.1H348.497L364.337 67.9H364.557L380.617 26.1H391.397L369.397 80ZM411.092 7.51C411.092 9.49 410.395 11.1767 409.002 12.57C407.608 13.9633 405.922 14.66 403.942 14.66C401.962 14.66 400.275 13.9633 398.882 12.57C397.488 11.1767 396.792 9.49 396.792 7.51C396.792 5.52999 397.488 3.84333 398.882 2.45C400.275 1.05666 401.962 0.359996 403.942 0.359996C405.922 0.359996 407.608 1.05666 409.002 2.45C410.395 3.84333 411.092 5.52999 411.092 7.51ZM409.002 26.1V80H398.882V26.1H409.002ZM445.835 72.52C450.821 72.52 454.891 70.7233 458.045 67.13C461.345 63.5367 462.995 58.8433 462.995 53.05C462.995 47.4033 461.345 42.7467 458.045 39.08C454.818 35.4133 450.748 33.58 445.835 33.58C440.995 33.58 436.925 35.4133 433.625 39.08C430.325 42.7467 428.675 47.4033 428.675 53.05C428.675 58.77 430.325 63.4267 433.625 67.02C436.925 70.6867 440.995 72.52 445.835 72.52ZM444.185 81.76C437.145 81.76 431.095 78.9733 426.035 73.4C421.048 67.7533 418.555 60.97 418.555 53.05C418.555 45.13 421.048 38.3467 426.035 32.7C431.095 27.1267 437.145 24.34 444.185 24.34C448.145 24.34 451.738 25.1833 454.965 26.87C458.265 28.5567 460.795 30.7933 462.555 33.58H462.995L462.555 26.1V1.24H472.675V80H462.995V72.52H462.555C460.795 75.3067 458.265 77.5433 454.965 79.23C451.738 80.9167 448.145 81.76 444.185 81.76ZM508.676 81.76C500.756 81.76 494.23 79.0467 489.096 73.62C483.963 68.1933 481.396 61.3367 481.396 53.05C481.396 44.8367 483.89 38.0167 488.876 32.59C493.863 27.09 500.243 24.34 508.016 24.34C516.01 24.34 522.353 26.9433 527.046 32.15C531.813 37.2833 534.196 44.5067 534.196 53.82L534.086 54.92H491.736C491.883 60.2 493.643 64.4533 497.016 67.68C500.39 70.9067 504.423 72.52 509.116 72.52C515.57 72.52 520.63 69.2933 524.296 62.84L533.316 67.24C530.896 71.7867 527.523 75.3433 523.196 77.91C518.943 80.4767 514.103 81.76 508.676 81.76ZM492.506 46.56H523.416C523.123 42.82 521.583 39.74 518.796 37.32C516.083 34.8267 512.416 33.58 507.796 33.58C503.983 33.58 500.683 34.7533 497.896 37.1C495.183 39.4467 493.386 42.6 492.506 46.56ZM574.991 63.5C574.991 66.14 576.091 68.34 578.291 70.1C580.564 71.86 583.204 72.74 586.211 72.74C590.464 72.74 594.241 71.1633 597.541 68.01C600.914 64.8567 602.601 61.1533 602.601 56.9C599.448 54.4067 595.048 53.16 589.401 53.16C585.294 53.16 581.848 54.15 579.061 56.13C576.348 58.11 574.991 60.5667 574.991 63.5ZM588.081 24.34C595.561 24.34 601.464 26.3567 605.791 30.39C610.118 34.35 612.281 39.8133 612.281 46.78V80H602.601V72.52H602.161C597.981 78.68 592.408 81.76 585.441 81.76C579.501 81.76 574.514 80 570.481 76.48C566.521 72.96 564.541 68.56 564.541 63.28C564.541 57.7067 566.631 53.27 570.811 49.97C575.064 46.67 580.711 45.02 587.751 45.02C593.764 45.02 598.714 46.12 602.601 48.32V46.01C602.601 42.49 601.208 39.52 598.421 37.1C595.634 34.6067 592.371 33.36 588.631 33.36C582.984 33.36 578.511 35.7433 575.211 40.51L566.301 34.9C571.214 27.86 578.474 24.34 588.081 24.34ZM623.695 26.1H633.375V33.58H633.815C635.355 30.94 637.702 28.74 640.855 26.98C644.082 25.22 647.418 24.34 650.865 24.34C657.465 24.34 662.525 26.2467 666.045 30.06C669.638 33.8 671.435 39.1533 671.435 46.12V80H661.315V46.78C661.095 37.98 656.658 33.58 648.005 33.58C643.972 33.58 640.598 35.23 637.885 38.53C635.172 41.7567 633.815 45.6433 633.815 50.19V80H623.695V26.1ZM724.027 65.04C724.027 69.7333 721.974 73.6933 717.867 76.92C713.761 80.1467 708.591 81.76 702.357 81.76C696.931 81.76 692.164 80.3667 688.057 77.58C683.951 74.72 681.017 70.98 679.257 66.36L688.277 62.51C689.597 65.7367 691.504 68.2667 693.997 70.1C696.564 71.86 699.351 72.74 702.357 72.74C705.584 72.74 708.261 72.0433 710.387 70.65C712.587 69.2567 713.687 67.6067 713.687 65.7C713.687 62.2533 711.047 59.7233 705.767 58.11L696.527 55.8C686.041 53.16 680.797 48.1 680.797 40.62C680.797 35.7067 682.777 31.7833 686.737 28.85C690.771 25.8433 695.904 24.34 702.137 24.34C706.904 24.34 711.194 25.4767 715.007 27.75C718.894 30.0233 721.607 33.0667 723.147 36.88L714.127 40.62C713.101 38.3467 711.414 36.5867 709.067 35.34C706.794 34.02 704.227 33.36 701.367 33.36C698.727 33.36 696.344 34.02 694.217 35.34C692.164 36.66 691.137 38.2733 691.137 40.18C691.137 43.26 694.034 45.46 699.827 46.78L707.967 48.87C718.674 51.51 724.027 56.9 724.027 65.04ZM809.176 26.1L791.796 80H781.456L768.036 38.64L754.726 80H744.496L727.116 26.1H737.676L749.666 66.8H749.776L763.086 26.1H773.536L786.846 66.8H786.956L798.836 26.1H809.176ZM838.891 81.76C830.971 81.76 824.445 79.0467 819.311 73.62C814.178 68.1933 811.611 61.3367 811.611 53.05C811.611 44.8367 814.105 38.0167 819.091 32.59C824.078 27.09 830.458 24.34 838.231 24.34C846.225 24.34 852.568 26.9433 857.261 32.15C862.028 37.2833 864.411 44.5067 864.411 53.82L864.301 54.92H821.951C822.098 60.2 823.858 64.4533 827.231 67.68C830.605 70.9067 834.638 72.52 839.331 72.52C845.785 72.52 850.845 69.2933 854.511 62.84L863.531 67.24C861.111 71.7867 857.738 75.3433 853.411 77.91C849.158 80.4767 844.318 81.76 838.891 81.76ZM822.721 46.56H853.631C853.338 42.82 851.798 39.74 849.011 37.32C846.298 34.8267 842.631 33.58 838.011 33.58C834.198 33.58 830.898 34.7533 828.111 37.1C825.398 39.4467 823.601 42.6 822.721 46.56ZM883.786 80H873.666V26.1H883.346V34.9H883.786C884.813 32.04 886.903 29.62 890.056 27.64C893.283 25.5867 896.436 24.56 899.516 24.56C902.449 24.56 904.943 25 906.996 25.88L903.916 35.67C902.669 35.1567 900.689 34.9 897.976 34.9C894.163 34.9 890.826 36.44 887.966 39.52C885.179 42.6 883.786 46.1933 883.786 50.3V80ZM952.728 65.04C952.728 69.7333 950.675 73.6933 946.568 76.92C942.462 80.1467 937.292 81.76 931.058 81.76C925.632 81.76 920.865 80.3667 916.758 77.58C912.652 74.72 909.718 70.98 907.958 66.36L916.978 62.51C918.298 65.7367 920.205 68.2667 922.698 70.1C925.265 71.86 928.052 72.74 931.058 72.74C934.285 72.74 936.962 72.0433 939.088 70.65C941.288 69.2567 942.388 67.6067 942.388 65.7C942.388 62.2533 939.748 59.7233 934.468 58.11L925.228 55.8C914.742 53.16 909.498 48.1 909.498 40.62C909.498 35.7067 911.478 31.7833 915.438 28.85C919.472 25.8433 924.605 24.34 930.838 24.34C935.605 24.34 939.895 25.4767 943.708 27.75C947.595 30.0233 950.308 33.0667 951.848 36.88L942.828 40.62C941.802 38.3467 940.115 36.5867 937.768 35.34C935.495 34.02 932.928 33.36 930.068 33.36C927.428 33.36 925.045 34.02 922.918 35.34C920.865 36.66 919.838 38.2733 919.838 40.18C919.838 43.26 922.735 45.46 928.528 46.78L936.668 48.87C947.375 51.51 952.728 56.9 952.728 65.04ZM982.627 53.05C982.627 44.7633 985.23 37.9067 990.437 32.48C995.717 27.0533 1002.35 24.34 1010.35 24.34C1018.34 24.34 1024.94 27.0533 1030.15 32.48C1035.43 37.9067 1038.07 44.7633 1038.07 53.05C1038.07 61.41 1035.43 68.2667 1030.15 73.62C1024.94 79.0467 1018.34 81.76 1010.35 81.76C1002.35 81.76 995.717 79.0467 990.437 73.62C985.23 68.1933 982.627 61.3367 982.627 53.05ZM992.747 53.05C992.747 58.8433 994.434 63.5367 997.807 67.13C1001.18 70.7233 1005.36 72.52 1010.35 72.52C1015.33 72.52 1019.51 70.7233 1022.89 67.13C1026.26 63.5367 1027.95 58.8433 1027.95 53.05C1027.95 47.33 1026.26 42.6733 1022.89 39.08C1019.44 35.4133 1015.26 33.58 1010.35 33.58C1005.43 33.58 1001.25 35.4133 997.807 39.08C994.434 42.6733 992.747 47.33 992.747 53.05ZM1070.51 0.359996C1074.17 0.359996 1077.18 0.98333 1079.53 2.23L1076.78 11.14C1075.02 10.26 1073.04 9.82 1070.84 9.82C1068.34 9.82 1066.29 10.7 1064.68 12.46C1063.14 14.1467 1062.37 16.42 1062.37 19.28V26.1H1076.45V35.34H1062.37V80H1052.25V35.34H1042.13V26.1H1052.25V18.29C1052.25 12.9367 1053.93 8.61 1057.31 5.31C1060.75 2.01 1065.15 0.359996 1070.51 0.359996ZM30.02 133.36C33.6867 133.36 36.6933 133.983 39.04 135.23L36.29 144.14C34.53 143.26 32.55 142.82 30.35 142.82C27.8567 142.82 25.8033 143.7 24.19 145.46C22.65 147.147 21.88 149.42 21.88 152.28V159.1H35.96V168.34H21.88V213H11.76V168.34H1.64V159.1H11.76V151.29C11.76 145.937 13.4467 141.61 16.82 138.31C20.2667 135.01 24.6667 133.36 30.02 133.36ZM39.248 186.05C39.248 177.763 41.8513 170.907 47.058 165.48C52.338 160.053 58.9746 157.34 66.968 157.34C74.9613 157.34 81.5613 160.053 86.768 165.48C92.048 170.907 94.688 177.763 94.688 186.05C94.688 194.41 92.048 201.267 86.768 206.62C81.5613 212.047 74.9613 214.76 66.968 214.76C58.9746 214.76 52.338 212.047 47.058 206.62C41.8513 201.193 39.248 194.337 39.248 186.05ZM49.368 186.05C49.368 191.843 51.0546 196.537 54.428 200.13C57.8013 203.723 61.9813 205.52 66.968 205.52C71.9546 205.52 76.1346 203.723 79.508 200.13C82.8813 196.537 84.568 191.843 84.568 186.05C84.568 180.33 82.8813 175.673 79.508 172.08C76.0613 168.413 71.8813 166.58 66.968 166.58C62.0546 166.58 57.8746 168.413 54.428 172.08C51.0546 175.673 49.368 180.33 49.368 186.05ZM113.464 134.24V213H103.344V134.24H113.464ZM135.915 134.24V213H125.795V134.24H135.915ZM144.629 186.05C144.629 177.763 147.232 170.907 152.439 165.48C157.719 160.053 164.355 157.34 172.349 157.34C180.342 157.34 186.942 160.053 192.149 165.48C197.429 170.907 200.069 177.763 200.069 186.05C200.069 194.41 197.429 201.267 192.149 206.62C186.942 212.047 180.342 214.76 172.349 214.76C164.355 214.76 157.719 212.047 152.439 206.62C147.232 201.193 144.629 194.337 144.629 186.05ZM154.749 186.05C154.749 191.843 156.435 196.537 159.809 200.13C163.182 203.723 167.362 205.52 172.349 205.52C177.335 205.52 181.515 203.723 184.889 200.13C188.262 196.537 189.949 191.843 189.949 186.05C189.949 180.33 188.262 175.673 184.889 172.08C181.442 168.413 177.262 166.58 172.349 166.58C167.435 166.58 163.255 168.413 159.809 172.08C156.435 175.673 154.749 180.33 154.749 186.05ZM284.527 159.1L267.147 213H256.807L243.387 171.64L230.077 213H219.847L202.467 159.1H213.027L225.017 199.8H225.127L238.437 159.1H248.887L262.197 199.8H262.307L274.187 159.1H284.527ZM304.207 140.51C304.207 142.49 303.51 144.177 302.117 145.57C300.724 146.963 299.037 147.66 297.057 147.66C295.077 147.66 293.39 146.963 291.997 145.57C290.604 144.177 289.907 142.49 289.907 140.51C289.907 138.53 290.604 136.843 291.997 135.45C293.39 134.057 295.077 133.36 297.057 133.36C299.037 133.36 300.724 134.057 302.117 135.45C303.51 136.843 304.207 138.53 304.207 140.51ZM302.117 159.1V213H291.997V159.1H302.117ZM315.287 159.1H324.967V166.58H325.407C326.947 163.94 329.294 161.74 332.447 159.98C335.674 158.22 339.01 157.34 342.457 157.34C349.057 157.34 354.117 159.247 357.637 163.06C361.23 166.8 363.027 172.153 363.027 179.12V213H352.907V179.78C352.687 170.98 348.25 166.58 339.597 166.58C335.564 166.58 332.19 168.23 329.477 171.53C326.764 174.757 325.407 178.643 325.407 183.19V213H315.287V159.1ZM398.569 205.52C403.556 205.52 407.626 203.723 410.779 200.13C414.079 196.537 415.729 191.843 415.729 186.05C415.729 180.403 414.079 175.747 410.779 172.08C407.552 168.413 403.482 166.58 398.569 166.58C393.729 166.58 389.659 168.413 386.359 172.08C383.059 175.747 381.409 180.403 381.409 186.05C381.409 191.77 383.059 196.427 386.359 200.02C389.659 203.687 393.729 205.52 398.569 205.52ZM398.239 238.52C395.232 238.52 392.409 238.117 389.769 237.31C387.129 236.577 384.709 235.513 382.509 234.12C380.382 232.727 378.549 231.077 377.009 229.17C375.469 227.263 374.296 225.137 373.489 222.79L383.059 218.83C384.159 221.983 386.066 224.513 388.779 226.42C391.492 228.327 394.646 229.28 398.239 229.28C403.739 229.28 408.029 227.63 411.109 224.33C414.189 221.03 415.729 216.483 415.729 210.69V205.52H415.289C413.382 208.38 410.779 210.653 407.479 212.34C404.252 213.953 400.732 214.76 396.919 214.76C389.879 214.76 383.829 212.01 378.769 206.51C373.782 200.863 371.289 194.043 371.289 186.05C371.289 178.057 373.782 171.273 378.769 165.7C383.829 160.127 389.879 157.34 396.919 157.34C400.732 157.34 404.252 158.183 407.479 159.87C410.779 161.483 413.382 163.72 415.289 166.58H415.729V159.1H425.409V210.69C425.409 219.343 422.952 226.127 418.039 231.04C413.052 236.027 406.452 238.52 398.239 238.52ZM473.798 213H463.678V134.24H475.998L514.278 195.51H514.718L514.278 180.33V134.24H524.398V213H513.838L473.798 148.76H473.358L473.798 163.94V213ZM550.39 181.1V213H540.27V134.24H567.11C573.93 134.24 579.723 136.513 584.49 141.06C589.33 145.607 591.75 151.143 591.75 157.67C591.75 164.343 589.33 169.917 584.49 174.39C579.796 178.863 574.003 181.1 567.11 181.1H550.39ZM550.39 143.92V171.42H567.33C571.363 171.42 574.7 170.063 577.34 167.35C580.053 164.637 581.41 161.41 581.41 157.67C581.41 154.003 580.053 150.813 577.34 148.1C574.7 145.313 571.363 143.92 567.33 143.92H550.39ZM629.199 143.92V213H619.079V143.92H597.079V134.24H651.199V143.92H629.199ZM707.744 134.24V143.92H671.884V168.89H704.224V178.35H671.884V203.32H707.744V213H661.764V134.24H707.744ZM765.603 213H721.383V134.24H731.503V203.32H765.603V213ZM823.218 214.76C815.225 214.76 808.588 212.047 803.308 206.62C798.101 201.047 795.498 194.19 795.498 186.05C795.498 177.763 798.101 170.907 803.308 165.48C808.588 160.053 815.225 157.34 823.218 157.34C828.718 157.34 833.521 158.733 837.628 161.52C841.735 164.233 844.815 168.01 846.868 172.85L837.628 176.7C834.768 169.953 829.745 166.58 822.558 166.58C817.938 166.58 813.941 168.45 810.568 172.19C807.268 175.93 805.618 180.55 805.618 186.05C805.618 191.55 807.268 196.17 810.568 199.91C813.941 203.65 817.938 205.52 822.558 205.52C829.965 205.52 835.171 202.147 838.178 195.4L847.198 199.25C845.218 204.09 842.101 207.903 837.848 210.69C833.668 213.403 828.791 214.76 823.218 214.76ZM852.432 186.05C852.432 177.763 855.035 170.907 860.242 165.48C865.522 160.053 872.158 157.34 880.152 157.34C888.145 157.34 894.745 160.053 899.952 165.48C905.232 170.907 907.872 177.763 907.872 186.05C907.872 194.41 905.232 201.267 899.952 206.62C894.745 212.047 888.145 214.76 880.152 214.76C872.158 214.76 865.522 212.047 860.242 206.62C855.035 201.193 852.432 194.337 852.432 186.05ZM862.552 186.05C862.552 191.843 864.238 196.537 867.612 200.13C870.985 203.723 875.165 205.52 880.152 205.52C885.138 205.52 889.318 203.723 892.692 200.13C896.065 196.537 897.752 191.843 897.752 186.05C897.752 180.33 896.065 175.673 892.692 172.08C889.245 168.413 885.065 166.58 880.152 166.58C875.238 166.58 871.058 168.413 867.612 172.08C864.238 175.673 862.552 180.33 862.552 186.05ZM963.827 213H954.147V205.52H953.707C952.167 208.16 949.784 210.36 946.557 212.12C943.404 213.88 940.104 214.76 936.657 214.76C930.057 214.76 924.961 212.89 921.367 209.15C917.847 205.337 916.087 199.947 916.087 192.98V159.1H926.207V192.32C926.427 201.12 930.864 205.52 939.517 205.52C943.551 205.52 946.924 203.907 949.637 200.68C952.351 197.38 953.707 193.457 953.707 188.91V159.1H963.827V213ZM986.266 213H976.146V159.1H985.826V167.9H986.266C987.293 165.04 989.383 162.62 992.536 160.64C995.763 158.587 998.916 157.56 1002 157.56C1004.93 157.56 1007.42 158 1009.48 158.88L1006.4 168.67C1005.15 168.157 1003.17 167.9 1000.46 167.9C996.643 167.9 993.306 169.44 990.446 172.52C987.66 175.6 986.266 179.193 986.266 183.3V213ZM1055.21 198.04C1055.21 202.733 1053.16 206.693 1049.05 209.92C1044.94 213.147 1039.77 214.76 1033.54 214.76C1028.11 214.76 1023.35 213.367 1019.24 210.58C1015.13 207.72 1012.2 203.98 1010.44 199.36L1019.46 195.51C1020.78 198.737 1022.69 201.267 1025.18 203.1C1027.75 204.86 1030.53 205.74 1033.54 205.74C1036.77 205.74 1039.44 205.043 1041.57 203.65C1043.77 202.257 1044.87 200.607 1044.87 198.7C1044.87 195.253 1042.23 192.723 1036.95 191.11L1027.71 188.8C1017.22 186.16 1011.98 181.1 1011.98 173.62C1011.98 168.707 1013.96 164.783 1017.92 161.85C1021.95 158.843 1027.09 157.34 1033.32 157.34C1038.09 157.34 1042.38 158.477 1046.19 160.75C1050.08 163.023 1052.79 166.067 1054.33 169.88L1045.31 173.62C1044.28 171.347 1042.6 169.587 1040.25 168.34C1037.98 167.02 1035.41 166.36 1032.55 166.36C1029.91 166.36 1027.53 167.02 1025.4 168.34C1023.35 169.66 1022.32 171.273 1022.32 173.18C1022.32 176.26 1025.22 178.46 1031.01 179.78L1039.15 181.87C1049.86 184.51 1055.21 189.9 1055.21 198.04ZM1088.75 214.76C1080.83 214.76 1074.31 212.047 1069.17 206.62C1064.04 201.193 1061.47 194.337 1061.47 186.05C1061.47 177.837 1063.97 171.017 1068.95 165.59C1073.94 160.09 1080.32 157.34 1088.09 157.34C1096.09 157.34 1102.43 159.943 1107.12 165.15C1111.89 170.283 1114.27 177.507 1114.27 186.82L1114.16 187.92H1071.81C1071.96 193.2 1073.72 197.453 1077.09 200.68C1080.47 203.907 1084.5 205.52 1089.19 205.52C1095.65 205.52 1100.71 202.293 1104.37 195.84L1113.39 200.24C1110.97 204.787 1107.6 208.343 1103.27 210.91C1099.02 213.477 1094.18 214.76 1088.75 214.76ZM1072.58 179.56H1103.49C1103.2 175.82 1101.66 172.74 1098.87 170.32C1096.16 167.827 1092.49 166.58 1087.87 166.58C1084.06 166.58 1080.76 167.753 1077.97 170.1C1075.26 172.447 1073.46 175.6 1072.58 179.56ZM1165.32 198.04C1165.32 202.733 1163.26 206.693 1159.16 209.92C1155.05 213.147 1149.88 214.76 1143.65 214.76C1138.22 214.76 1133.45 213.367 1129.35 210.58C1125.24 207.72 1122.31 203.98 1120.55 199.36L1129.57 195.51C1130.89 198.737 1132.79 201.267 1135.29 203.1C1137.85 204.86 1140.64 205.74 1143.65 205.74C1146.87 205.74 1149.55 205.043 1151.68 203.65C1153.88 202.257 1154.98 200.607 1154.98 198.7C1154.98 195.253 1152.34 192.723 1147.06 191.11L1137.82 188.8C1127.33 186.16 1122.09 181.1 1122.09 173.62C1122.09 168.707 1124.07 164.783 1128.03 161.85C1132.06 158.843 1137.19 157.34 1143.43 157.34C1148.19 157.34 1152.48 158.477 1156.3 160.75C1160.18 163.023 1162.9 166.067 1164.44 169.88L1155.42 173.62C1154.39 171.347 1152.7 169.587 1150.36 168.34C1148.08 167.02 1145.52 166.36 1142.66 166.36C1140.02 166.36 1137.63 167.02 1135.51 168.34C1133.45 169.66 1132.43 171.273 1132.43 173.18C1132.43 176.26 1135.32 178.46 1141.12 179.78L1149.26 181.87C1159.96 184.51 1165.32 189.9 1165.32 198.04Z" fill="#000"/>
</svg>
