<svg width="1235" height="373" viewBox="0 0 1235 373" fill="none" xmlns="http://www.w3.org/2000/svg">
<path d="M204.04 73.1V105H193.92V26.24H220.76C227.58 26.24 233.373 28.5133 238.14 33.06C242.98 37.6067 245.4 43.1433 245.4 49.67C245.4 56.3433 242.98 61.9167 238.14 66.39C233.447 70.8633 227.653 73.1 220.76 73.1H204.04ZM204.04 35.92V63.42H220.98C225.013 63.42 228.35 62.0633 230.99 59.35C233.703 56.6367 235.06 53.41 235.06 49.67C235.06 46.0033 233.703 42.8133 230.99 40.1C228.35 37.3133 225.013 35.92 220.98 35.92H204.04ZM264.37 105H254.25V51.1H263.93V59.9H264.37C265.397 57.04 267.487 54.62 270.64 52.64C273.867 50.5867 277.02 49.56 280.1 49.56C283.033 49.56 285.527 50 287.58 50.88L284.5 60.67C283.253 60.1567 281.273 59.9 278.56 59.9C274.747 59.9 271.41 61.44 268.55 64.52C265.763 67.6 264.37 71.1933 264.37 75.3V105ZM287.801 78.05C287.801 69.7633 290.404 62.9067 295.611 57.48C300.891 52.0533 307.527 49.34 315.521 49.34C323.514 49.34 330.114 52.0533 335.321 57.48C340.601 62.9067 343.241 69.7633 343.241 78.05C343.241 86.41 340.601 93.2667 335.321 98.62C330.114 104.047 323.514 106.76 315.521 106.76C307.527 106.76 300.891 104.047 295.611 98.62C290.404 93.1933 287.801 86.3367 287.801 78.05ZM297.921 78.05C297.921 83.8433 299.607 88.5367 302.981 92.13C306.354 95.7233 310.534 97.52 315.521 97.52C320.507 97.52 324.687 95.7233 328.061 92.13C331.434 88.5367 333.121 83.8433 333.121 78.05C333.121 72.33 331.434 67.6733 328.061 64.08C324.614 60.4133 320.434 58.58 315.521 58.58C310.607 58.58 306.427 60.4133 302.981 64.08C299.607 67.6733 297.921 72.33 297.921 78.05ZM380.386 106.76C376.426 106.76 372.796 105.917 369.496 104.23C366.27 102.543 363.776 100.307 362.016 97.52H361.576V105H351.896V26.24H362.016V51.1L361.576 58.58H362.016C363.776 55.7933 366.27 53.5567 369.496 51.87C372.796 50.1833 376.426 49.34 380.386 49.34C387.5 49.34 393.513 52.1267 398.426 57.7C403.486 63.3467 406.016 70.13 406.016 78.05C406.016 86.0433 403.486 92.8267 398.426 98.4C393.513 103.973 387.5 106.76 380.386 106.76ZM378.736 97.52C383.576 97.52 387.646 95.6867 390.946 92.02C394.246 88.4267 395.896 83.77 395.896 78.05C395.896 72.4033 394.246 67.7467 390.946 64.08C387.646 60.4133 383.576 58.58 378.736 58.58C373.823 58.58 369.716 60.4133 366.416 64.08C363.19 67.7467 361.576 72.4033 361.576 78.05C361.576 83.77 363.19 88.4633 366.416 92.13C369.716 95.7233 373.823 97.52 378.736 97.52ZM424.858 26.24V105H414.738V26.24H424.858ZM460.852 106.76C452.932 106.76 446.406 104.047 441.272 98.62C436.139 93.1933 433.572 86.3367 433.572 78.05C433.572 69.8367 436.066 63.0167 441.052 57.59C446.039 52.09 452.419 49.34 460.192 49.34C468.186 49.34 474.529 51.9433 479.222 57.15C483.989 62.2833 486.372 69.5067 486.372 78.82L486.262 79.92H443.912C444.059 85.2 445.819 89.4533 449.192 92.68C452.566 95.9067 456.599 97.52 461.292 97.52C467.746 97.52 472.806 94.2933 476.472 87.84L485.492 92.24C483.072 96.7867 479.699 100.343 475.372 102.91C471.119 105.477 466.279 106.76 460.852 106.76ZM444.682 71.56H475.592C475.299 67.82 473.759 64.74 470.972 62.32C468.259 59.8267 464.592 58.58 459.972 58.58C456.159 58.58 452.859 59.7533 450.072 62.1C447.359 64.4467 445.562 67.6 444.682 71.56ZM505.747 105H495.627V51.1H505.307V58.58H505.747C507.287 55.94 509.633 53.74 512.787 51.98C516.013 50.22 519.203 49.34 522.357 49.34C526.317 49.34 529.8 50.2567 532.807 52.09C535.813 53.9233 538.013 56.4533 539.407 59.68C543.88 52.7867 550.077 49.34 557.997 49.34C564.23 49.34 569.033 51.2467 572.407 55.06C575.78 58.8733 577.467 64.3 577.467 71.34V105H567.347V72.88C567.347 67.82 566.43 64.19 564.597 61.99C562.763 59.7167 559.683 58.58 555.357 58.58C551.47 58.58 548.207 60.23 545.567 63.53C542.927 66.83 541.607 70.7167 541.607 75.19V105H531.487V72.88C531.487 67.82 530.57 64.19 528.737 61.99C526.903 59.7167 523.823 58.58 519.497 58.58C515.61 58.58 512.347 60.23 509.707 63.53C507.067 66.83 505.747 70.7167 505.747 75.19V105ZM660.519 83.99C660.519 90.8833 657.989 96.42 652.929 100.6C647.795 104.707 641.562 106.76 634.229 106.76C627.702 106.76 621.945 104.853 616.959 101.04C611.972 97.2267 608.525 92.02 606.619 85.42L616.299 81.46C616.959 83.8067 617.875 85.9333 619.049 87.84C620.222 89.7467 621.579 91.3967 623.119 92.79C624.732 94.11 626.492 95.1733 628.399 95.98C630.305 96.7133 632.322 97.08 634.449 97.08C639.069 97.08 642.845 95.9067 645.779 93.56C648.712 91.14 650.179 87.95 650.179 83.99C650.179 80.69 648.969 77.8667 646.549 75.52C644.275 73.2467 640.022 71.0467 633.789 68.92C627.482 66.6467 623.559 65.1067 622.019 64.3C613.659 60.0467 609.479 53.7767 609.479 45.49C609.479 39.6967 611.789 34.7467 616.409 30.64C621.102 26.5333 626.859 24.48 633.679 24.48C639.692 24.48 644.899 26.02 649.299 29.1C653.699 32.1067 656.632 35.8833 658.099 40.43L648.639 44.39C647.759 41.4567 645.999 39.0367 643.359 37.13C640.792 35.15 637.639 34.16 633.899 34.16C629.939 34.16 626.602 35.26 623.889 37.46C621.175 39.5133 619.819 42.19 619.819 45.49C619.819 48.2033 620.882 50.55 623.009 52.53C625.355 54.51 630.452 56.8567 638.299 59.57C646.292 62.2833 651.975 65.62 655.349 69.58C658.795 73.4667 660.519 78.27 660.519 83.99ZM667.859 78.05C667.859 69.7633 670.463 62.9067 675.669 57.48C680.949 52.0533 687.586 49.34 695.579 49.34C703.573 49.34 710.173 52.0533 715.379 57.48C720.659 62.9067 723.299 69.7633 723.299 78.05C723.299 86.41 720.659 93.2667 715.379 98.62C710.173 104.047 703.573 106.76 695.579 106.76C687.586 106.76 680.949 104.047 675.669 98.62C670.463 93.1933 667.859 86.3367 667.859 78.05ZM677.979 78.05C677.979 83.8433 679.666 88.5367 683.039 92.13C686.413 95.7233 690.593 97.52 695.579 97.52C700.566 97.52 704.746 95.7233 708.119 92.13C711.493 88.5367 713.179 83.8433 713.179 78.05C713.179 72.33 711.493 67.6733 708.119 64.08C704.673 60.4133 700.493 58.58 695.579 58.58C690.666 58.58 686.486 60.4133 683.039 64.08C679.666 67.6733 677.979 72.33 677.979 78.05ZM742.075 26.24V105H731.955V26.24H742.075ZM780.586 105H770.466L748.686 51.1H759.686L775.526 92.9H775.746L791.806 51.1H802.586L780.586 105ZM822.281 32.51C822.281 34.49 821.585 36.1767 820.191 37.57C818.798 38.9633 817.111 39.66 815.131 39.66C813.151 39.66 811.465 38.9633 810.071 37.57C808.678 36.1767 807.981 34.49 807.981 32.51C807.981 30.53 808.678 28.8433 810.071 27.45C811.465 26.0567 813.151 25.36 815.131 25.36C817.111 25.36 818.798 26.0567 820.191 27.45C821.585 28.8433 822.281 30.53 822.281 32.51ZM820.191 51.1V105H810.071V51.1H820.191ZM833.361 51.1H843.041V58.58H843.481C845.021 55.94 847.368 53.74 850.521 51.98C853.748 50.22 857.085 49.34 860.531 49.34C867.131 49.34 872.191 51.2467 875.711 55.06C879.305 58.8 881.101 64.1533 881.101 71.12V105H870.981V71.78C870.761 62.98 866.325 58.58 857.671 58.58C853.638 58.58 850.265 60.23 847.551 63.53C844.838 66.7567 843.481 70.6433 843.481 75.19V105H833.361V51.1ZM916.643 97.52C921.63 97.52 925.7 95.7233 928.853 92.13C932.153 88.5367 933.803 83.8433 933.803 78.05C933.803 72.4033 932.153 67.7467 928.853 64.08C925.627 60.4133 921.557 58.58 916.643 58.58C911.803 58.58 907.733 60.4133 904.433 64.08C901.133 67.7467 899.483 72.4033 899.483 78.05C899.483 83.77 901.133 88.4267 904.433 92.02C907.733 95.6867 911.803 97.52 916.643 97.52ZM916.313 130.52C913.307 130.52 910.483 130.117 907.843 129.31C905.203 128.577 902.783 127.513 900.583 126.12C898.457 124.727 896.623 123.077 895.083 121.17C893.543 119.263 892.37 117.137 891.563 114.79L901.133 110.83C902.233 113.983 904.14 116.513 906.853 118.42C909.567 120.327 912.72 121.28 916.313 121.28C921.813 121.28 926.103 119.63 929.183 116.33C932.263 113.03 933.803 108.483 933.803 102.69V97.52H933.363C931.457 100.38 928.853 102.653 925.553 104.34C922.327 105.953 918.807 106.76 914.993 106.76C907.953 106.76 901.903 104.01 896.843 98.51C891.857 92.8633 889.363 86.0433 889.363 78.05C889.363 70.0567 891.857 63.2733 896.843 57.7C901.903 52.1267 907.953 49.34 914.993 49.34C918.807 49.34 922.327 50.1833 925.553 51.87C928.853 53.4833 931.457 55.72 933.363 58.58H933.803V51.1H943.483V102.69C943.483 111.343 941.027 118.127 936.113 123.04C931.127 128.027 924.527 130.52 916.313 130.52ZM213.5 238.88C209.1 238.88 205.433 237.523 202.5 234.81C199.64 232.097 198.173 228.32 198.1 223.48V193.34H188.64V184.1H198.1V167.6H208.22V184.1H221.42V193.34H208.22V220.18C208.22 223.773 208.917 226.23 210.31 227.55C211.703 228.797 213.28 229.42 215.04 229.42C215.847 229.42 216.617 229.347 217.35 229.2C218.157 228.98 218.89 228.723 219.55 228.43L222.74 237.45C220.1 238.403 217.02 238.88 213.5 238.88ZM231.584 159.24H241.704V184.1L241.264 191.58H241.704C243.244 188.94 245.59 186.74 248.744 184.98C251.97 183.22 255.307 182.34 258.754 182.34C265.354 182.34 270.414 184.247 273.934 188.06C277.527 191.8 279.324 197.153 279.324 204.12V238H269.204V206.1C269.204 196.42 264.914 191.58 256.334 191.58C252.227 191.58 248.744 193.303 245.884 196.75C243.097 200.123 241.704 204.083 241.704 208.63V238H231.584V159.24ZM301.323 238H291.203V184.1H300.883V192.9H301.323C302.35 190.04 304.44 187.62 307.593 185.64C310.82 183.587 313.973 182.56 317.053 182.56C319.986 182.56 322.48 183 324.533 183.88L321.453 193.67C320.206 193.157 318.226 192.9 315.513 192.9C311.7 192.9 308.363 194.44 305.503 197.52C302.716 200.6 301.323 204.193 301.323 208.3V238ZM324.754 211.05C324.754 202.763 327.357 195.907 332.564 190.48C337.844 185.053 344.48 182.34 352.474 182.34C360.467 182.34 367.067 185.053 372.274 190.48C377.554 195.907 380.194 202.763 380.194 211.05C380.194 219.41 377.554 226.267 372.274 231.62C367.067 237.047 360.467 239.76 352.474 239.76C344.48 239.76 337.844 237.047 332.564 231.62C327.357 226.193 324.754 219.337 324.754 211.05ZM334.874 211.05C334.874 216.843 336.56 221.537 339.934 225.13C343.307 228.723 347.487 230.52 352.474 230.52C357.46 230.52 361.64 228.723 365.014 225.13C368.387 221.537 370.074 216.843 370.074 211.05C370.074 205.33 368.387 200.673 365.014 197.08C361.567 193.413 357.387 191.58 352.474 191.58C347.56 191.58 343.38 193.413 339.934 197.08C336.56 200.673 334.874 205.33 334.874 211.05ZM436.149 238H426.469V230.52H426.029C424.489 233.16 422.106 235.36 418.879 237.12C415.726 238.88 412.426 239.76 408.979 239.76C402.379 239.76 397.283 237.89 393.689 234.15C390.169 230.337 388.409 224.947 388.409 217.98V184.1H398.529V217.32C398.749 226.12 403.186 230.52 411.839 230.52C415.873 230.52 419.246 228.907 421.959 225.68C424.673 222.38 426.029 218.457 426.029 213.91V184.1H436.149V238ZM472.131 230.52C477.118 230.52 481.188 228.723 484.341 225.13C487.641 221.537 489.291 216.843 489.291 211.05C489.291 205.403 487.641 200.747 484.341 197.08C481.115 193.413 477.045 191.58 472.131 191.58C467.291 191.58 463.221 193.413 459.921 197.08C456.621 200.747 454.971 205.403 454.971 211.05C454.971 216.77 456.621 221.427 459.921 225.02C463.221 228.687 467.291 230.52 472.131 230.52ZM471.801 263.52C468.795 263.52 465.971 263.117 463.331 262.31C460.691 261.577 458.271 260.513 456.071 259.12C453.945 257.727 452.111 256.077 450.571 254.17C449.031 252.263 447.858 250.137 447.051 247.79L456.621 243.83C457.721 246.983 459.628 249.513 462.341 251.42C465.055 253.327 468.208 254.28 471.801 254.28C477.301 254.28 481.591 252.63 484.671 249.33C487.751 246.03 489.291 241.483 489.291 235.69V230.52H488.851C486.945 233.38 484.341 235.653 481.041 237.34C477.815 238.953 474.295 239.76 470.481 239.76C463.441 239.76 457.391 237.01 452.331 231.51C447.345 225.863 444.851 219.043 444.851 211.05C444.851 203.057 447.345 196.273 452.331 190.7C457.391 185.127 463.441 182.34 470.481 182.34C474.295 182.34 477.815 183.183 481.041 184.87C484.341 186.483 486.945 188.72 488.851 191.58H489.291V184.1H498.971V235.69C498.971 244.343 496.515 251.127 491.601 256.04C486.615 261.027 480.015 263.52 471.801 263.52ZM511.31 159.24H521.43V184.1L520.99 191.58H521.43C522.97 188.94 525.317 186.74 528.47 184.98C531.697 183.22 535.034 182.34 538.48 182.34C545.08 182.34 550.14 184.247 553.66 188.06C557.254 191.8 559.05 197.153 559.05 204.12V238H548.93V206.1C548.93 196.42 544.64 191.58 536.06 191.58C531.954 191.58 528.47 193.303 525.61 196.75C522.824 200.123 521.43 204.083 521.43 208.63V238H511.31V159.24ZM606.979 206.1V238H596.859V159.24H623.699C630.519 159.24 636.313 161.513 641.079 166.06C645.919 170.607 648.339 176.143 648.339 182.67C648.339 189.343 645.919 194.917 641.079 199.39C636.386 203.863 630.593 206.1 623.699 206.1H606.979ZM606.979 168.92V196.42H623.919C627.953 196.42 631.289 195.063 633.929 192.35C636.643 189.637 637.999 186.41 637.999 182.67C637.999 179.003 636.643 175.813 633.929 173.1C631.289 170.313 627.953 168.92 623.919 168.92H606.979ZM667.309 238H657.189V184.1H666.869V192.9H667.309C668.336 190.04 670.426 187.62 673.579 185.64C676.806 183.587 679.959 182.56 683.039 182.56C685.973 182.56 688.466 183 690.519 183.88L687.439 193.67C686.193 193.157 684.213 192.9 681.499 192.9C677.686 192.9 674.349 194.44 671.489 197.52C668.703 200.6 667.309 204.193 667.309 208.3V238ZM690.74 211.05C690.74 202.763 693.343 195.907 698.55 190.48C703.83 185.053 710.467 182.34 718.46 182.34C726.453 182.34 733.053 185.053 738.26 190.48C743.54 195.907 746.18 202.763 746.18 211.05C746.18 219.41 743.54 226.267 738.26 231.62C733.053 237.047 726.453 239.76 718.46 239.76C710.467 239.76 703.83 237.047 698.55 231.62C693.343 226.193 690.74 219.337 690.74 211.05ZM700.86 211.05C700.86 216.843 702.547 221.537 705.92 225.13C709.293 228.723 713.473 230.52 718.46 230.52C723.447 230.52 727.627 228.723 731 225.13C734.373 221.537 736.06 216.843 736.06 211.05C736.06 205.33 734.373 200.673 731 197.08C727.553 193.413 723.373 191.58 718.46 191.58C713.547 191.58 709.367 193.413 705.92 197.08C702.547 200.673 700.86 205.33 700.86 211.05ZM779.573 230.52C784.56 230.52 788.63 228.723 791.783 225.13C795.083 221.537 796.733 216.843 796.733 211.05C796.733 205.403 795.083 200.747 791.783 197.08C788.556 193.413 784.486 191.58 779.573 191.58C774.733 191.58 770.663 193.413 767.363 197.08C764.063 200.747 762.413 205.403 762.413 211.05C762.413 216.77 764.063 221.427 767.363 225.02C770.663 228.687 774.733 230.52 779.573 230.52ZM779.243 263.52C776.236 263.52 773.413 263.117 770.773 262.31C768.133 261.577 765.713 260.513 763.513 259.12C761.386 257.727 759.553 256.077 758.013 254.17C756.473 252.263 755.3 250.137 754.493 247.79L764.063 243.83C765.163 246.983 767.07 249.513 769.783 251.42C772.496 253.327 775.65 254.28 779.243 254.28C784.743 254.28 789.033 252.63 792.113 249.33C795.193 246.03 796.733 241.483 796.733 235.69V230.52H796.293C794.386 233.38 791.783 235.653 788.483 237.34C785.256 238.953 781.736 239.76 777.923 239.76C770.883 239.76 764.833 237.01 759.773 231.51C754.786 225.863 752.293 219.043 752.293 211.05C752.293 203.057 754.786 196.273 759.773 190.7C764.833 185.127 770.883 182.34 777.923 182.34C781.736 182.34 785.256 183.183 788.483 184.87C791.783 186.483 794.386 188.72 796.293 191.58H796.733V184.1H806.413V235.69C806.413 244.343 803.956 251.127 799.043 256.04C794.056 261.027 787.456 263.52 779.243 263.52ZM828.872 238H818.752V184.1H828.432V192.9H828.872C829.898 190.04 831.988 187.62 835.142 185.64C838.368 183.587 841.522 182.56 844.602 182.56C847.535 182.56 850.028 183 852.082 183.88L849.002 193.67C847.755 193.157 845.775 192.9 843.062 192.9C839.248 192.9 835.912 194.44 833.052 197.52C830.265 200.6 828.872 204.193 828.872 208.3V238ZM863.934 221.5C863.934 224.14 865.034 226.34 867.234 228.1C869.508 229.86 872.148 230.74 875.154 230.74C879.408 230.74 883.184 229.163 886.484 226.01C889.858 222.857 891.544 219.153 891.544 214.9C888.391 212.407 883.991 211.16 878.344 211.16C874.238 211.16 870.791 212.15 868.004 214.13C865.291 216.11 863.934 218.567 863.934 221.5ZM877.024 182.34C884.504 182.34 890.408 184.357 894.734 188.39C899.061 192.35 901.224 197.813 901.224 204.78V238H891.544V230.52H891.104C886.924 236.68 881.351 239.76 874.384 239.76C868.444 239.76 863.458 238 859.424 234.48C855.464 230.96 853.484 226.56 853.484 221.28C853.484 215.707 855.574 211.27 859.754 207.97C864.008 204.67 869.654 203.02 876.694 203.02C882.708 203.02 887.658 204.12 891.544 206.32V204.01C891.544 200.49 890.151 197.52 887.364 195.1C884.578 192.607 881.314 191.36 877.574 191.36C871.928 191.36 867.454 193.743 864.154 198.51L855.244 192.9C860.158 185.86 867.418 182.34 877.024 182.34ZM922.759 238H912.639V184.1H922.319V191.58H922.759C924.299 188.94 926.645 186.74 929.799 184.98C933.025 183.22 936.215 182.34 939.369 182.34C943.329 182.34 946.812 183.257 949.819 185.09C952.825 186.923 955.025 189.453 956.419 192.68C960.892 185.787 967.089 182.34 975.009 182.34C981.242 182.34 986.045 184.247 989.419 188.06C992.792 191.873 994.479 197.3 994.479 204.34V238H984.359V205.88C984.359 200.82 983.442 197.19 981.609 194.99C979.775 192.717 976.695 191.58 972.369 191.58C968.482 191.58 965.219 193.23 962.579 196.53C959.939 199.83 958.619 203.717 958.619 208.19V238H948.499V205.88C948.499 200.82 947.582 197.19 945.749 194.99C943.915 192.717 940.835 191.58 936.509 191.58C932.622 191.58 929.359 193.23 926.719 196.53C924.079 199.83 922.759 203.717 922.759 208.19V238ZM1016.43 238H1006.31V184.1H1015.99V191.58H1016.43C1017.97 188.94 1020.32 186.74 1023.47 184.98C1026.7 183.22 1029.89 182.34 1033.04 182.34C1037 182.34 1040.48 183.257 1043.49 185.09C1046.5 186.923 1048.7 189.453 1050.09 192.68C1054.56 185.787 1060.76 182.34 1068.68 182.34C1074.91 182.34 1079.72 184.247 1083.09 188.06C1086.46 191.873 1088.15 197.3 1088.15 204.34V238H1078.03V205.88C1078.03 200.82 1077.11 197.19 1075.28 194.99C1073.45 192.717 1070.37 191.58 1066.04 191.58C1062.15 191.58 1058.89 193.23 1056.25 196.53C1053.61 199.83 1052.29 203.717 1052.29 208.19V238H1042.17V205.88C1042.17 200.82 1041.25 197.19 1039.42 194.99C1037.59 192.717 1034.51 191.58 1030.18 191.58C1026.29 191.58 1023.03 193.23 1020.39 196.53C1017.75 199.83 1016.43 203.717 1016.43 208.19V238ZM1113.07 165.51C1113.07 167.49 1112.38 169.177 1110.98 170.57C1109.59 171.963 1107.9 172.66 1105.92 172.66C1103.94 172.66 1102.26 171.963 1100.86 170.57C1099.47 169.177 1098.77 167.49 1098.77 165.51C1098.77 163.53 1099.47 161.843 1100.86 160.45C1102.26 159.057 1103.94 158.36 1105.92 158.36C1107.9 158.36 1109.59 159.057 1110.98 160.45C1112.38 161.843 1113.07 163.53 1113.07 165.51ZM1110.98 184.1V238H1100.86V184.1H1110.98ZM1124.15 184.1H1133.83V191.58H1134.27C1135.81 188.94 1138.16 186.74 1141.31 184.98C1144.54 183.22 1147.88 182.34 1151.32 182.34C1157.92 182.34 1162.98 184.247 1166.5 188.06C1170.1 191.8 1171.89 197.153 1171.89 204.12V238H1161.77V204.78C1161.55 195.98 1157.12 191.58 1148.46 191.58C1144.43 191.58 1141.06 193.23 1138.34 196.53C1135.63 199.757 1134.27 203.643 1134.27 208.19V238H1124.15V184.1ZM1207.43 230.52C1212.42 230.52 1216.49 228.723 1219.64 225.13C1222.94 221.537 1224.59 216.843 1224.59 211.05C1224.59 205.403 1222.94 200.747 1219.64 197.08C1216.42 193.413 1212.35 191.58 1207.43 191.58C1202.59 191.58 1198.52 193.413 1195.22 197.08C1191.92 200.747 1190.27 205.403 1190.27 211.05C1190.27 216.77 1191.92 221.427 1195.22 225.02C1198.52 228.687 1202.59 230.52 1207.43 230.52ZM1207.1 263.52C1204.1 263.52 1201.27 263.117 1198.63 262.31C1195.99 261.577 1193.57 260.513 1191.37 259.12C1189.25 257.727 1187.41 256.077 1185.87 254.17C1184.33 252.263 1183.16 250.137 1182.35 247.79L1191.92 243.83C1193.02 246.983 1194.93 249.513 1197.64 251.42C1200.36 253.327 1203.51 254.28 1207.1 254.28C1212.6 254.28 1216.89 252.63 1219.97 249.33C1223.05 246.03 1224.59 241.483 1224.59 235.69V230.52H1224.15C1222.25 233.38 1219.64 235.653 1216.34 237.34C1213.12 238.953 1209.6 239.76 1205.78 239.76C1198.74 239.76 1192.69 237.01 1187.63 231.51C1182.65 225.863 1180.15 219.043 1180.15 211.05C1180.15 203.057 1182.65 196.273 1187.63 190.7C1192.69 185.127 1198.74 182.34 1205.78 182.34C1209.6 182.34 1213.12 183.183 1216.34 184.87C1219.64 186.483 1222.25 188.72 1224.15 191.58H1224.59V184.1H1234.27V235.69C1234.27 244.343 1231.82 251.127 1226.9 256.04C1221.92 261.027 1215.32 263.52 1207.1 263.52ZM205.25 298.51C205.25 300.49 204.553 302.177 203.16 303.57C201.767 304.963 200.08 305.66 198.1 305.66C196.12 305.66 194.433 304.963 193.04 303.57C191.647 302.177 190.95 300.49 190.95 298.51C190.95 296.53 191.647 294.843 193.04 293.45C194.433 292.057 196.12 291.36 198.1 291.36C200.08 291.36 201.767 292.057 203.16 293.45C204.553 294.843 205.25 296.53 205.25 298.51ZM203.16 317.1V371H193.04V317.1H203.16ZM216.33 317.1H226.01V324.58H226.45C227.99 321.94 230.337 319.74 233.49 317.98C236.717 316.22 240.053 315.34 243.5 315.34C250.1 315.34 255.16 317.247 258.68 321.06C262.273 324.8 264.07 330.153 264.07 337.12V371H253.95V337.78C253.73 328.98 249.293 324.58 240.64 324.58C236.607 324.58 233.233 326.23 230.52 329.53C227.807 332.757 226.45 336.643 226.45 341.19V371H216.33V317.1ZM336.801 372.76C325.141 372.76 315.387 368.837 307.541 360.99C299.767 353.143 295.881 343.353 295.881 331.62C295.881 319.887 299.767 310.133 307.541 302.36C315.314 294.44 325.067 290.48 336.801 290.48C348.681 290.48 358.324 294.77 365.731 303.35L358.471 310.39C352.824 303.57 345.601 300.16 336.801 300.16C328.074 300.16 320.777 303.093 314.911 308.96C309.117 314.753 306.221 322.307 306.221 331.62C306.221 340.933 309.117 348.487 314.911 354.28C320.777 360.147 328.074 363.08 336.801 363.08C345.967 363.08 353.924 359.23 360.671 351.53L368.041 358.68C364.301 363.153 359.717 366.637 354.291 369.13C348.864 371.55 343.034 372.76 336.801 372.76Z" fill="#000"/>
<circle cx="70" cy="70" r="70" fill="#6400EE"/>
<path d="M75 33.76V109H64.88V46.3L50.25 52.68L46.4 44.1L68.51 33.76H75Z" fill="white"/>
</svg>
