<svg xmlns="http://www.w3.org/2000/svg" width="848" height="30" style="width: 320px;"
             viewBox="0 0 848 54" fill="none">
            <path d="M7.14003 52H0.516032V0.447999H7.14003V22.552H32.916V0.447999H39.54V52H32.916V28.744H7.14003V52ZM64.5634 53.152C59.3794 53.152 55.1074 51.376 51.7474 47.824C48.3874 44.272 46.7074 39.784 46.7074 34.36C46.7074 28.984 48.3394 24.52 51.6034 20.968C54.8674 17.368 59.0434 15.568 64.1314 15.568C69.3634 15.568 73.5154 17.272 76.5874 20.68C79.7074 24.04 81.2674 28.768 81.2674 34.864L81.1954 35.584H53.4754C53.5714 39.04 54.7234 41.824 56.9314 43.936C59.1394 46.048 61.7794 47.104 64.8514 47.104C69.0754 47.104 72.3874 44.992 74.7874 40.768L80.6914 43.648C79.1074 46.624 76.8994 48.952 74.0674 50.632C71.2834 52.312 68.1154 53.152 64.5634 53.152ZM53.9794 30.112H74.2114C74.0194 27.664 73.0114 25.648 71.1874 24.064C69.4114 22.432 67.0114 21.616 63.9874 21.616C61.4914 21.616 59.3314 22.384 57.5074 23.92C55.7314 25.456 54.5554 27.52 53.9794 30.112ZM93.949 52H87.325V16.72H93.661V22.48H93.949C94.621 20.608 95.989 19.024 98.053 17.728C100.165 16.384 102.229 15.712 104.245 15.712C106.165 15.712 107.797 16 109.141 16.576L107.125 22.984C106.309 22.648 105.013 22.48 103.237 22.48C100.741 22.48 98.557 23.488 96.685 25.504C94.861 27.52 93.949 29.872 93.949 32.56V52ZM127.142 53.152C121.958 53.152 117.686 51.376 114.326 47.824C110.966 44.272 109.286 39.784 109.286 34.36C109.286 28.984 110.918 24.52 114.182 20.968C117.446 17.368 121.622 15.568 126.71 15.568C131.942 15.568 136.094 17.272 139.166 20.68C142.286 24.04 143.846 28.768 143.846 34.864L143.774 35.584H116.054C116.15 39.04 117.302 41.824 119.51 43.936C121.718 46.048 124.358 47.104 127.43 47.104C131.654 47.104 134.966 44.992 137.366 40.768L143.27 43.648C141.686 46.624 139.478 48.952 136.646 50.632C133.862 52.312 130.694 53.152 127.142 53.152ZM116.558 30.112H136.79C136.598 27.664 135.59 25.648 133.766 24.064C131.99 22.432 129.59 21.616 126.566 21.616C124.07 21.616 121.91 22.384 120.086 23.92C118.31 25.456 117.134 27.52 116.558 30.112ZM155.087 0.447999V16.72H149.039V0.447999H155.087ZM189.278 42.208C189.278 45.28 187.934 47.872 185.246 49.984C182.558 52.096 179.174 53.152 175.094 53.152C171.542 53.152 168.422 52.24 165.734 50.416C163.046 48.544 161.126 46.096 159.974 43.072L165.878 40.552C166.742 42.664 167.99 44.32 169.622 45.52C171.302 46.672 173.126 47.248 175.094 47.248C177.206 47.248 178.958 46.792 180.35 45.88C181.79 44.968 182.51 43.888 182.51 42.64C182.51 40.384 180.782 38.728 177.326 37.672L171.278 36.16C164.414 34.432 160.982 31.12 160.982 26.224C160.982 23.008 162.278 20.44 164.87 18.52C167.51 16.552 170.87 15.568 174.95 15.568C178.07 15.568 180.878 16.312 183.374 17.8C185.918 19.288 187.694 21.28 188.702 23.776L182.798 26.224C182.126 24.736 181.022 23.584 179.486 22.768C177.998 21.904 176.318 21.472 174.446 21.472C172.718 21.472 171.158 21.904 169.766 22.768C168.422 23.632 167.75 24.688 167.75 25.936C167.75 27.952 169.646 29.392 173.438 30.256L178.766 31.624C185.774 33.352 189.278 36.88 189.278 42.208ZM208.848 34.36C208.848 28.936 210.552 24.448 213.96 20.896C217.416 17.344 221.76 15.568 226.992 15.568C232.224 15.568 236.544 17.344 239.952 20.896C243.408 24.448 245.136 28.936 245.136 34.36C245.136 39.832 243.408 44.32 239.952 47.824C236.544 51.376 232.224 53.152 226.992 53.152C221.76 53.152 217.416 51.376 213.96 47.824C210.552 44.272 208.848 39.784 208.848 34.36ZM215.472 34.36C215.472 38.152 216.576 41.224 218.784 43.576C220.992 45.928 223.728 47.104 226.992 47.104C230.256 47.104 232.992 45.928 235.2 43.576C237.408 41.224 238.512 38.152 238.512 34.36C238.512 30.616 237.408 27.568 235.2 25.216C232.944 22.816 230.208 21.616 226.992 21.616C223.776 21.616 221.04 22.816 218.784 25.216C216.576 27.568 215.472 30.616 215.472 34.36ZM281.762 52H275.426V47.104H275.138C274.13 48.832 272.57 50.272 270.458 51.424C268.394 52.576 266.234 53.152 263.978 53.152C259.658 53.152 256.322 51.928 253.97 49.48C251.666 46.984 250.514 43.456 250.514 38.896V16.72H257.138V38.464C257.282 44.224 260.186 47.104 265.85 47.104C268.49 47.104 270.698 46.048 272.474 43.936C274.25 41.776 275.138 39.208 275.138 36.232V16.72H281.762V52ZM296.449 52H289.825V16.72H296.161V22.48H296.449C297.121 20.608 298.489 19.024 300.553 17.728C302.665 16.384 304.729 15.712 306.745 15.712C308.665 15.712 310.297 16 311.641 16.576L309.625 22.984C308.809 22.648 307.513 22.48 305.737 22.48C303.241 22.48 301.057 23.488 299.185 25.504C297.361 27.52 296.449 29.872 296.449 32.56V52ZM349.727 28.024V52H343.103V28.024L325.751 0.447999H333.527L346.271 21.4H346.559L359.015 0.447999H366.791L349.727 28.024ZM369.653 34.36C369.653 28.936 371.357 24.448 374.765 20.896C378.221 17.344 382.565 15.568 387.797 15.568C393.029 15.568 397.349 17.344 400.757 20.896C404.213 24.448 405.941 28.936 405.941 34.36C405.941 39.832 404.213 44.32 400.757 47.824C397.349 51.376 393.029 53.152 387.797 53.152C382.565 53.152 378.221 51.376 374.765 47.824C371.357 44.272 369.653 39.784 369.653 34.36ZM376.277 34.36C376.277 38.152 377.381 41.224 379.589 43.576C381.797 45.928 384.533 47.104 387.797 47.104C391.061 47.104 393.797 45.928 396.005 43.576C398.213 41.224 399.317 38.152 399.317 34.36C399.317 30.616 398.213 27.568 396.005 25.216C393.749 22.816 391.013 21.616 387.797 21.616C384.581 21.616 381.845 22.816 379.589 25.216C377.381 27.568 376.277 30.616 376.277 34.36ZM442.566 52H436.23V47.104H435.942C434.934 48.832 433.374 50.272 431.262 51.424C429.198 52.576 427.038 53.152 424.782 53.152C420.462 53.152 417.126 51.928 414.774 49.48C412.47 46.984 411.318 43.456 411.318 38.896V16.72H417.942V38.464C418.086 44.224 420.99 47.104 426.654 47.104C429.294 47.104 431.502 46.048 433.278 43.936C435.054 41.776 435.942 39.208 435.942 36.232V16.72H442.566V52ZM464.949 52.576C462.069 52.576 459.669 51.688 457.749 49.912C455.877 48.136 454.917 45.664 454.869 42.496V22.768H448.677V16.72H454.869V5.92H461.493V16.72H470.133V22.768H461.493V40.336C461.493 42.688 461.949 44.296 462.861 45.16C463.773 45.976 464.805 46.384 465.957 46.384C466.485 46.384 466.989 46.336 467.469 46.24C467.997 46.096 468.477 45.928 468.909 45.736L470.997 51.64C469.269 52.264 467.253 52.576 464.949 52.576ZM507.394 52H501.058V47.104H500.77C499.762 48.832 498.202 50.272 496.09 51.424C494.026 52.576 491.866 53.152 489.61 53.152C485.29 53.152 481.954 51.928 479.602 49.48C477.298 46.984 476.146 43.456 476.146 38.896V16.72H482.77V38.464C482.914 44.224 485.818 47.104 491.482 47.104C494.122 47.104 496.33 46.048 498.106 43.936C499.882 41.776 500.77 39.208 500.77 36.232V16.72H507.394V52ZM534.106 53.152C531.514 53.152 529.138 52.6 526.978 51.496C524.866 50.392 523.234 48.928 522.082 47.104H521.794V52H515.458V0.447999H522.082V16.72L521.794 21.616H522.082C523.234 19.792 524.866 18.328 526.978 17.224C529.138 16.12 531.514 15.568 534.106 15.568C538.762 15.568 542.698 17.392 545.914 21.04C549.226 24.736 550.882 29.176 550.882 34.36C550.882 39.592 549.226 44.032 545.914 47.68C542.698 51.328 538.762 53.152 534.106 53.152ZM533.026 47.104C536.194 47.104 538.858 45.904 541.018 43.504C543.178 41.152 544.258 38.104 544.258 34.36C544.258 30.664 543.178 27.616 541.018 25.216C538.858 22.816 536.194 21.616 533.026 21.616C529.81 21.616 527.122 22.816 524.962 25.216C522.85 27.616 521.794 30.664 521.794 34.36C521.794 38.104 522.85 41.176 524.962 43.576C527.122 45.928 529.81 47.104 533.026 47.104ZM572.782 53.152C567.598 53.152 563.326 51.376 559.966 47.824C556.606 44.272 554.926 39.784 554.926 34.36C554.926 28.984 556.558 24.52 559.822 20.968C563.086 17.368 567.262 15.568 572.35 15.568C577.582 15.568 581.734 17.272 584.806 20.68C587.926 24.04 589.486 28.768 589.486 34.864L589.414 35.584H561.694C561.79 39.04 562.942 41.824 565.15 43.936C567.358 46.048 569.998 47.104 573.07 47.104C577.294 47.104 580.606 44.992 583.006 40.768L588.91 43.648C587.326 46.624 585.118 48.952 582.286 50.632C579.502 52.312 576.334 53.152 572.782 53.152ZM562.198 30.112H582.43C582.238 27.664 581.23 25.648 579.406 24.064C577.63 22.432 575.23 21.616 572.206 21.616C569.71 21.616 567.55 22.384 565.726 23.92C563.95 25.456 562.774 27.52 562.198 30.112ZM627.492 53.152C622.26 53.152 617.916 51.376 614.46 47.824C611.052 44.176 609.348 39.688 609.348 34.36C609.348 28.936 611.052 24.448 614.46 20.896C617.916 17.344 622.26 15.568 627.492 15.568C631.092 15.568 634.236 16.48 636.924 18.304C639.612 20.08 641.628 22.552 642.972 25.72L636.924 28.24C635.052 23.824 631.764 21.616 627.06 21.616C624.036 21.616 621.42 22.84 619.212 25.288C617.052 27.736 615.972 30.76 615.972 34.36C615.972 37.96 617.052 40.984 619.212 43.432C621.42 45.88 624.036 47.104 627.06 47.104C631.908 47.104 635.316 44.896 637.284 40.48L643.188 43C641.892 46.168 639.852 48.664 637.068 50.488C634.332 52.264 631.14 53.152 627.492 53.152ZM648.981 0.447999H655.605V16.72L655.317 21.616H655.605C656.613 19.888 658.149 18.448 660.213 17.296C662.325 16.144 664.509 15.568 666.765 15.568C671.085 15.568 674.397 16.816 676.701 19.312C679.053 21.76 680.229 25.264 680.229 29.824V52H673.605V31.12C673.605 24.784 670.797 21.616 665.181 21.616C662.493 21.616 660.213 22.744 658.341 25C656.517 27.208 655.605 29.8 655.605 32.776V52H648.981V0.447999ZM692.477 41.2C692.477 42.928 693.197 44.368 694.637 45.52C696.125 46.672 697.853 47.248 699.821 47.248C702.605 47.248 705.077 46.216 707.237 44.152C709.445 42.088 710.549 39.664 710.549 36.88C708.485 35.248 705.605 34.432 701.909 34.432C699.221 34.432 696.965 35.08 695.141 36.376C693.365 37.672 692.477 39.28 692.477 41.2ZM701.045 15.568C705.941 15.568 709.805 16.888 712.637 19.528C715.469 22.12 716.885 25.696 716.885 30.256V52H710.549V47.104H710.261C707.525 51.136 703.877 53.152 699.317 53.152C695.429 53.152 692.165 52 689.525 49.696C686.933 47.392 685.637 44.512 685.637 41.056C685.637 37.408 687.005 34.504 689.741 32.344C692.525 30.184 696.221 29.104 700.829 29.104C704.765 29.104 708.005 29.824 710.549 31.264V29.752C710.549 27.448 709.637 25.504 707.813 23.92C705.989 22.288 703.853 21.472 701.405 21.472C697.709 21.472 694.781 23.032 692.621 26.152L686.789 22.48C690.005 17.872 694.757 15.568 701.045 15.568ZM724.356 16.72H730.692V21.616H730.98C731.988 19.888 733.524 18.448 735.588 17.296C737.7 16.144 739.884 15.568 742.14 15.568C746.46 15.568 749.772 16.816 752.076 19.312C754.428 21.76 755.604 25.264 755.604 29.824V52H748.98V30.256C748.836 24.496 745.932 21.616 740.268 21.616C737.628 21.616 735.42 22.696 733.644 24.856C731.868 26.968 730.98 29.512 730.98 32.488V52H724.356V16.72ZM763.38 16.72H769.716V21.616H770.004C771.012 19.888 772.548 18.448 774.612 17.296C776.724 16.144 778.908 15.568 781.164 15.568C785.484 15.568 788.796 16.816 791.1 19.312C793.452 21.76 794.628 25.264 794.628 29.824V52H788.004V30.256C787.86 24.496 784.956 21.616 779.292 21.616C776.652 21.616 774.444 22.696 772.668 24.856C770.892 26.968 770.004 29.512 770.004 32.488V52H763.38V16.72ZM818.243 53.152C813.059 53.152 808.787 51.376 805.427 47.824C802.067 44.272 800.387 39.784 800.387 34.36C800.387 28.984 802.019 24.52 805.283 20.968C808.547 17.368 812.723 15.568 817.811 15.568C823.043 15.568 827.195 17.272 830.267 20.68C833.387 24.04 834.947 28.768 834.947 34.864L834.875 35.584H807.155C807.251 39.04 808.403 41.824 810.611 43.936C812.819 46.048 815.459 47.104 818.531 47.104C822.755 47.104 826.067 44.992 828.467 40.768L834.371 43.648C832.787 46.624 830.579 48.952 827.747 50.632C824.963 52.312 821.795 53.152 818.243 53.152ZM807.659 30.112H827.891C827.699 27.664 826.691 25.648 824.867 24.064C823.091 22.432 820.691 21.616 817.667 21.616C815.171 21.616 813.011 22.384 811.187 23.92C809.411 25.456 808.235 27.52 807.659 30.112ZM847.629 0.447999V52H841.005V0.447999H847.629Z" fill="#000"/>
        </svg>