<svg width="1234" height="264" viewBox="0 0 1234 264" fill="none" xmlns="http://www.w3.org/2000/svg">
<path d="M220.76 35.92V105H210.64V35.92H188.64V26.24H242.76V35.92H220.76ZM251.564 26.24H261.684V51.1L261.244 58.58H261.684C263.224 55.94 265.571 53.74 268.724 51.98C271.951 50.22 275.288 49.34 278.734 49.34C285.334 49.34 290.394 51.2467 293.914 55.06C297.508 58.8 299.304 64.1533 299.304 71.12V105H289.184V73.1C289.184 63.42 284.894 58.58 276.314 58.58C272.208 58.58 268.724 60.3033 265.864 63.75C263.078 67.1233 261.684 71.0833 261.684 75.63V105H251.564V26.24ZM335.383 106.76C327.463 106.76 320.937 104.047 315.803 98.62C310.67 93.1933 308.103 86.3367 308.103 78.05C308.103 69.8367 310.597 63.0167 315.583 57.59C320.57 52.09 326.95 49.34 334.723 49.34C342.717 49.34 349.06 51.9433 353.753 57.15C358.52 62.2833 360.903 69.5067 360.903 78.82L360.793 79.92H318.443C318.59 85.2 320.35 89.4533 323.723 92.68C327.097 95.9067 331.13 97.52 335.823 97.52C342.277 97.52 347.337 94.2933 351.003 87.84L360.023 92.24C357.603 96.7867 354.23 100.343 349.903 102.91C345.65 105.477 340.81 106.76 335.383 106.76ZM319.213 71.56H350.123C349.83 67.82 348.29 64.74 345.503 62.32C342.79 59.8267 339.123 58.58 334.503 58.58C330.69 58.58 327.39 59.7533 324.603 62.1C321.89 64.4467 320.093 67.6 319.213 71.56ZM408.785 106.76C402.845 106.76 397.712 105.147 393.385 101.92C389.059 98.6933 386.015 94.22 384.255 88.5L393.825 84.54C396.319 92.9 401.305 97.08 408.785 97.08C412.892 97.08 416.192 95.65 418.685 92.79C421.252 89.8567 422.535 86.08 422.535 81.46V26.24H432.655V80.58C432.655 88.72 430.492 95.1367 426.165 99.83C421.912 104.45 416.119 106.76 408.785 106.76ZM441.307 78.05C441.307 69.7633 443.91 62.9067 449.117 57.48C454.397 52.0533 461.033 49.34 469.027 49.34C477.02 49.34 483.62 52.0533 488.827 57.48C494.107 62.9067 496.747 69.7633 496.747 78.05C496.747 86.41 494.107 93.2667 488.827 98.62C483.62 104.047 477.02 106.76 469.027 106.76C461.033 106.76 454.397 104.047 449.117 98.62C443.91 93.1933 441.307 86.3367 441.307 78.05ZM451.427 78.05C451.427 83.8433 453.113 88.5367 456.487 92.13C459.86 95.7233 464.04 97.52 469.027 97.52C474.013 97.52 478.193 95.7233 481.567 92.13C484.94 88.5367 486.627 83.8433 486.627 78.05C486.627 72.33 484.94 67.6733 481.567 64.08C478.12 60.4133 473.94 58.58 469.027 58.58C464.113 58.58 459.933 60.4133 456.487 64.08C453.113 67.6733 451.427 72.33 451.427 78.05ZM551.971 51.1L518.201 128.76H507.751L520.291 101.59L498.071 51.1H509.071L525.131 89.82H525.351L540.971 51.1H551.971ZM579.666 78.05C579.666 69.7633 582.269 62.9067 587.476 57.48C592.756 52.0533 599.393 49.34 607.386 49.34C615.379 49.34 621.979 52.0533 627.186 57.48C632.466 62.9067 635.106 69.7633 635.106 78.05C635.106 86.41 632.466 93.2667 627.186 98.62C621.979 104.047 615.379 106.76 607.386 106.76C599.393 106.76 592.756 104.047 587.476 98.62C582.269 93.1933 579.666 86.3367 579.666 78.05ZM589.786 78.05C589.786 83.8433 591.473 88.5367 594.846 92.13C598.219 95.7233 602.399 97.52 607.386 97.52C612.373 97.52 616.553 95.7233 619.926 92.13C623.299 88.5367 624.986 83.8433 624.986 78.05C624.986 72.33 623.299 67.6733 619.926 64.08C616.479 60.4133 612.299 58.58 607.386 58.58C602.473 58.58 598.293 60.4133 594.846 64.08C591.473 67.6733 589.786 72.33 589.786 78.05ZM667.547 25.36C671.214 25.36 674.221 25.9833 676.567 27.23L673.817 36.14C672.057 35.26 670.077 34.82 667.877 34.82C665.384 34.82 663.331 35.7 661.717 37.46C660.177 39.1467 659.407 41.42 659.407 44.28V51.1H673.487V60.34H659.407V105H649.287V60.34H639.167V51.1H649.287V43.29C649.287 37.9367 650.974 33.61 654.347 30.31C657.794 27.01 662.194 25.36 667.547 25.36ZM744.037 106.76C732.377 106.76 722.624 102.837 714.777 94.99C707.004 87.1433 703.117 77.3533 703.117 65.62C703.117 53.8867 707.004 44.1333 714.777 36.36C722.55 28.44 732.304 24.48 744.037 24.48C755.917 24.48 765.56 28.77 772.967 37.35L765.707 44.39C760.06 37.57 752.837 34.16 744.037 34.16C735.31 34.16 728.014 37.0933 722.147 42.96C716.354 48.7533 713.457 56.3067 713.457 65.62C713.457 74.9333 716.354 82.4867 722.147 88.28C728.014 94.1467 735.31 97.08 744.037 97.08C753.204 97.08 761.16 93.23 767.907 85.53L775.277 92.68C771.537 97.1533 766.954 100.637 761.527 103.13C756.1 105.55 750.27 106.76 744.037 106.76ZM780.115 78.05C780.115 69.7633 782.718 62.9067 787.925 57.48C793.205 52.0533 799.842 49.34 807.835 49.34C815.828 49.34 822.428 52.0533 827.635 57.48C832.915 62.9067 835.555 69.7633 835.555 78.05C835.555 86.41 832.915 93.2667 827.635 98.62C822.428 104.047 815.828 106.76 807.835 106.76C799.842 106.76 793.205 104.047 787.925 98.62C782.718 93.1933 780.115 86.3367 780.115 78.05ZM790.235 78.05C790.235 83.8433 791.922 88.5367 795.295 92.13C798.668 95.7233 802.848 97.52 807.835 97.52C812.822 97.52 817.002 95.7233 820.375 92.13C823.748 88.5367 825.435 83.8433 825.435 78.05C825.435 72.33 823.748 67.6733 820.375 64.08C816.928 60.4133 812.748 58.58 807.835 58.58C802.922 58.58 798.742 60.4133 795.295 64.08C791.922 67.6733 790.235 72.33 790.235 78.05ZM853.794 105H843.674V51.1H853.354V58.58H853.794C855.334 55.94 857.68 53.74 860.834 51.98C864.06 50.22 867.25 49.34 870.404 49.34C874.364 49.34 877.847 50.2567 880.854 52.09C883.86 53.9233 886.06 56.4533 887.454 59.68C891.927 52.7867 898.124 49.34 906.044 49.34C912.277 49.34 917.08 51.2467 920.454 55.06C923.827 58.8733 925.514 64.3 925.514 71.34V105H915.394V72.88C915.394 67.82 914.477 64.19 912.644 61.99C910.81 59.7167 907.73 58.58 903.404 58.58C899.517 58.58 896.254 60.23 893.614 63.53C890.974 66.83 889.654 70.7167 889.654 75.19V105H879.534V72.88C879.534 67.82 878.617 64.19 876.784 61.99C874.95 59.7167 871.87 58.58 867.544 58.58C863.657 58.58 860.394 60.23 857.754 63.53C855.114 66.83 853.794 70.7167 853.794 75.19V105ZM963.746 97.52C968.586 97.52 972.656 95.6867 975.956 92.02C979.256 88.4267 980.906 83.77 980.906 78.05C980.906 72.4033 979.256 67.7467 975.956 64.08C972.656 60.4133 968.586 58.58 963.746 58.58C958.832 58.58 954.726 60.4133 951.426 64.08C948.199 67.7467 946.586 72.4033 946.586 78.05C946.586 83.77 948.199 88.4633 951.426 92.13C954.726 95.7233 958.832 97.52 963.746 97.52ZM965.396 106.76C961.436 106.76 957.806 105.917 954.506 104.23C951.279 102.543 948.786 100.307 947.026 97.52H946.586L947.026 105V128.76H936.906V51.1H946.586V58.58H947.026C948.786 55.7933 951.279 53.5567 954.506 51.87C957.806 50.1833 961.436 49.34 965.396 49.34C972.509 49.34 978.522 52.1267 983.436 57.7C988.496 63.3467 991.026 70.13 991.026 78.05C991.026 86.0433 988.496 92.8267 983.436 98.4C978.522 103.973 972.509 106.76 965.396 106.76ZM1047.06 105H1037.38V97.52H1036.94C1035.4 100.16 1033.01 102.36 1029.79 104.12C1026.63 105.88 1023.33 106.76 1019.89 106.76C1013.29 106.76 1008.19 104.89 1004.6 101.15C1001.08 97.3367 999.318 91.9467 999.318 84.98V51.1H1009.44V84.32C1009.66 93.12 1014.09 97.52 1022.75 97.52C1026.78 97.52 1030.15 95.9067 1032.87 92.68C1035.58 89.38 1036.94 85.4567 1036.94 80.91V51.1H1047.06V105ZM1081.25 105.88C1076.85 105.88 1073.19 104.523 1070.25 101.81C1067.39 99.0967 1065.93 95.32 1065.85 90.48V60.34H1056.39V51.1H1065.85V34.6H1075.97V51.1H1089.17V60.34H1075.97V87.18C1075.97 90.7733 1076.67 93.23 1078.06 94.55C1079.46 95.7967 1081.03 96.42 1082.79 96.42C1083.6 96.42 1084.37 96.3467 1085.1 96.2C1085.91 95.98 1086.64 95.7233 1087.3 95.43L1090.49 104.45C1087.85 105.403 1084.77 105.88 1081.25 105.88ZM1112.43 32.51C1112.43 34.49 1111.73 36.1767 1110.34 37.57C1108.94 38.9633 1107.26 39.66 1105.28 39.66C1103.3 39.66 1101.61 38.9633 1100.22 37.57C1098.82 36.1767 1098.13 34.49 1098.13 32.51C1098.13 30.53 1098.82 28.8433 1100.22 27.45C1101.61 26.0567 1103.3 25.36 1105.28 25.36C1107.26 25.36 1108.94 26.0567 1110.34 27.45C1111.73 28.8433 1112.43 30.53 1112.43 32.51ZM1110.34 51.1V105H1100.22V51.1H1110.34ZM1123.51 51.1H1133.19V58.58H1133.63C1135.17 55.94 1137.51 53.74 1140.67 51.98C1143.89 50.22 1147.23 49.34 1150.68 49.34C1157.28 49.34 1162.34 51.2467 1165.86 55.06C1169.45 58.8 1171.25 64.1533 1171.25 71.12V105H1161.13V71.78C1160.91 62.98 1156.47 58.58 1147.82 58.58C1143.78 58.58 1140.41 60.23 1137.7 63.53C1134.98 66.7567 1133.63 70.6433 1133.63 75.19V105H1123.51V51.1ZM1206.79 97.52C1211.78 97.52 1215.85 95.7233 1219 92.13C1222.3 88.5367 1223.95 83.8433 1223.95 78.05C1223.95 72.4033 1222.3 67.7467 1219 64.08C1215.77 60.4133 1211.7 58.58 1206.79 58.58C1201.95 58.58 1197.88 60.4133 1194.58 64.08C1191.28 67.7467 1189.63 72.4033 1189.63 78.05C1189.63 83.77 1191.28 88.4267 1194.58 92.02C1197.88 95.6867 1201.95 97.52 1206.79 97.52ZM1206.46 130.52C1203.45 130.52 1200.63 130.117 1197.99 129.31C1195.35 128.577 1192.93 127.513 1190.73 126.12C1188.6 124.727 1186.77 123.077 1185.23 121.17C1183.69 119.263 1182.52 117.137 1181.71 114.79L1191.28 110.83C1192.38 113.983 1194.29 116.513 1197 118.42C1199.71 120.327 1202.87 121.28 1206.46 121.28C1211.96 121.28 1216.25 119.63 1219.33 116.33C1222.41 113.03 1223.95 108.483 1223.95 102.69V97.52H1223.51C1221.6 100.38 1219 102.653 1215.7 104.34C1212.47 105.953 1208.95 106.76 1205.14 106.76C1198.1 106.76 1192.05 104.01 1186.99 98.51C1182 92.8633 1179.51 86.0433 1179.51 78.05C1179.51 70.0567 1182 63.2733 1186.99 57.7C1192.05 52.1267 1198.1 49.34 1205.14 49.34C1208.95 49.34 1212.47 50.1833 1215.7 51.87C1219 53.4833 1221.6 55.72 1223.51 58.58H1223.95V51.1H1233.63V102.69C1233.63 111.343 1231.17 118.127 1226.26 123.04C1221.27 128.027 1214.67 130.52 1206.46 130.52ZM239.46 238H229.78V230.52H229.34C227.8 233.16 225.417 235.36 222.19 237.12C219.037 238.88 215.737 239.76 212.29 239.76C205.69 239.76 200.593 237.89 197 234.15C193.48 230.337 191.72 224.947 191.72 217.98V184.1H201.84V217.32C202.06 226.12 206.497 230.52 215.15 230.52C219.183 230.52 222.557 228.907 225.27 225.68C227.983 222.38 229.34 218.457 229.34 213.91V184.1H239.46V238ZM292.492 223.04C292.492 227.733 290.439 231.693 286.332 234.92C282.225 238.147 277.055 239.76 270.822 239.76C265.395 239.76 260.629 238.367 256.522 235.58C252.415 232.72 249.482 228.98 247.722 224.36L256.742 220.51C258.062 223.737 259.969 226.267 262.462 228.1C265.029 229.86 267.815 230.74 270.822 230.74C274.049 230.74 276.725 230.043 278.852 228.65C281.052 227.257 282.152 225.607 282.152 223.7C282.152 220.253 279.512 217.723 274.232 216.11L264.992 213.8C254.505 211.16 249.262 206.1 249.262 198.62C249.262 193.707 251.242 189.783 255.202 186.85C259.235 183.843 264.369 182.34 270.602 182.34C275.369 182.34 279.659 183.477 283.472 185.75C287.359 188.023 290.072 191.067 291.612 194.88L282.592 198.62C281.565 196.347 279.879 194.587 277.532 193.34C275.259 192.02 272.692 191.36 269.832 191.36C267.192 191.36 264.809 192.02 262.682 193.34C260.629 194.66 259.602 196.273 259.602 198.18C259.602 201.26 262.499 203.46 268.292 204.78L276.432 206.87C287.139 209.51 292.492 214.9 292.492 223.04ZM313.854 165.51C313.854 167.49 313.157 169.177 311.764 170.57C310.37 171.963 308.684 172.66 306.704 172.66C304.724 172.66 303.037 171.963 301.644 170.57C300.25 169.177 299.554 167.49 299.554 165.51C299.554 163.53 300.25 161.843 301.644 160.45C303.037 159.057 304.724 158.36 306.704 158.36C308.684 158.36 310.37 159.057 311.764 160.45C313.157 161.843 313.854 163.53 313.854 165.51ZM311.764 184.1V238H301.644V184.1H311.764ZM324.933 184.1H334.613V191.58H335.053C336.593 188.94 338.94 186.74 342.093 184.98C345.32 183.22 348.657 182.34 352.103 182.34C358.703 182.34 363.763 184.247 367.283 188.06C370.877 191.8 372.673 197.153 372.673 204.12V238H362.553V204.78C362.333 195.98 357.897 191.58 349.243 191.58C345.21 191.58 341.837 193.23 339.123 196.53C336.41 199.757 335.053 203.643 335.053 208.19V238H324.933V184.1ZM408.215 230.52C413.202 230.52 417.272 228.723 420.425 225.13C423.725 221.537 425.375 216.843 425.375 211.05C425.375 205.403 423.725 200.747 420.425 197.08C417.199 193.413 413.129 191.58 408.215 191.58C403.375 191.58 399.305 193.413 396.005 197.08C392.705 200.747 391.055 205.403 391.055 211.05C391.055 216.77 392.705 221.427 396.005 225.02C399.305 228.687 403.375 230.52 408.215 230.52ZM407.885 263.52C404.879 263.52 402.055 263.117 399.415 262.31C396.775 261.577 394.355 260.513 392.155 259.12C390.029 257.727 388.195 256.077 386.655 254.17C385.115 252.263 383.942 250.137 383.135 247.79L392.705 243.83C393.805 246.983 395.712 249.513 398.425 251.42C401.139 253.327 404.292 254.28 407.885 254.28C413.385 254.28 417.675 252.63 420.755 249.33C423.835 246.03 425.375 241.483 425.375 235.69V230.52H424.935C423.029 233.38 420.425 235.653 417.125 237.34C413.899 238.953 410.379 239.76 406.565 239.76C399.525 239.76 393.475 237.01 388.415 231.51C383.429 225.863 380.935 219.043 380.935 211.05C380.935 203.057 383.429 196.273 388.415 190.7C393.475 185.127 399.525 182.34 406.565 182.34C410.379 182.34 413.899 183.183 417.125 184.87C420.425 186.483 423.029 188.72 424.935 191.58H425.375V184.1H435.055V235.69C435.055 244.343 432.599 251.127 427.685 256.04C422.699 261.027 416.099 263.52 407.885 263.52ZM483.444 206.1V238H473.324V159.24H500.164C506.984 159.24 512.778 161.513 517.544 166.06C522.384 170.607 524.804 176.143 524.804 182.67C524.804 189.343 522.384 194.917 517.544 199.39C512.851 203.863 507.058 206.1 500.164 206.1H483.444ZM483.444 168.92V196.42H500.384C504.418 196.42 507.754 195.063 510.394 192.35C513.108 189.637 514.464 186.41 514.464 182.67C514.464 179.003 513.108 175.813 510.394 173.1C507.754 170.313 504.418 168.92 500.384 168.92H483.444ZM581.834 184.1L548.064 261.76H537.614L550.154 234.59L527.934 184.1H538.934L554.994 222.82H555.214L570.834 184.1H581.834ZM609.779 238.88C605.379 238.88 601.713 237.523 598.779 234.81C595.919 232.097 594.453 228.32 594.379 223.48V193.34H584.919V184.1H594.379V167.6H604.499V184.1H617.699V193.34H604.499V220.18C604.499 223.773 605.196 226.23 606.589 227.55C607.983 228.797 609.559 229.42 611.319 229.42C612.126 229.42 612.896 229.347 613.629 229.2C614.436 228.98 615.169 228.723 615.829 228.43L619.019 237.45C616.379 238.403 613.299 238.88 609.779 238.88ZM627.863 159.24H637.983V184.1L637.543 191.58H637.983C639.523 188.94 641.87 186.74 645.023 184.98C648.25 183.22 651.586 182.34 655.033 182.34C661.633 182.34 666.693 184.247 670.213 188.06C673.806 191.8 675.603 197.153 675.603 204.12V238H665.483V206.1C665.483 196.42 661.193 191.58 652.613 191.58C648.506 191.58 645.023 193.303 642.163 196.75C639.376 200.123 637.983 204.083 637.983 208.63V238H627.863V159.24ZM684.402 211.05C684.402 202.763 687.006 195.907 692.212 190.48C697.492 185.053 704.129 182.34 712.122 182.34C720.116 182.34 726.716 185.053 731.922 190.48C737.202 195.907 739.842 202.763 739.842 211.05C739.842 219.41 737.202 226.267 731.922 231.62C726.716 237.047 720.116 239.76 712.122 239.76C704.129 239.76 697.492 237.047 692.212 231.62C687.006 226.193 684.402 219.337 684.402 211.05ZM694.522 211.05C694.522 216.843 696.209 221.537 699.582 225.13C702.956 228.723 707.136 230.52 712.122 230.52C717.109 230.52 721.289 228.723 724.662 225.13C728.036 221.537 729.722 216.843 729.722 211.05C729.722 205.33 728.036 200.673 724.662 197.08C721.216 193.413 717.036 191.58 712.122 191.58C707.209 191.58 703.029 193.413 699.582 197.08C696.209 200.673 694.522 205.33 694.522 211.05ZM747.961 184.1H757.641V191.58H758.081C759.621 188.94 761.967 186.74 765.121 184.98C768.347 183.22 771.684 182.34 775.131 182.34C781.731 182.34 786.791 184.247 790.311 188.06C793.904 191.8 795.701 197.153 795.701 204.12V238H785.581V204.78C785.361 195.98 780.924 191.58 772.271 191.58C768.237 191.58 764.864 193.23 762.151 196.53C759.437 199.757 758.081 203.643 758.081 208.19V238H747.961V184.1Z" fill="#000"/>
<circle cx="70" cy="70" r="70" fill="#6400EE"/>
<path d="M94.36 99.32V109H46.4V98.88L65.87 79.19C72.3967 72.5167 76.9067 67.53 79.4 64.23C81.8933 60.8567 83.14 57.3367 83.14 53.67C83.14 50.37 81.8567 47.5467 79.29 45.2C76.7233 42.8533 73.4233 41.68 69.39 41.68C65.9433 41.68 62.9733 42.7067 60.48 44.76C57.9867 46.8133 56.3733 49.3067 55.64 52.24L46.4 48.5C47.8667 43.88 50.69 39.9933 54.87 36.84C59.05 33.6133 63.9633 32 69.61 32C76.43 32 82.1133 34.09 86.66 38.27C91.2067 42.45 93.48 47.5833 93.48 53.67C93.48 60.93 89.4833 68.7767 81.49 77.21L59.49 99.32H94.36Z" fill="white"/>
</svg>
