<svg width="56" height="56" viewBox="0 0 56 56" fill="none" xmlns="http://www.w3.org/2000/svg">
<path d="M56 28C56 12.536 43.464 0 28 0C12.536 0 0 12.536 0 28C0 43.464 12.536 56 28 56C43.464 56 56 43.464 56 28Z" fill="#601CFB"/>
<path d="M18.7622 38.0598C17.7274 38.0598 16.9075 37.7574 16.3027 37.1526C15.7114 36.5478 15.4157 35.7414 15.4157 34.7334V31.2861C15.4157 30.735 15.2746 30.3184 14.9923 30.0362C14.7101 29.7405 14.3539 29.5926 13.9238 29.5926V28.0605C14.3539 28.0605 14.7101 27.9194 14.9923 27.6371C15.2746 27.3414 15.4157 26.9181 15.4157 26.367V22.9197C15.4157 21.9117 15.7114 21.1053 16.3027 20.5005C16.9075 19.8957 17.7274 19.5933 18.7622 19.5933H19.2058V21.1254H18.7622C18.2918 21.1254 17.8954 21.2934 17.5728 21.6294C17.2637 21.9654 17.1091 22.4157 17.1091 22.9802V26.4275C17.1091 27.6506 16.6454 28.4368 15.7181 28.7862V28.8669C16.6454 29.1894 17.1091 29.9757 17.1091 31.2256V34.673C17.1091 35.2374 17.2637 35.6877 17.5728 36.0237C17.8954 36.3597 18.2918 36.5277 18.7622 36.5277H19.2058V38.0598H18.7622ZM34.7082 38.0598H34.2647V36.5277H34.7082C35.1786 36.5277 35.5684 36.3597 35.8775 36.0237C36.2001 35.6877 36.3614 35.2374 36.3614 34.673V31.2256C36.3614 29.9757 36.825 29.1894 37.7524 28.8669V28.7862C36.825 28.4368 36.3614 27.6506 36.3614 26.4275V22.9802C36.3614 22.4157 36.2001 21.9654 35.8775 21.6294C35.5684 21.2934 35.1786 21.1254 34.7082 21.1254H34.2647V19.5933H34.7082C35.7431 19.5933 36.5562 19.8957 37.1476 20.5005C37.7524 21.1053 38.0548 21.9117 38.0548 22.9197V26.367C38.0548 26.9181 38.1959 27.3414 38.4782 27.6371C38.7604 27.9194 39.1166 28.0605 39.5466 28.0605V29.5926C39.1166 29.5926 38.7604 29.7405 38.4782 30.0362C38.1959 30.3184 38.0548 30.735 38.0548 31.2861V34.7334C38.0548 35.7414 37.7524 36.5478 37.1476 37.1526C36.5562 37.7574 35.7431 38.0598 34.7082 38.0598Z" fill="white"/>
<path d="M21.7532 36.4874L20.2613 35.8826L26.773 20.1981L28.2649 20.8029L21.7532 36.4874ZM26.7144 36.4874L25.2226 35.8826L31.7344 20.1981L33.2262 20.8029L26.7144 36.4874Z" fill="black"/>
</svg>
