<?xml version="1.0" encoding="UTF-8"?>
<svg viewBox="0 0 374 50" xmlns="http://www.w3.org/2000/svg">
<path d="m104.44 25.84c0 4-1.187 7.1867-3.56 9.56-2.6667 2.8267-6.1733 4.24-10.52 4.24-4.16 0-7.68-1.44-10.56-4.32s-4.32-6.4267-4.32-10.64 1.44-7.76 4.32-10.64 6.4-4.32 10.56-4.32c2.1067 0 4.0933 0.3733 5.96 1.12s3.4 1.8 4.6 3.16l-2.64 2.64c-0.88-1.0667-2.0267-1.8933-3.44-2.48-1.3867-0.6133-2.88-0.92-4.48-0.92-3.12 0-5.76 1.08-7.92 3.24-2.1333 2.1867-3.2 4.92-3.2 8.2s1.0667 6.0133 3.2 8.2c2.16 2.16 4.8 3.24 7.92 3.24 2.8533 0 5.2267-0.8 7.12-2.4s2.987-3.8 3.28-6.6h-10.4v-3.44h13.88c0.133 0.7467 0.2 1.4667 0.2 2.16zm12.436 13.8c-2.88 0-5.253-0.9867-7.12-2.96s-2.8-4.4667-2.8-7.48c0-2.9867 0.907-5.4667 2.72-7.44 1.813-2 4.133-3 6.96-3 2.907 0 5.213 0.9467 6.92 2.84 1.733 1.8667 2.6 4.4933 2.6 7.88l-0.04 0.4h-15.4c0.053 1.92 0.693 3.4667 1.92 4.64s2.693 1.76 4.4 1.76c2.347 0 4.187-1.1733 5.52-3.52l3.28 1.6c-0.88 1.6533-2.107 2.9467-3.68 3.88-1.547 0.9333-3.307 1.4-5.28 1.4zm-5.88-12.8h11.24c-0.107-1.36-0.667-2.48-1.68-3.36-0.987-0.9067-2.32-1.36-4-1.36-1.387 0-2.587 0.4267-3.6 1.28-0.987 0.8533-1.64 2-1.96 3.44zm25.699 12.48c-1.6 0-2.933-0.4933-4-1.48-1.04-0.9867-1.573-2.36-1.6-4.12v-10.96h-3.44v-3.36h3.44v-6h3.68v6h4.8v3.36h-4.8v9.76c0 1.3067 0.254 2.2 0.76 2.68 0.507 0.4533 1.08 0.68 1.72 0.68 0.294 0 0.574-0.0267 0.84-0.08 0.294-0.08 0.56-0.1733 0.8-0.28l1.16 3.28c-0.96 0.3467-2.08 0.52-3.36 0.52zm19.49-11.92v11.6h-3.68v-28.64h9.76c2.48 0 4.587 0.8267 6.32 2.48 1.76 1.6533 2.64 3.6667 2.64 6.04 0 2.4267-0.88 4.4533-2.64 6.08-1.707 1.6267-3.813 2.44-6.32 2.44h-6.08zm0-13.52v10h6.16c1.467 0 2.68-0.4933 3.64-1.48 0.987-0.9867 1.48-2.16 1.48-3.52 0-1.3333-0.493-2.4933-1.48-3.48-0.96-1.0133-2.173-1.52-3.64-1.52h-6.16zm35.778 5.52-12.28 28.24h-3.8l4.56-9.88-8.08-18.36h4l5.84 14.08h0.08l5.68-14.08h4zm10.162 19.92c-1.6 0-2.933-0.4933-4-1.48-1.04-0.9867-1.573-2.36-1.6-4.12v-10.96h-3.44v-3.36h3.44v-6h3.68v6h4.8v3.36h-4.8v9.76c0 1.3067 0.253 2.2 0.76 2.68 0.507 0.4533 1.08 0.68 1.72 0.68 0.293 0 0.573-0.0267 0.84-0.08 0.293-0.08 0.56-0.1733 0.8-0.28l1.16 3.28c-0.96 0.3467-2.08 0.52-3.36 0.52zm6.576-28.96h3.68v9.04l-0.16 2.72h0.16c0.56-0.96 1.413-1.76 2.56-2.4 1.173-0.64 2.387-0.96 3.64-0.96 2.4 0 4.24 0.6933 5.52 2.08 1.307 1.36 1.96 3.3067 1.96 5.84v12.32h-3.68v-11.6c0-3.52-1.56-5.28-4.68-5.28-1.493 0-2.76 0.6267-3.8 1.88-1.013 1.2267-1.52 2.6667-1.52 4.32v10.68h-3.68v-28.64zm20.56 18.84c0-3.0133 0.946-5.5067 2.84-7.48 1.92-1.9733 4.333-2.96 7.24-2.96 2.906 0 5.306 0.9867 7.2 2.96 1.92 1.9733 2.88 4.4667 2.88 7.48 0 3.04-0.96 5.5333-2.88 7.48-1.894 1.9733-4.294 2.96-7.2 2.96-2.907 0-5.32-0.9867-7.24-2.96-1.894-1.9733-2.84-4.4667-2.84-7.48zm3.68 0c0 2.1067 0.613 3.8133 1.84 5.12 1.226 1.3067 2.746 1.96 4.56 1.96 1.813 0 3.333-0.6533 4.56-1.96 1.226-1.3067 1.84-3.0133 1.84-5.12 0-2.08-0.614-3.7733-1.84-5.08-1.254-1.3333-2.774-2-4.56-2-1.787 0-3.307 0.6667-4.56 2-1.227 1.3067-1.84 3-1.84 5.08zm19.432-9.8h3.52v2.72h0.16c0.56-0.96 1.413-1.76 2.56-2.4 1.173-0.64 2.386-0.96 3.64-0.96 2.4 0 4.24 0.6933 5.52 2.08 1.306 1.36 1.96 3.3067 1.96 5.84v12.32h-3.68v-12.08c-0.08-3.2-1.694-4.8-4.84-4.8-1.467 0-2.694 0.6-3.68 1.8-0.987 1.1733-1.48 2.5867-1.48 4.24v10.84h-3.68v-19.6zm43.807 20.24c-4.24 0-7.786-1.4267-10.64-4.28-2.826-2.8533-4.24-6.4133-4.24-10.68s1.414-7.8133 4.24-10.64c2.827-2.88 6.374-4.32 10.64-4.32 4.32 0 7.827 1.56 10.52 4.68l-2.64 2.56c-2.053-2.48-4.68-3.72-7.88-3.72-3.173 0-5.826 1.0667-7.96 3.2-2.106 2.1067-3.16 4.8533-3.16 8.24s1.054 6.1333 3.16 8.24c2.134 2.1333 4.787 3.2 7.96 3.2 3.334 0 6.227-1.4 8.68-4.2l2.68 2.6c-1.36 1.6267-3.026 2.8933-5 3.8-1.973 0.88-4.093 1.32-6.36 1.32zm13.12-10.44c0-3.0133 0.946-5.5067 2.84-7.48 1.92-1.9733 4.333-2.96 7.24-2.96 2.906 0 5.306 0.9867 7.2 2.96 1.92 1.9733 2.88 4.4667 2.88 7.48 0 3.04-0.96 5.5333-2.88 7.48-1.894 1.9733-4.294 2.96-7.2 2.96-2.907 0-5.32-0.9867-7.24-2.96-1.894-1.9733-2.84-4.4667-2.84-7.48zm3.68 0c0 2.1067 0.613 3.8133 1.84 5.12 1.226 1.3067 2.746 1.96 4.56 1.96 1.813 0 3.333-0.6533 4.56-1.96 1.226-1.3067 1.84-3.0133 1.84-5.12 0-2.08-0.614-3.7733-1.84-5.08-1.254-1.3333-2.774-2-4.56-2-1.787 0-3.307 0.6667-4.56 2-1.227 1.3067-1.84 3-1.84 5.08zm28.623 7.08c1.813 0 3.293-0.6533 4.44-1.96 1.2-1.3067 1.8-3.0133 1.8-5.12 0-2.0533-0.6-3.7467-1.8-5.08-1.174-1.3333-2.654-2-4.44-2-1.76 0-3.24 0.6667-4.44 2s-1.8 3.0267-1.8 5.08c0 2.08 0.6 3.7733 1.8 5.08 1.2 1.3333 2.68 2 4.44 2zm-0.6 3.36c-2.56 0-4.76-1.0133-6.6-3.04-1.814-2.0533-2.72-4.52-2.72-7.4s0.906-5.3467 2.72-7.4c1.84-2.0267 4.04-3.04 6.6-3.04 1.44 0 2.746 0.3067 3.92 0.92 1.2 0.6133 2.12 1.4267 2.76 2.44h0.16l-0.16-2.72v-9.04h3.68v28.64h-3.52v-2.72h-0.16c-0.64 1.0133-1.56 1.8267-2.76 2.44-1.174 0.6133-2.48 0.92-3.92 0.92zm23.451 0c-2.88 0-5.253-0.9867-7.12-2.96s-2.8-4.4667-2.8-7.48c0-2.9867 0.907-5.4667 2.72-7.44 1.813-2 4.133-3 6.96-3 2.907 0 5.213 0.9467 6.92 2.84 1.733 1.8667 2.6 4.4933 2.6 7.88l-0.04 0.4h-15.4c0.053 1.92 0.693 3.4667 1.92 4.64s2.693 1.76 4.4 1.76c2.347 0 4.187-1.1733 5.52-3.52l3.28 1.6c-0.88 1.6533-2.107 2.9467-3.68 3.88-1.547 0.9333-3.307 1.4-5.28 1.4zm-5.88-12.8h11.24c-0.107-1.36-0.667-2.48-1.68-3.36-0.987-0.9067-2.32-1.36-4-1.36-1.387 0-2.587 0.4267-3.6 1.28-0.987 0.8533-1.64 2-1.96 3.44z" fill-opacity=".6"/>
<path d="m50 25c0-13.807-11.193-25-25-25s-25 11.193-25 25 11.193 25 25 25 25-11.193 25-25z" fill="#601CFB"/>
<path d="m17.434 34.356h-0.418c-0.9627 0-1.729-0.285-2.299-0.855-0.57-0.5573-0.855-1.3173-0.855-2.28v-3.078c0-1.178-0.4687-1.767-1.406-1.767v-1.444c0.9373 0 1.406-0.589 1.406-1.767v-3.078c0-0.9627 0.285-1.7227 0.855-2.28 0.57-0.57 1.3363-0.855 2.299-0.855h0.418v1.444h-0.285c-1.1273 0-1.691 0.6397-1.691 1.919v3.154c-0.0127 1.1273-0.4497 1.843-1.311 2.147v0.076c0.8487 0.2787 1.2857 0.9753 1.311 2.09v3.211c0 1.2793 0.5637 1.919 1.691 1.919h0.285v1.444zm14.193 0v-1.444h0.285c1.1273 0 1.691-0.6397 1.691-1.919v-3.211c0.0253-1.1147 0.4623-1.8113 1.311-2.09v-0.076c-0.8614-0.304-1.2984-1.0197-1.311-2.147v-3.154c0-1.2793-0.5637-1.919-1.691-1.919h-0.285v-1.444h0.418c0.9626 0 1.729 0.285 2.299 0.855 0.57 0.5573 0.855 1.3173 0.855 2.28v3.078c0 1.178 0.4686 1.767 1.406 1.767v1.444c-0.9374 0-1.406 0.589-1.406 1.767v3.078c0 0.9627-0.285 1.7227-0.855 2.28-0.57 0.57-1.3364 0.855-2.299 0.855h-0.418z" fill="#fff"/>
<path d="m25.839 18.396-5.643 13.604h-1.634l5.643-13.604h1.634zm4.6758 0-5.643 13.604h-1.634l5.643-13.604h1.634z"/>
</svg>